<svg width="60" height="135" viewBox="0 0 60 135" fill="none" xmlns="http://www.w3.org/2000/svg">
<path d="M26.3291 2.50931C26.2313 2.43449 26.215 2.29692 26.2928 2.20256C26.3704 2.10819 26.5129 2.09251 26.6107 2.16759C26.6227 2.17684 29.045 4.04254 31.152 5.64674C31.5884 5.60354 33.5628 5.37547 35.4772 4.61978C36.6323 4.1639 38.6599 2.99039 40.2887 2.04751C41.4616 1.3687 42.4344 0.805858 42.8165 0.695295C42.8541 0.678325 42.897 0.671126 42.9412 0.676525L42.9444 0.676784C43.104 0.69864 43.177 0.784773 43.1565 0.939562L43.1554 0.947534C43.1503 0.981732 43.1365 1.01773 43.1141 1.05398C42.9257 1.36073 40.8642 3.19814 38.7721 4.93939C36.9579 6.44948 35.097 7.89477 34.3456 8.24395C36.4519 10.0469 39.1089 12.5086 40.5941 14.6055C41.9737 16.5534 42.6993 18.5798 42.7475 20.5288C42.7869 22.1281 42.3707 23.6727 41.4867 25.0763C41.3063 25.6608 37.9954 36.3348 36.5228 37.804C35.7988 38.5262 33.1653 38.9788 30.0806 39.1819C26.5316 39.4154 22.355 39.3313 19.839 38.9528C18.883 38.8091 18.0199 38.5885 17.243 38.3329C17.2281 38.4468 17.1678 38.5471 17.0615 38.6317C16.9512 38.7196 16.7874 38.7849 16.5702 38.8237C16.085 38.9101 15.2697 38.8744 14.112 38.6628C13.0499 38.4686 12.2274 38.0796 11.7204 37.6525C11.4664 37.4386 11.2868 37.2113 11.1907 36.9886L11.1851 36.9766C11.0788 36.7228 11.0777 36.4744 11.1925 36.2535C11.2757 36.0933 11.4179 35.9545 11.6226 35.8465C12.1992 35.5418 12.995 35.9409 14.1645 36.5274C14.7368 36.8143 15.4048 37.1493 16.1775 37.4687C15.5705 36.6999 14.5761 35.3515 13.6918 33.7425C12.415 31.4193 11.3692 28.5514 12.0361 26.076C12.5679 24.1026 13.6734 22.2595 14.8636 20.7703C16.4042 18.8426 18.1268 17.502 18.9538 17.2176C18.0397 14.8155 14.4552 11.5999 10.2733 7.84875C7.70128 5.54157 4.90466 3.03281 2.34598 0.365407C2.26152 0.277214 2.26684 0.139648 2.35823 0.0578828C2.44962 -0.0236256 2.59217 -0.0184817 2.6769 0.0697119C5.21294 2.71346 8.00956 5.22223 10.5813 7.52914C14.8849 11.3899 18.5624 14.689 19.4305 17.215C19.9106 17.4768 20.2791 18.6709 20.4691 20.1704C20.6674 21.7353 20.702 23.6588 20.4864 25.156C20.4742 25.2419 20.4603 25.3296 20.4451 25.4183C20.2226 26.7289 19.6988 27.8013 19.0881 28.5295C18.7703 28.9085 18.426 29.197 18.0852 29.3806C17.7245 29.5747 17.3637 29.6534 17.0344 29.6012C16.8345 29.5696 16.6483 29.4906 16.4825 29.361C15.9238 28.9245 16.5225 27.481 17.2963 25.6145C18.3242 23.1353 19.6799 19.8652 19.0796 17.6076C18.4502 17.7539 16.782 19.0833 15.2207 21.0367C14.0624 22.4861 12.9876 24.2759 12.4731 26.1853C11.8413 28.5308 12.8565 31.2918 14.0915 33.5391C15.283 35.7071 16.6805 37.3957 17.017 37.7919C17.8686 38.0948 18.8291 38.3601 19.9082 38.5224C22.3921 38.896 26.5284 38.978 30.0508 38.7463C33.0366 38.5499 35.5598 38.1377 36.1974 37.5016C37.2512 36.4502 39.3737 30.1836 40.4318 26.9125C39.0591 29.214 36.5779 33.0634 34.4765 34.6426C33.1893 35.6099 32.2343 36.1746 31.6692 36.3389C31.4131 36.4132 31.2098 36.4122 31.0643 36.3363C30.8834 36.242 30.8067 36.0686 30.8397 35.8177C30.8818 35.4999 31.1302 35.0008 31.602 34.3246C32.4051 33.1742 33.9657 31.823 35.6539 30.3615C37.3671 28.8784 39.2133 27.2796 40.5045 25.6829C41.7518 24.1404 42.3422 22.3776 42.2967 20.5391C42.2506 18.6755 41.5514 16.7298 40.221 14.8518C37.6823 11.268 31.6433 6.58061 31.0007 6.08642L26.3291 2.50931ZM31.6516 6.02703C32.8722 6.95396 33.9015 7.72636 34.1549 7.88963C34.4972 7.83692 36.4927 6.26049 38.4758 4.61001C39.828 3.48458 41.1608 2.32881 41.9655 1.58983C41.5671 1.8161 41.0667 2.10562 40.5203 2.42188C38.8803 3.37119 36.8382 4.55293 35.647 5.02321C34.0763 5.64314 32.468 5.91826 31.6516 6.02703ZM39.7156 27.2346C38.5699 28.421 37.2254 29.585 35.9536 30.6863C34.2894 32.1272 32.7509 33.4591 31.9761 34.5691C31.5439 35.1883 31.3193 35.6225 31.2863 35.8727C31.2794 35.9254 31.2764 35.9517 31.2772 35.9522C31.3135 35.9709 31.4011 35.9604 31.5389 35.9205C32.0539 35.7706 32.9569 35.2317 34.1975 34.2994C36.0903 32.8772 38.3194 29.5284 39.7156 27.2346ZM16.7413 38.1593C15.6318 37.7559 14.7109 37.2944 13.9545 36.9148C12.9119 36.3919 12.2024 36.0363 11.8376 36.2288C11.7174 36.2923 11.6375 36.3672 11.5951 36.4482C11.5418 36.5508 11.5464 36.6762 11.6037 36.8125L11.6074 36.8225C11.6772 36.9832 11.8157 37.1553 12.0166 37.3244C12.4693 37.7058 13.2162 38.0552 14.194 38.2339C15.295 38.4352 16.053 38.4722 16.4876 38.3949C16.627 38.3699 16.7221 38.336 16.7738 38.2948C16.7884 38.2833 16.7948 38.2719 16.7932 38.2617C16.789 38.2347 16.7716 38.2005 16.7413 38.1593ZM20.0183 20.2231C19.9234 19.4739 19.7993 18.8141 19.6575 18.3428C19.8448 20.6397 18.648 23.5261 17.7151 25.7765C17.0112 27.4745 16.4666 28.7879 16.7668 29.0227C16.8689 29.1024 16.9835 29.151 17.106 29.1705C17.3325 29.2063 17.5934 29.1453 17.8649 28.9993C18.1561 28.8427 18.4553 28.5899 18.7369 28.2541C19.3031 27.5794 19.7894 26.5784 19.9983 25.3481C20.0119 25.2684 20.0249 25.1843 20.0377 25.0961C20.2472 23.638 20.2128 21.7574 20.0183 20.2231Z" fill="#333333"/>
<path d="M18.6032 16.0036C18.7156 15.9517 18.8505 15.9977 18.904 16.106C18.9578 16.2145 18.9101 16.3446 18.7977 16.3963C18.7764 16.406 11.4275 19.7813 6.20278 24.055C4.088 25.7846 3.30758 27.8342 3.278 29.8678C3.2359 32.7735 4.71601 35.66 6.04398 37.5542C7.16545 39.1541 8.43027 40.0941 9.83924 40.6567C11.2589 41.2237 12.8352 41.4132 14.5617 41.5083C16.1948 41.5983 18.8206 41.5934 21.7446 41.5283C25.068 41.4545 28.7849 41.3021 31.8714 41.1223C33.1959 41.0452 34.3046 40.9748 35.2169 40.9169C38.4017 40.7145 39.3015 40.6575 39.4001 41.102C39.4321 41.2458 39.2632 41.7163 38.9845 42.4926C38.5384 43.7352 37.7961 45.8025 37.118 48.3527C37.636 47.1334 38.1563 46.0496 38.6287 45.1911C39.8365 42.9952 40.8829 41.9282 41.7121 41.0825C42.3475 40.4345 42.8506 39.9213 43.19 39.1127L43.2668 38.9298L43.2718 38.9191C44.032 37.103 44.6246 35.697 48.884 29.7181C51.0715 26.6478 52.2884 24.6713 52.9505 23.0946C53.6046 21.5372 53.7147 20.367 53.6902 18.9012C53.6627 17.2674 52.93 15.6012 52.2889 14.449C52.8178 16.2895 53.441 19.2454 52.7837 21.3706C51.9852 23.9526 47.4407 30.4198 45.4181 33.2986C44.8868 34.055 44.5313 34.5608 44.4738 34.667L44.4746 34.6672C44.4637 34.6873 44.4525 34.7053 44.4402 34.7215C43.7613 36.0454 43.2265 36.9868 43.0371 37.1765C42.9942 37.2195 42.9441 37.2596 42.8879 37.2971C42.4229 37.6077 41.4419 37.755 40.5408 37.7856C39.6213 37.8168 38.7524 37.7147 38.5597 37.5355C38.5429 37.52 38.5283 37.5033 38.5155 37.4858C38.4702 37.4218 38.4649 37.3426 38.4945 37.2763C38.5462 36.7975 38.9834 35.633 39.5704 34.0692C40.726 30.9904 42.4837 26.3076 43.201 22.7853C43.765 20.0166 43.5668 18.1007 42.8373 16.6943C42.1117 15.2952 40.8501 14.3845 39.2863 13.6288C39.175 13.5751 39.1297 13.4442 39.1854 13.3367C39.241 13.2293 39.3767 13.1855 39.488 13.2393C41.1323 14.0341 42.4632 14.9998 43.2409 16.4996C44.0144 17.9917 44.2303 19.9975 43.6451 22.8691C42.9217 26.4208 41.156 31.1248 39.9951 34.2178C39.3516 35.9323 38.9008 37.1333 38.8877 37.2326C39.0391 37.3292 39.742 37.3768 40.5245 37.3501C41.3556 37.3218 42.2439 37.1968 42.6308 36.9384C42.6619 36.9176 42.6889 36.896 42.7107 36.8741C42.886 36.6985 43.3896 35.8063 44.0357 34.541C44.0397 34.5233 44.0461 34.5058 44.0552 34.4885C44.0629 34.4739 44.0722 34.4603 44.0829 34.4482L44.0842 34.4459L44.1354 34.3451C44.2417 33.7182 44.6174 32.4809 45.0666 31.0027C45.9987 27.9355 47.2624 23.7773 47.4966 22.4772C47.6458 21.6498 47.8776 21.0857 48.1097 20.8298C48.2459 20.6799 48.3967 20.611 48.5523 20.6277C48.7081 20.6442 48.8419 20.7429 48.9423 20.927C49.1131 21.2397 49.2155 21.8905 49.1694 22.9092C49.1185 24.0321 48.2464 26.4115 47.1723 28.911C46.7234 29.9562 46.2374 31.0246 45.761 32.0322C47.9701 28.874 51.6524 23.4998 52.3494 21.2464C53.3089 18.1442 51.3825 13.1007 51.3071 12.905C51.2692 12.8143 51.2985 12.7068 51.3843 12.6466C51.4856 12.5759 51.6271 12.5978 51.7003 12.6952C51.7073 12.7042 54.0896 15.8347 54.1407 18.8945C54.1663 20.4177 54.0515 21.6344 53.3691 23.2586C52.695 24.8639 51.4637 26.8651 49.2549 29.9657C45.0232 35.9053 44.4397 37.2912 43.6896 39.0828L43.6854 39.0939L43.6086 39.2767C43.2391 40.1574 42.7086 40.6983 42.0387 41.3815C41.2303 42.2059 40.2106 43.2459 39.0279 45.396C38.2032 46.8948 37.231 49.0865 36.3842 51.4857C36.1761 52.5232 35.9939 53.607 35.8556 54.7204C35.5358 57.2916 35.7903 60.0073 36.2734 62.4809C37.1382 66.9111 38.7305 70.5559 39.0801 71.2303C39.1305 71.3275 39.1526 71.4054 39.1494 71.4633C39.1286 71.8327 38.8899 71.8178 38.4985 71.4298C38.3298 71.2627 38.0927 70.9958 37.8148 70.6489C36.5451 69.0638 34.3912 65.7641 33.9582 62.5814C33.6721 60.4771 34.1096 57.6554 34.8737 54.8158C35.1855 53.6577 35.5516 52.496 35.9451 51.378C36.7484 47.3895 37.9368 44.0788 38.5571 42.3506C38.8097 41.6469 38.9629 41.2201 38.9567 41.1923C38.9402 41.1175 38.1262 41.1691 35.2446 41.3522C34.3411 41.4095 33.2431 41.4795 31.8973 41.5577C28.8174 41.7369 25.0946 41.8894 21.7529 41.9637C18.8145 42.029 16.1761 42.0339 14.5362 41.9433C12.7656 41.8456 11.1443 41.6495 9.66658 41.0594C8.17768 40.4649 6.84439 39.4762 5.66803 37.798C4.30329 35.851 2.78215 32.8771 2.82584 29.8621C2.85702 27.711 3.68007 25.545 5.90969 23.7212C11.1773 19.4144 18.5819 16.0136 18.6032 16.0036ZM35.4069 54.6697L35.4282 54.5033C35.3888 54.6442 35.3499 54.7849 35.312 54.9258C34.5606 57.7177 34.129 60.4823 34.4069 62.5256C34.8271 65.6132 36.932 68.8334 38.1731 70.3831L38.2424 70.469C37.6013 68.9542 36.4982 65.9855 35.83 62.5619C35.3392 60.0493 35.081 57.2885 35.4069 54.6697ZM45.5009 31.1264C45.3368 31.6669 45.1623 32.1608 45.0003 32.5925C45.5798 31.3869 46.1945 30.049 46.7551 28.7441C47.8126 26.2835 48.6703 23.9552 48.7185 22.8907C48.7609 21.955 48.6807 21.3827 48.5429 21.1307C48.5179 21.0847 48.5046 21.0623 48.5032 21.062C48.5016 21.0618 48.4833 21.0808 48.4502 21.1173C48.2677 21.3184 48.0775 21.8059 47.9432 22.5513C47.7052 23.8729 46.4367 28.0473 45.5009 31.1264Z" fill="#333333"/>
<path d="M42.2177 39.3443C42.2395 39.226 42.357 39.1471 42.4796 39.1684C42.6022 39.1898 42.684 39.3029 42.6618 39.4212C42.66 39.4317 42.0077 43.07 39.8538 48.6769C38.7715 51.4947 38.0334 54.3606 37.7174 56.9005C37.4118 59.3581 37.5008 61.503 38.055 62.9915C38.5367 64.2851 39.5729 65.3715 40.6899 66.5421C42.1902 68.115 43.8334 69.8372 44.5557 72.4588C45.0218 74.1502 44.5843 74.9686 43.5518 75.2337C42.0106 75.6292 39.0883 74.6202 35.9602 73.54C35.3679 73.3356 34.7692 73.1286 34.2707 72.9612C31.4842 72.0251 28.991 71.2689 26.6735 70.8886C24.3719 70.5111 22.2422 70.5044 20.1669 71.0614C18.0502 71.6293 16.39 72.8378 15.2717 73.8848C17.5024 72.4897 21.6033 70.8726 27.6239 72.157C32.6291 73.2245 37.9378 75.7302 42.0746 79.0109C45.8496 82.0046 48.6553 85.6488 49.3792 89.4452C50.1362 93.4144 49.9337 96.801 48.6388 100.202C47.4272 103.384 45.26 106.572 42.028 110.259C43.3874 109.734 45.9335 108.853 48.1581 108.24C50.0238 107.726 51.6877 107.393 52.3029 107.598C52.7234 107.737 53.0346 108.009 53.1971 108.35C53.3248 108.617 53.3597 108.924 53.2832 109.24C53.2094 109.545 53.0314 109.859 52.7316 110.15C52.1247 110.741 50.9997 111.253 49.2028 111.42C45.2482 111.789 41.9619 111.211 41.2907 111.081C40.6648 111.761 36.6148 116.542 33.1457 122.792C31.2468 126.213 29.5258 130.072 28.6449 133.93C28.618 134.048 28.497 134.123 28.375 134.097C28.2527 134.071 28.1754 133.954 28.2023 133.836C29.092 129.938 30.8298 126.042 32.7474 122.588C36.4017 116.004 40.7229 111.014 41.0485 110.693C44.5989 106.739 46.9444 103.386 48.2135 100.052C49.4791 96.7283 49.6763 93.4132 48.9345 89.5244C48.2314 85.8367 45.4856 82.2807 41.7874 79.3482C37.7036 76.1097 32.4647 73.6365 27.5258 72.583C18.1664 70.5864 13.6205 75.7526 13.6072 75.7672C13.5345 75.8487 13.4082 75.867 13.3123 75.8063C13.2081 75.7402 13.1793 75.6053 13.2478 75.5047C13.255 75.4942 15.7422 71.7965 20.0459 70.6415C22.1918 70.0655 24.3839 70.0709 26.7473 70.4587C29.0947 70.8438 31.6102 71.6065 34.4188 72.5501C35.0513 72.7627 35.5853 72.9471 36.1118 73.1289C39.1719 74.1857 42.0309 75.1728 43.4359 74.8123C44.1944 74.6176 44.5003 73.9594 44.1177 72.5707C43.4242 70.0542 41.8207 68.3734 40.3563 66.8383C39.2079 65.6347 38.1427 64.5181 37.6292 63.1391C37.05 61.5835 36.9535 59.3699 37.2668 56.8498C37.5868 54.2771 38.3334 51.3764 39.428 48.5272C41.5718 42.9487 42.2158 39.3546 42.2177 39.3443ZM41.9286 110.749C43.1516 110.946 45.9282 111.288 49.1613 110.986C50.8385 110.83 51.87 110.371 52.4119 109.843C52.6483 109.613 52.7873 109.372 52.843 109.141C52.8958 108.922 52.8729 108.713 52.7871 108.532C52.6757 108.299 52.4561 108.11 52.1567 108.011C51.6416 107.84 50.0714 108.167 48.2828 108.66C45.8683 109.326 43.0991 110.285 41.9286 110.749Z" fill="#333333"/>
<path d="M10.0407 40.9936C10.0695 40.8766 10.1912 40.8044 10.3125 40.8321C10.4337 40.8599 10.5086 40.9774 10.4798 41.0944C10.4753 41.1127 8.8806 47.4382 9.87525 55.5011C10.4007 59.7598 11.3849 62.1953 12.2029 64.2184C12.9431 66.0496 13.5493 67.5491 13.5733 69.7473C13.6092 73.0549 12.8477 76.495 11.9157 80.7059C11.5472 82.3706 11.1521 84.156 10.7721 86.0842C10.0833 89.5796 10.1683 91.6713 10.2451 93.5616C10.3189 95.3772 10.3852 97.0102 9.7716 99.4971C9.43987 100.842 8.75271 102.734 7.88862 105.113C5.49833 111.695 1.74597 122.027 0.450778 134.803C0.439054 134.922 0.329013 135.01 0.204582 134.999C0.0804186 134.988 -0.0107081 134.881 0.00101557 134.761C1.30181 121.932 5.06482 111.571 7.46204 104.969C8.31973 102.608 9.0021 100.729 9.3309 99.396C9.9312 96.9626 9.86618 95.3602 9.79398 93.5784C9.71618 91.6641 9.63011 89.5456 10.3282 86.0037C10.713 84.0509 11.1065 82.2731 11.4734 80.6154C12.4004 76.4274 13.1576 73.0066 13.1222 69.7506C13.0992 67.6358 12.5061 66.1686 11.7819 64.3773C10.9544 62.3295 9.95784 59.8647 9.42602 55.5522C8.42205 47.4161 10.0362 41.0121 10.0407 40.9936Z" fill="#333333"/>
<path d="M43.4178 71.0185C43.3011 70.9761 43.242 70.8501 43.2859 70.7374C43.3299 70.6248 43.4604 70.5678 43.5771 70.6102C43.5841 70.6128 46.0125 71.47 46.8163 73.8893C47.2648 74.2683 50.667 77.2669 51.4269 81.6683C52.2398 86.3758 49.6684 90.4833 49.6612 90.4954C49.5972 90.5988 49.4584 90.6322 49.3516 90.5705C49.2444 90.5088 49.2098 90.3748 49.2738 90.2714C49.281 90.2599 51.7666 86.2891 50.9811 81.7401C50.3888 78.3105 48.1344 75.7606 47.0564 74.71C47.3013 75.6627 47.3924 76.4885 47.3053 77.1314C47.2019 77.8948 46.8512 78.4113 46.2166 78.5988C46.2 78.6037 46.1841 78.608 46.1683 78.6121L46.1673 78.6124C45.4159 78.8088 44.843 78.7716 44.5145 78.6507C44.4149 78.6139 44.3322 78.5684 44.2691 78.5173C44.1889 78.4522 44.1359 78.3756 44.1124 78.2933C44.0917 78.2193 44.0948 78.1439 44.1239 78.0709C44.166 77.9645 44.268 77.8886 44.4202 77.7755C44.8934 77.424 46.0053 76.5981 46.39 74.032C45.6581 71.8097 43.4242 71.0208 43.4178 71.0185ZM46.8574 77.0748C46.9317 76.5266 46.8598 75.8172 46.661 74.9911C46.1497 77.0414 45.1521 77.7824 44.6965 78.1205C44.648 78.1565 44.6096 78.1822 44.5838 78.1995C44.6075 78.2141 44.6381 78.2285 44.6754 78.2424C44.932 78.3368 45.402 78.3604 46.0506 78.191L46.0855 78.182C46.5291 78.0508 46.778 77.6605 46.8574 77.0748Z" fill="#333333"/>
<path d="M47.2311 74.8807C47.1304 74.8094 47.1086 74.6729 47.1824 74.5757C47.2562 74.4785 47.3976 74.4574 47.4984 74.5287C47.5258 74.5482 57.1024 81.2396 59.4184 92.1224C61.1071 100.059 58.789 105.247 56.6676 109.993C55.8848 111.745 55.1291 113.436 54.6186 115.173C52.7298 121.601 53.3261 134.735 53.3277 134.773C53.3325 134.893 53.2355 134.995 53.1108 134.999C52.9861 135.004 52.8811 134.91 52.8763 134.79C52.8747 134.752 52.2752 121.548 54.1832 115.055C54.7031 113.286 55.4638 111.583 56.2517 109.821C58.3465 105.133 60.6358 100.01 58.9758 92.2093C56.6955 81.4939 47.2583 74.8997 47.2311 74.8807Z" fill="#333333"/>
</svg>
