<svg width="119" height="121" viewBox="0 0 119 121" fill="none" xmlns="http://www.w3.org/2000/svg">
<path d="M28.7428 120C29.3614 116.606 29.9079 113.162 29.7137 109.714C29.5195 106.267 28.5254 102.775 26.3672 100.134C23.1989 96.2558 17.8249 94.7396 12.9751 95.5837C11.0803 95.9133 9.24856 96.5622 7.35499 96.8981C5.94382 97.1485 4.4539 97.2116 3.07971 96.8507C2.79308 96.7755 2.63079 97.1738 2.88363 97.3323C4.42106 98.2947 6.44949 98.4541 8.27802 98.1773C10.6196 97.8223 12.8597 96.8905 15.2146 96.6394C19.0843 96.2276 23.1058 97.8033 25.7337 100.76C26.6774 101.823 27.4713 103.122 27.5523 104.56C27.6075 105.54 27.3247 106.516 26.8869 107.388C25.1776 110.792 20.8803 112.539 17.3779 111.252C15.1362 110.429 13.3973 108.61 11.7422 106.848L1.02322 95.4361C0.958497 95.3671 1.04139 95.2629 1.1211 95.3125C1.77759 95.7217 2.50198 95.9617 3.26974 95.9534C4.32668 95.9423 5.35429 95.587 6.31558 95.1334C8.93004 93.9018 11.1644 91.9468 13.7244 90.5978C16.2837 89.2493 19.4682 88.5666 21.9819 90.0042C23.8095 91.0488 24.9509 93.0258 25.7266 95.0262C26.5021 97.0263 27.0042 99.1476 27.9961 101.043C28.68 102.352 29.6062 103.508 30.7002 104.474C34.1592 107.53 39.0097 108.252 43.283 106.625C44.8281 106.036 46.3997 105.532 48.0261 105.285C50.498 104.91 53.1466 105.177 55.2633 106.545C56.8932 107.6 58.1277 109.393 58.4192 111.322C58.5129 111.941 59.3103 112.115 59.6151 111.573C60.4785 110.041 60.7154 108.11 60.3376 106.359C59.822 103.966 58.3031 101.902 56.4663 100.346C54.6291 98.79 52.4783 97.6863 50.3303 96.6364C47.2124 95.1113 43.9842 93.6484 40.5481 93.3167C37.1117 92.9851 33.3841 93.9603 31.1143 96.6401C30.1349 97.7964 29.4497 99.3224 29.6515 100.843C29.8664 102.466 31.0538 103.804 32.4264 104.629C35.095 106.233 38.4619 106.2 41.4041 105.231C44.1143 104.34 46.6595 102.698 49.5023 102.594C52.0195 102.502 54.5144 103.702 56.2087 105.623C57.6112 107.214 58.4778 109.262 58.7868 111.392C58.8381 111.744 59.3269 111.758 59.3942 111.41C59.5778 110.462 59.4713 109.444 59.1553 108.526C58.6841 107.16 57.7939 105.988 56.8202 104.942C53.6497 101.533 49.4076 99.191 44.8909 98.4008C40.3743 97.6107 35.6083 98.3824 31.5626 100.598C31.1443 100.827 30.726 101.074 30.263 101.177C29.8001 101.28 29.2734 101.215 28.9281 100.881C28.6979 100.658 28.5898 100.3 28.7008 99.9762C28.9412 99.2735 29.172 98.5648 29.1946 97.82C29.3336 93.2392 27.3935 88.6057 23.996 85.6344C22.0747 83.9541 19.7682 82.8064 17.7765 81.2155C15.7837 79.625 14.0381 77.3739 14.0859 74.6573C13.982 66.5352 13.9125 58.3792 14.9621 50.3291C16.012 42.2789 18.2267 34.283 22.3948 27.3895C25.0781 22.9516 28.5923 18.9038 30.0038 13.8809C30.5812 11.8263 30.9371 9.42327 32.6763 8.25677C34.1111 7.29438 36.0238 7.55404 37.6157 8.20286C39.8227 9.10181 41.7631 10.6848 43.1182 12.6934C43.7833 13.6787 44.2284 15.2127 43.2964 15.9329C42.6722 16.4147 41.7453 16.1889 41.1389 15.6831C40.5328 15.1769 40.1454 14.4528 39.6748 13.8119C38.3465 12.0031 36.2495 10.8175 34.0559 10.6351C36.401 12.5037 38.7741 14.4022 40.5701 16.8331C42.3651 19.2641 43.5448 22.332 43.1459 25.3595C42.4091 23.1554 41.5667 20.9522 40.2104 19.0869C38.8535 17.2216 36.9143 15.708 34.6815 15.3386C33.7801 15.1894 32.8077 15.2426 32.0281 15.7311C31.2486 16.2201 30.7308 17.2243 30.9903 18.1262C31.437 19.6786 33.4552 19.809 35.0022 20.0884C38.1775 20.6626 40.9099 23.2997 41.6742 26.528C36.8878 27.521 31.6411 24.098 30.4636 19.2125C29.5967 21.3788 30.6884 23.9781 32.4879 25.4102C34.2871 26.8426 36.6232 27.3307 38.8857 27.5542C39.846 27.6485 41.011 27.85 41.3455 28.7828C41.6752 29.6998 40.9444 30.6293 40.272 31.3192C37.0237 34.6511 33.7757 37.9823 30.5274 41.3136C29.6343 42.2296 28.7145 43.1871 28.2818 44.4071C27.8495 45.6272 28.0513 47.1898 29.1312 47.9359C29.7858 47.4498 30.0032 46.4351 29.6085 45.7094C30.3019 47.5513 31.4319 49.2168 32.8718 50.5197C33.2285 50.8428 33.6271 51.1547 34.0971 51.227C34.5661 51.2993 35.1138 51.0462 35.2267 50.5706C35.3306 50.1322 35.0472 49.6779 35.1177 49.2326C35.2104 48.6455 35.9055 48.3329 36.4692 48.4601C37.0323 48.5877 37.4783 49.0192 37.8788 49.4472C38.4259 50.0313 38.9517 50.6505 39.3078 51.3736C39.6646 52.0974 39.8406 52.9421 39.656 53.7309C40.7786 53.9535 41.9991 53.5571 42.7959 52.711C43.592 51.865 43.9395 50.5953 43.6899 49.4449C43.6083 49.0685 43.4935 48.6021 43.7811 48.355C43.9654 48.1962 44.2526 48.2192 44.4551 48.3533C44.6575 48.4874 44.7895 48.709 44.8919 48.9335C45.3915 50.0349 45.2946 51.3779 44.7293 52.4451C44.1649 53.513 43.1667 54.3048 42.052 54.7012C41.1892 55.0079 40.2244 55.0851 39.3693 54.7568C38.5145 54.4284 37.7971 53.6501 37.5376 52.8116C36.2661 52.5132 34.8562 52.95 33.9545 53.9212C33.5247 54.3834 33.205 54.9556 32.7206 55.3563C32.2504 55.7454 31.6216 55.9486 31.0295 55.8312C30.4375 55.7145 29.905 55.2508 29.759 54.648C29.6149 54.0547 29.8489 53.4184 30.2302 52.9503C30.6119 52.4826 31.1255 52.1533 31.6334 51.838C30.9106 51.8403 30.1652 51.933 29.5387 52.3028C28.9115 52.6732 28.4269 53.372 28.4702 54.1158C28.5174 54.9316 29.171 55.591 29.8935 55.9275C30.6154 56.2644 31.4182 56.3575 32.186 56.5603C32.954 56.7634 33.7387 57.117 34.2035 57.7116C36.2655 61.6841 38.4495 65.8029 42.0173 68.4051C42.2417 68.5687 42.478 68.7331 42.6221 68.975C42.7659 69.2166 42.7888 69.561 42.5956 69.7632C42.4726 69.8924 42.2915 69.9377 42.1202 69.9772C39.3308 70.6207 36.5103 71.1893 33.6539 71.3146C30.7977 71.4405 27.889 71.1105 25.2366 70.0097C23.5566 69.3119 21.9673 68.2838 20.8481 66.8159C19.729 65.3476 19.1261 63.4018 19.4921 61.573C19.6315 60.8756 19.9184 60.1909 20.4139 59.6943C21.2234 58.8824 22.4873 58.6967 23.5818 58.9833C24.6764 59.2703 25.6278 59.9654 26.4788 60.7309C27.3294 61.4961 28.1112 62.3471 29.0218 63.0357C30.6527 64.2696 32.6323 64.9351 34.2817 66.1427C35.3424 66.9197 36.2463 67.9068 37.3112 68.6769C38.3765 69.4476 39.6888 70.0025 40.9648 69.7389C39.2223 69.4049 37.6913 68.3377 36.3723 67.1166C35.0532 65.8959 33.8917 64.5009 32.5418 63.317C30.3705 61.4123 27.7739 60.1045 25.1684 58.912C24.6439 58.6727 24.0933 58.416 23.755 57.9384C23.4164 57.4609 23.396 56.6894 23.8669 56.3515C24.3158 56.0301 24.9283 56.2454 25.426 56.4787C29.2358 58.2681 32.7723 60.6501 35.9903 63.411C35.4457 62.191 34.8961 60.9627 34.1372 59.8714C33.3778 58.7805 32.3868 57.8224 31.1752 57.3294C30.4582 57.0372 29.6745 56.911 29.0075 56.5123C28.1957 56.0271 27.6444 55.1936 26.9287 54.5678C26.0248 53.7779 24.8444 53.3319 23.66 53.3329C23.1485 53.3332 22.6244 53.4193 22.1844 53.6872C21.7441 53.9551 21.401 54.4291 21.3774 54.955C21.3235 56.1589 22.8335 57.0017 22.7315 58.202C22.6674 58.9534 21.995 59.4734 21.642 60.1334C21.2352 60.8946 21.2719 61.8439 21.563 62.6593C21.8537 63.4745 22.3738 64.1792 22.9129 64.847C24.9375 67.3516 27.5408 69.6117 30.6686 70.0915C31.2109 70.1744 31.7788 70.2 32.2944 70.0074C32.8099 69.8151 33.2639 69.3651 33.3363 68.8044C33.4393 68.008 32.794 67.3368 32.1914 66.8261C30.1977 65.134 27.9693 63.5895 25.4282 63.1142C22.8874 62.6386 19.9755 63.463 18.4629 65.7496C16.4125 68.4392 16.2779 72.3174 17.4898 75.5014C18.7017 78.6863 21.0764 81.2619 23.6759 83.3878C31.5588 89.8356 42.0727 92.7448 52.1894 91.035C58.9057 90.9745 65.5926 88.8861 71.2121 85.0947C73.6978 83.4174 75.9663 81.4249 78.2278 79.4383C82.1281 76.0115 86.0285 72.5849 89.9607 69.2041C93.0422 65.867 96.1451 62.5104 99.7531 59.7922C101.486 58.4867 103.449 57.2965 105.595 57.2788C107.032 57.2663 108.503 57.8359 109.439 58.9597C110.234 59.9135 110.595 61.1934 110.634 62.4503C110.739 65.8768 108.654 68.949 106.405 71.4743C102.977 75.3219 98.7628 78.6794 93.8179 79.8206C92.1093 80.214 90.3525 80.3347 88.6024 80.3764C87.3079 80.407 85.8738 80.3403 84.9403 79.4157C83.831 78.3165 83.9343 76.3237 84.8845 75.0764C85.8352 73.8293 87.41 73.24 88.9423 73.1013C90.4753 72.9626 92.0124 73.2117 93.5466 73.3324C95.0805 73.4527 96.6763 73.4323 98.0849 72.7937C99.7569 72.0351 101.023 70.3906 101.36 68.5392C101.552 67.4838 101.331 66.1789 100.388 65.7223C99.4256 65.2563 98.2756 65.9643 97.6908 66.8793C97.1064 67.794 96.8628 68.9007 96.3119 69.8371C95.9156 70.5106 95.0617 71.1266 94.4422 70.6648C93.8259 70.2046 94.1106 69.2047 94.5034 68.5329C95.9965 65.9794 98.2447 63.9024 100.87 62.6508C101.922 62.1492 103.215 61.7955 104.195 62.4348C105.121 63.0386 105.402 64.3238 105.279 65.4462C104.965 68.3071 102.689 70.504 100.344 72.0689C99.8344 72.4094 99.2398 72.8952 99.3593 73.5099C99.4476 73.9638 99.9294 74.2451 100.378 74.2405C100.828 74.2363 101.245 74.0134 101.631 73.7774C104.308 72.1396 106.426 69.5219 107.414 66.479C107.871 65.0709 108.064 63.436 107.316 62.1673C106.486 60.7608 104.683 60.2185 103.108 60.4884C101.533 60.7585 100.142 61.6871 98.8651 62.6754C97.5879 63.6638 96.3514 64.7461 94.8889 65.4078C93.4267 66.0691 91.655 66.2515 90.313 65.4568C88.8862 64.7958 88.1079 63.152 87.8873 61.5556C87.6663 59.9592 87.8847 58.3355 87.8512 56.7229C87.791 53.8351 86.8992 50.9713 85.3171 48.5877C84.5605 47.4475 83.6145 46.3891 82.3934 45.8205C81.1719 45.2519 79.6364 45.2588 78.5788 46.1074C77.8994 46.653 77.4792 47.4856 77.2687 48.3471C77.0593 49.2082 77.0411 50.1055 76.9726 51.1241C77.7642 55.5118 78.5578 59.926 78.6059 64.3879C78.6439 68.0228 78.1114 71.8507 75.9708 74.7398C77.0918 71.6262 78.0075 68.3663 77.9287 65.0462C77.8599 62.1377 77.0328 59.3146 76.4082 56.4771C75.7836 53.6396 75.3611 50.6518 76.0964 47.8429C76.3438 46.8953 76.7545 45.9391 77.521 45.357C78.421 44.6737 79.6683 44.6389 80.73 44.9991C82.5002 45.5996 83.8432 47.1796 84.5605 48.9525C85.2782 50.7254 85.4402 52.6844 85.4434 54.6056C85.4501 58.7335 84.7442 62.8989 83.0461 66.6374C81.3486 70.3755 78.6219 73.6686 75.1223 75.6743C76.5692 73.7712 76.7325 71.1131 76.2482 68.7462C75.7638 66.3804 74.7139 64.1841 73.9283 61.9053C73.0352 59.315 72.4786 56.5642 72.652 53.8207C72.8258 51.0771 73.773 48.3346 75.5776 46.259C75.9287 46.0226 76.2835 45.7833 76.5766 45.4734C76.8689 45.1631 77.0978 44.7713 77.1434 44.3414C77.1881 43.9112 77.0213 43.4441 76.6681 43.2101C76.2947 42.9626 75.8123 43.0135 75.364 42.9675C70.3149 42.4186 65.1007 44.6852 60.2209 43.2397C57.9313 42.5612 55.938 41.1173 53.7775 40.0823C51.6174 39.0466 49.039 38.4366 46.8872 39.4907C48.6086 39.3812 50.3038 40.0347 51.7829 40.9497C53.262 41.8648 54.5708 43.0392 55.9514 44.1051C58.9098 46.3884 62.2866 48.2074 65.9367 48.8053C69.5861 49.4028 73.5317 48.6748 76.4401 46.324C77.1208 45.7741 77.7818 45.0517 77.8238 44.161C77.8777 43.0326 76.9298 42.1303 75.9806 41.5666C75.0308 41.0026 73.9452 40.5507 73.1692 39.9173C67.7544 35.5744 62.3396 31.2308 56.9248 26.8879C56.6359 26.6562 56.3381 26.4136 56.1698 26.079C56.0011 25.7438 55.9995 25.2879 56.2657 25.0289C56.532 24.7705 56.9751 24.7991 57.2844 25.0013C57.5934 25.2024 57.7955 25.5364 57.9686 25.8683C55.7103 25.9176 53.5263 24.9099 51.7322 23.4949C49.9384 22.0799 48.4785 20.2725 47.0354 18.4812C46.9044 18.3181 46.7689 18.1479 46.7156 17.9428C46.606 17.5175 46.9009 17.0649 47.2892 16.8821C47.6776 16.6994 48.1278 16.7293 48.547 16.8128C50.2085 17.1431 51.6981 18.2912 52.4754 19.8399C51.5183 20.5542 49.999 19.7226 49.7969 18.5229C49.5947 17.3232 50.4585 16.1251 51.5572 15.6781C52.6559 15.2305 53.9079 15.3997 55.0245 15.7968C56.8661 16.4512 58.5292 17.7548 59.426 19.5379C59.6352 19.9537 59.7471 20.5752 59.3476 20.7994C59.0304 20.9772 58.6497 20.7405 58.372 20.5029C56.8282 19.1829 55.5885 17.4875 54.7825 15.5943C54.2899 14.4374 54.0454 12.88 54.9971 12.084C57.3683 14.041 59.7398 15.9979 62.1113 17.9549C64.0916 19.5885 66.1388 21.3095 67.2037 23.6826C68.3538 26.2457 68.2144 29.2738 69.3897 31.8248C70.9615 35.2372 74.6441 37.2931 75.9813 40.8097C72.8538 39.6478 70.3063 36.9378 69.2765 33.6789C68.1857 30.2237 68.7357 26.3292 67.2987 23.0111C66.377 20.8852 64.7276 19.2069 63.2699 17.4284C62.8475 16.9127 62.4126 16.2734 62.5774 15.62C62.7454 14.9537 63.5384 14.5964 64.1821 14.7792C64.8262 14.9619 65.2984 15.5601 65.5174 16.2106C65.7368 16.8607 65.7428 17.5648 65.7333 18.2534C64.5698 15.5536 63.0369 13.024 61.1927 10.7633C60.7521 10.2226 60.2617 9.55474 60.4702 8.88225C60.6312 8.36457 61.1835 8.05923 61.7102 8.04608C62.2369 8.03293 62.7419 8.25447 63.2103 8.50295C67.6351 10.8504 70.342 16.2349 69.6518 21.3154C69.559 21.9974 69.1509 22.8596 68.4995 22.7044C68.1191 22.6137 67.9049 22.194 67.8159 21.8025C67.528 20.5295 68.0282 19.2299 68.2871 17.9507C68.9838 14.5064 67.7904 10.7226 65.3236 8.31527C64.5858 7.94386 64.0058 7.25362 63.7546 6.44834C63.503 5.64241 63.5843 4.73261 63.9736 3.98814C64.4324 3.10989 65.2617 2.5107 66.0865 1.99006C66.9002 1.47666 67.7869 0.993493 68.7408 1.00007C69.7653 1.00697 70.7042 1.57888 71.5131 2.22606C72.7001 3.17563 73.7408 4.33852 74.4576 5.69927C75.1737 7.06003 75.5556 8.62555 75.4278 10.1687C75.4096 10.387 75.3787 10.6128 75.2645 10.7978C75.1504 10.9829 74.9307 11.1153 74.7251 11.0608C74.4888 10.9973 74.3683 10.7334 74.2867 10.4968C73.8406 9.21061 73.6104 7.84525 73.6098 6.47924C73.6095 5.30288 73.7957 4.07984 74.4455 3.11252C75.0952 2.14553 76.2973 1.50493 77.3988 1.81192C78.2903 2.06073 78.9439 2.85352 79.3782 3.69397C80.092 5.07411 80.3321 6.85591 79.4923 8.15915C79.3463 8.38594 79.1276 8.61207 78.8648 8.5894C78.6477 8.57066 78.473 8.37509 78.4182 8.15849C78.3633 7.94123 78.408 7.70983 78.4842 7.4998C78.8853 6.39148 80.1176 5.77914 81.2644 5.8199C82.4113 5.86131 83.4781 6.42895 84.5306 7.22766C85.4663 8.08289 86.2692 9.14356 86.6094 10.384C86.9499 11.6245 86.7678 13.0608 85.9411 14.0281C85.0005 15.1289 83.4832 15.4234 82.1878 16.0298C80.4849 16.8272 79.0938 18.231 78.069 19.8442C77.0446 21.4574 76.3645 23.2777 75.8263 25.1245C74.7544 28.8038 74.2248 32.7687 75.1769 36.4826C76.1295 40.1967 78.7874 43.6022 82.3902 44.5846C85.2441 45.363 88.4679 44.4837 90.5094 42.3703C91.5676 40.7278 93.2131 39.6103 94.7088 38.381C96.2041 37.1524 97.6561 35.6477 98.0381 33.716C97.2266 33.9024 96.3565 34.1236 95.8132 34.7721C95.2696 35.4212 95.3181 36.6397 96.0941 36.946C96.4601 37.0906 96.8689 36.9976 97.248 36.8957C99.7617 36.2226 102.231 35.2158 104.286 33.578C106.34 31.9398 107.957 29.6186 108.429 26.9855C108.534 26.3949 108.58 25.7727 108.393 25.2044C108.205 24.6358 107.739 24.1326 107.16 24.0652C106.281 23.9626 105.604 24.8143 105.112 25.5715C106.257 25.7385 107.401 24.8747 107.781 23.7487C108.162 22.6226 107.867 21.3335 107.207 20.354C106.548 19.3745 105.564 18.6711 104.525 18.1456C103.782 17.7692 102.983 17.4688 102.155 17.4491C101.327 17.429 100.463 17.7232 99.9246 18.3714C99.6743 18.6725 99.5187 19.1678 99.8012 19.4373C100.186 19.8044 100.781 19.2785 100.946 18.7655C101.39 17.385 100.751 15.7225 99.5108 15.029C98.2702 14.3358 96.5705 14.6904 95.6892 15.8267C95.481 16.0956 95.3162 16.4834 95.5011 16.7697C95.6866 17.0563 96.105 17.0471 96.4158 16.9189C97.4049 16.5114 97.8981 15.2357 97.6188 14.1764C97.3392 13.117 96.4206 12.317 95.3997 12.0061C94.3778 11.6951 93.2715 11.8181 92.2521 12.1352C90.7702 12.5967 89.4107 13.4667 88.3528 14.6313C88.1015 14.9077 87.8516 15.2558 87.9166 15.6285C87.9995 16.1028 88.6212 16.3293 89.0274 16.0916C89.4346 15.854 89.5921 15.2962 89.4779 14.8288C89.3638 14.3614 89.0297 13.9808 88.6515 13.6975C87.3599 12.7295 85.5394 12.7696 84.0899 13.4592C82.6402 14.1494 81.5086 15.3948 80.5607 16.7191C77.4176 21.1093 75.9306 26.7269 76.4764 32.1544C76.8374 35.7456 78.268 39.4999 81.6043 41.5193C86.8823 43.568 92.5231 45.6496 98.0384 44.4347C99.0838 44.2047 100.243 43.7238 100.577 42.6769C100.845 41.8345 100.311 40.766 99.4578 40.6539C98.6046 40.5421 97.8146 41.6547 98.2848 42.3966C98.7315 43.1016 99.733 43.0083 100.547 42.9491C102.045 42.8406 103.568 43.1401 104.922 43.8089C106.605 44.6405 108.119 46.0565 109.984 46.139C111.191 46.1926 112.425 45.6055 113.106 44.5771C113.786 43.5483 113.851 42.1011 113.201 41.0513C112.551 40.0021 111.194 39.4548 110.046 39.842C109.581 39.9988 109.108 40.408 109.18 40.9067C109.246 41.3616 109.719 41.616 110.145 41.753C111.588 42.2165 113.219 42.1511 114.546 41.404C115.872 40.6572 116.836 39.1876 116.845 37.6297C116.854 36.0714 115.812 34.5213 114.347 34.1367C113.949 34.0325 113.505 34.0161 113.146 34.2245C112.788 34.4319 112.562 34.916 112.735 35.3003C112.961 35.8041 113.633 35.837 114.169 35.7834C115.556 35.6434 117.146 35.2815 117.771 33.9977C118.494 32.5147 117.397 30.6737 115.959 29.926C114.427 29.1289 112.579 29.1657 110.941 29.6949C109.303 30.2244 107.84 31.2068 106.458 32.2563C105.846 32.7211 105.172 33.4416 105.45 34.1709C105.653 34.7008 106.31 34.9193 106.847 34.7829C107.383 34.6465 107.815 34.2445 108.192 33.8291C110.448 31.3442 111.575 27.8109 111.188 24.4307C110.802 21.0502 108.91 17.8839 106.155 16.0075C105.876 15.8175 105.547 15.6328 105.223 15.7179C104.771 15.8369 104.591 16.4788 104.823 16.8982C105.054 17.317 105.561 17.506 106.028 17.482C106.495 17.4576 106.935 17.2591 107.363 16.9932C108.287 16.5186 109.23 16.0305 109.949 15.267C110.669 14.5034 111.134 13.4 110.887 12.367C110.629 11.2928 109.681 10.5428 108.711 10.0678C105.634 8.55981 101.99 8.99894 98.7178 9.9771C98.3977 10.0727 98.068 10.1796 97.8209 10.4093C97.5735 10.6391 97.4323 11.0276 97.5796 11.3356C97.7313 11.6544 98.1394 11.7711 98.4739 11.6843C98.808 11.5965 99.0819 11.3543 99.3287 11.1055C100.387 10.0373 101.229 8.49177 100.814 7.02584C100.593 6.24456 100.045 5.60691 99.4534 5.06984C98.1404 3.87869 96.5045 3.03956 94.7694 2.81441C93.0342 2.58893 91.2051 3.00373 89.7942 4.06932C89.4668 4.3165 89.1502 4.61494 89.0191 5.01133C88.8884 5.4074 89.0051 5.9162 89.3689 6.10224C89.9275 6.38787 90.5553 5.72294 90.6085 5.08233C90.6774 4.25339 89.9766 3.37744 89.3259 3.03462C88.7051 2.71317 87.9727 2.77694 87.2977 2.94752C86.6234 3.11844 86.0122 3.54376 85.6063 4.1252" stroke="#13263D" stroke-width="0.5" stroke-miterlimit="10" stroke-linecap="round" stroke-linejoin="round"/>
</svg>
