<svg width="52" height="53" viewBox="0 0 52 53" fill="none" xmlns="http://www.w3.org/2000/svg">
<rect y="0.584473" width="52" height="52" rx="26" fill="#2190AC"/>
<g clip-path="url(#clip0_1_915)">
<path d="M22.0518 23.9178H20.2051C20.0158 23.9178 19.8576 23.8538 19.7305 23.7258C19.6034 23.5978 19.5394 23.4391 19.5385 23.2498C19.5376 23.0605 19.6016 22.9022 19.7305 22.7751C19.8594 22.648 20.0176 22.5845 20.2051 22.5845H22.0518V20.7391C22.0518 20.5498 22.1158 20.3911 22.2438 20.2631C22.3709 20.1351 22.5291 20.0711 22.7185 20.0711C22.9078 20.0711 23.066 20.1351 23.1931 20.2631C23.3203 20.3911 23.3843 20.5494 23.3851 20.7378V22.5845H25.2305C25.4198 22.5845 25.578 22.6485 25.7051 22.7765C25.8323 22.9045 25.8963 23.0631 25.8971 23.2525C25.898 23.4418 25.834 23.6 25.7051 23.7271C25.5763 23.8542 25.418 23.9178 25.2305 23.9178H23.3851V25.7645C23.3851 25.9529 23.3211 26.1111 23.1931 26.2391C23.0651 26.3671 22.9065 26.4307 22.7171 26.4298C22.5278 26.4289 22.3696 26.3654 22.2425 26.2391C22.1154 26.1129 22.0518 25.9542 22.0518 25.7631V23.9178ZM22.7185 30.8911C20.5825 30.8911 18.7749 30.1525 17.2958 28.6751C15.8167 27.196 15.0771 25.3894 15.0771 23.2551C15.0771 21.1209 15.8158 19.3134 17.2931 17.8325C18.7705 16.3516 20.5767 15.6107 22.7118 15.6098C24.8469 15.6098 26.6549 16.3494 28.1358 17.8285C29.6167 19.3085 30.3571 21.116 30.3571 23.2511C30.3571 24.1774 30.1931 25.0738 29.8651 25.9405C29.5371 26.8071 29.106 27.5485 28.5718 28.1645L36.4505 36.0405C36.5749 36.1649 36.6416 36.3182 36.6505 36.5005C36.6585 36.6809 36.5918 36.8422 36.4505 36.9845C36.3083 37.1267 36.1509 37.1978 35.9785 37.1978C35.806 37.1978 35.6487 37.1267 35.5065 36.9845L27.6291 29.1071C26.9625 29.6751 26.1958 30.1147 25.3291 30.4258C24.4625 30.7369 23.5914 30.8925 22.7158 30.8925M22.7158 29.5591C24.4847 29.5591 25.9785 28.9502 27.1971 27.7325C28.4149 26.5147 29.0238 25.0209 29.0238 23.2511C29.0238 21.4814 28.4158 19.988 27.1998 18.7711C25.9838 17.5542 24.4905 16.9454 22.7198 16.9445C20.95 16.9445 19.4563 17.5534 18.2385 18.7711C17.0207 19.9889 16.4114 21.4822 16.4105 23.2511C16.4096 25.02 17.0185 26.5134 18.2371 27.7311C19.4558 28.9489 20.9491 29.5578 22.7171 29.5578" fill="white"/>
</g>
<defs>
<clipPath id="clip0_1_915">
<rect width="32" height="32" fill="white" transform="translate(10 10.5845)"/>
</clipPath>
</defs>
</svg>
