<svg width="52" height="52" viewBox="0 0 52 52" fill="none" xmlns="http://www.w3.org/2000/svg">
<rect width="52" height="52" rx="26" fill="#79ADD5"/>
<g clip-path="url(#clip0_74_6997)">
<path d="M22.0521 23.3334H20.2054C20.0161 23.3334 19.8578 23.2694 19.7307 23.1414C19.6036 23.0134 19.5396 22.8547 19.5387 22.6654C19.5378 22.4761 19.6018 22.3178 19.7307 22.1907C19.8596 22.0636 20.0178 22.0001 20.2054 22.0001H22.0521V20.1547C22.0521 19.9654 22.1161 19.8067 22.2441 19.6787C22.3712 19.5507 22.5294 19.4867 22.7187 19.4867C22.9081 19.4867 23.0663 19.5507 23.1934 19.6787C23.3205 19.8067 23.3845 19.9649 23.3854 20.1534V22.0001H25.2307C25.4201 22.0001 25.5783 22.0641 25.7054 22.1921C25.8325 22.3201 25.8965 22.4787 25.8974 22.6681C25.8983 22.8574 25.8343 23.0156 25.7054 23.1427C25.5765 23.2698 25.4183 23.3334 25.2307 23.3334H23.3854V25.1801C23.3854 25.3685 23.3214 25.5267 23.1934 25.6547C23.0654 25.7827 22.9067 25.8463 22.7174 25.8454C22.5281 25.8445 22.3698 25.7809 22.2427 25.6547C22.1156 25.5285 22.0521 25.3698 22.0521 25.1787V23.3334ZM22.7187 30.3067C20.5827 30.3067 18.7752 29.5681 17.2961 28.0907C15.8169 26.6116 15.0774 24.8049 15.0774 22.6707C15.0774 20.5365 15.8161 18.7289 17.2934 17.2481C18.7707 15.7672 20.5769 15.0263 22.7121 15.0254C24.8472 15.0254 26.6552 15.7649 28.1361 17.2441C29.6169 18.7241 30.3574 20.5316 30.3574 22.6667C30.3574 23.5929 30.1934 24.4894 29.8654 25.3561C29.5374 26.2227 29.1063 26.9641 28.5721 27.5801L36.4507 35.4561C36.5752 35.5805 36.6418 35.7338 36.6507 35.9161C36.6587 36.0965 36.5921 36.2578 36.4507 36.4001C36.3085 36.5423 36.1512 36.6134 35.9787 36.6134C35.8063 36.6134 35.6489 36.5423 35.5067 36.4001L27.6294 28.5227C26.9627 29.0907 26.1961 29.5303 25.3294 29.8414C24.4627 30.1525 23.5916 30.3081 22.7161 30.3081M22.7161 28.9747C24.4849 28.9747 25.9787 28.3658 27.1974 27.1481C28.4152 25.9303 29.0241 24.4365 29.0241 22.6667C29.0241 20.8969 28.4161 19.4036 27.2001 18.1867C25.9841 16.9698 24.4907 16.3609 22.7201 16.3601C20.9503 16.3601 19.4565 16.9689 18.2387 18.1867C17.0209 19.4045 16.4116 20.8978 16.4107 22.6667C16.4098 24.4356 17.0187 25.9289 18.2374 27.1467C19.4561 28.3645 20.9494 28.9734 22.7174 28.9734" fill="white"/>
</g>
<defs>
<clipPath id="clip0_74_6997">
<rect width="32" height="32" fill="white" transform="translate(10 10)"/>
</clipPath>
</defs>
</svg>
