<svg width="100" height="108" viewBox="0 0 100 108" fill="none" xmlns="http://www.w3.org/2000/svg">
<rect width="100" height="100" rx="50" fill="#79ADD5" fill-opacity="0.2"/>
<path d="M38.148 65C35.5779 65 33.4941 64.1228 31.8964 62.3684C30.2988 60.614 29.5 58.2456 29.5 55.2632C29.5 52.9123 30.0557 50.5614 31.1671 48.2105C32.2785 45.8596 33.9456 43.5614 36.1684 41.3158C38.3911 39.0702 41.1349 36.9649 44.3996 35L48.4632 40.4211C45.8583 41.6491 43.5487 43.1579 41.5343 44.9474C39.5546 46.7368 38.2001 48.4912 37.4708 50.2105C39.0337 50.1053 40.4576 50.3509 41.7427 50.9474C43.0625 51.5088 44.1044 52.3333 44.8685 53.4211C45.6326 54.5088 46.0146 55.807 46.0146 57.3158C46.0146 59.5965 45.2679 61.4561 43.7745 62.8947C42.3158 64.2982 40.4403 65 38.148 65ZM60.1849 65C57.6148 65 55.5309 64.1228 53.9333 62.3684C52.3357 60.614 51.5368 58.2456 51.5368 55.2632C51.5368 52.9123 52.0925 50.5614 53.2039 48.2105C54.3153 45.8596 55.9824 43.5614 58.2052 41.3158C60.428 39.0702 63.1717 36.9649 66.4365 35L70.5 40.4211C67.8952 41.6491 65.5856 43.1579 63.5712 44.9474C61.5915 46.7368 60.237 48.4912 59.5076 50.2105C61.0705 50.1053 62.4945 50.3509 63.7795 50.9474C65.0993 51.5088 66.1413 52.3333 66.9053 53.4211C67.6694 54.5088 68.0515 55.807 68.0515 57.3158C68.0515 59.5965 67.3047 61.4561 65.8113 62.8947C64.3526 64.2982 62.4771 65 60.1849 65Z" fill="#79ADD5"/>
</svg>
