<svg width="65" height="19" viewBox="0 0 65 19" fill="none" xmlns="http://www.w3.org/2000/svg">
<path d="M32.2592 0.0825195H35.4797C35.6508 0.0825195 35.737 0.168728 35.737 0.339996V18.3139C35.737 18.4863 35.6508 18.5714 35.4797 18.5714H32.2592C32.0869 18.5714 32.002 18.4852 32.002 18.3139V0.339996C32.002 0.168728 32.0869 0.0825195 32.2592 0.0825195Z" fill="#FAFAFA"/>
<path d="M46.5087 0.412411C46.5765 0.294018 46.5937 0.208959 46.5592 0.158383C46.5248 0.107807 46.4834 0.0825195 46.4329 0.0825195H42.5761C42.5083 0.0825195 42.4578 0.107807 42.4234 0.158383C42.3889 0.208959 36.8507 7.39645 36.8507 7.39645C36.2385 8.21256 36.0961 8.93096 36.0903 9.32752C36.0972 9.72408 36.2385 10.4425 36.8507 11.2586C36.8507 11.2586 42.3889 18.4449 42.4234 18.4967C42.4567 18.5472 42.5083 18.5725 42.5761 18.5725H46.4329C46.4834 18.5725 46.5259 18.5472 46.5592 18.4967C46.5925 18.4461 46.5765 18.361 46.5087 18.2426C46.5087 18.2426 39.9931 9.6758 39.9333 9.55741C39.8782 9.44821 39.8495 9.42292 39.8449 9.32867C39.8495 9.23441 39.8782 9.20798 39.9322 9.09993C39.9931 8.97924 46.5087 0.412411 46.5087 0.412411Z" fill="#D2D9DB"/>
<path d="M57.9669 10.0758H54.2296C53.9183 10.0758 54.0091 9.77695 54.0091 9.77695L55.895 3.60098C55.895 3.60098 55.9444 3.43661 56.0971 3.43661C56.2499 3.43661 56.2993 3.60098 56.2993 3.60098L58.1863 9.77695C58.2782 10.0758 57.9669 10.0758 57.9669 10.0758ZM64.7169 18.4173L59.5381 1.60324C59.3314 0.93311 58.9489 0.511263 58.3919 0.339996C57.8337 0.168728 57.0653 0.0825195 56.0856 0.0825195C55.1404 0.0825195 54.3938 0.168728 53.8437 0.339996C53.2935 0.512413 52.9157 0.93311 52.7101 1.60324L47.4785 18.4173C47.4785 18.5208 47.5474 18.5725 47.6841 18.5725H51.0344C51.2055 18.5725 51.3181 18.4863 51.3697 18.315L52.7354 13.9058C52.787 13.7173 52.8985 13.6219 53.0707 13.6219H59.1258C59.2969 13.6219 59.4095 13.7081 59.4612 13.8793L60.8268 18.3403C60.8785 18.4955 60.9899 18.5725 61.1622 18.5725H64.5377C64.656 18.5714 64.7169 18.5196 64.7169 18.4173Z" fill="#FAFAFA"/>
<path d="M20.6249 14.9621V11.223C20.6249 11.0517 20.711 10.9655 20.8821 10.9655H28.7921C28.9632 10.9655 29.0494 10.8793 29.0494 10.708V7.74243C29.0494 7.57117 28.9632 7.48496 28.7921 7.48496H20.8821C20.7098 7.48496 20.6249 7.39875 20.6249 7.22748V3.71822C20.6249 3.52971 20.711 3.43431 20.8821 3.43431H29.4111C29.5823 3.43431 29.6684 3.3481 29.6684 3.17683V0.339996C29.6684 0.168728 29.557 0.0825195 29.333 0.0825195H17.1459C16.9737 0.0825195 16.8887 0.168728 16.8887 0.339996V18.3139C16.8887 18.4863 16.9748 18.5714 17.1459 18.5714H29.4111C29.5823 18.5714 29.6684 18.4852 29.6684 18.3139V15.4771C29.6684 15.3058 29.5823 15.2196 29.4111 15.2196H20.8821C20.6191 15.2196 20.6249 15.0472 20.6249 14.9621Z" fill="#D2D9DB"/>
<path d="M10.9122 12.5322C10.9122 14.0161 9.71086 15.2196 8.2281 15.2196H3.95555C3.78327 15.2196 3.69828 15.1334 3.69828 14.9621V3.69293C3.69828 3.52166 3.78442 3.43546 3.95555 3.43546H8.06042C9.63506 3.43546 10.9111 4.71249 10.9111 6.28838V12.5322H10.9122ZM14.6863 13.0989V6.13551C14.6863 2.79291 11.9781 0.0825195 8.63813 0.0825195C8.63698 0.0825195 8.63583 0.0825195 8.63583 0.0825195H0.257272C0.0849917 0.0825195 0 0.168728 0 0.339996V18.3139C0 18.4863 0.0861402 18.5714 0.257272 18.5714H9.21814C12.2376 18.5714 14.6863 16.1219 14.6863 13.0989Z" fill="#D2D9DB"/>
</svg>
