<svg width="64" height="17" viewBox="0 0 64 17" fill="none" xmlns="http://www.w3.org/2000/svg">
<g clip-path="url(#clip0_1_987)">
<path d="M13.2172 0.942533L7.87699 13.3733L2.53682 0.942533H0.716309L6.90605 15.2195H8.84793L15.0377 0.942533H13.2172Z" fill="white"/>
<path d="M48.5351 0.942533H37.8548V2.41946H42.3454V15.2195H44.0445V2.41946H48.5351V0.942533Z" fill="white"/>
<path d="M49.0206 8.08087C49.0206 12.8809 51.4479 15.3424 56.0599 15.3424C60.6719 15.3424 62.9778 12.8809 62.9778 8.08087C62.9778 3.28087 60.6719 0.819336 56.0599 0.819336C51.4479 0.819336 49.0206 3.28087 49.0206 8.08087ZM61.2787 8.08087C61.2787 12.0193 59.5796 13.8655 56.0599 13.8655C52.5402 13.8655 50.7197 12.0193 50.7197 8.08087C50.7197 4.26549 52.4189 2.41933 56.0599 2.41933C59.5796 2.29626 61.2787 4.26549 61.2787 8.08087Z" fill="white"/>
<path d="M29.4804 8.08087C29.4804 3.28087 27.1744 0.819336 22.5625 0.819336C17.8291 0.819336 15.5231 3.28087 15.5231 8.08087C15.5231 12.8809 17.9505 15.3424 22.5625 15.3424C27.1744 15.3424 29.4804 12.8809 29.4804 8.08087ZM22.5625 2.29626C26.0821 2.29626 27.7813 4.14241 27.7813 7.9578C27.7813 11.8963 26.0821 13.7424 22.5625 13.7424C19.0428 13.7424 17.2223 11.8963 17.2223 7.9578C17.2223 4.26549 19.0428 2.29626 22.5625 2.29626Z" fill="white"/>
<path d="M31.4223 15.2195H40.7676V13.7425H33.0001V0.327148L31.4223 2.1733V15.2195Z" fill="white"/>
</g>
<defs>
<clipPath id="clip0_1_987">
<rect width="63.1111" height="16" fill="white" transform="translate(0.716309 0.327637)"/>
</clipPath>
</defs>
</svg>
