<svg width="32" height="33" viewBox="0 0 32 33" fill="none" xmlns="http://www.w3.org/2000/svg">
<g clip-path="url(#clip0_21_1377)">
<path d="M29.2597 4.27047C28.9723 4.03191 28.6257 3.87569 28.2566 3.8184C27.8876 3.76112 27.5099 3.80491 27.1637 3.94514L3.27437 13.5891C2.88833 13.7478 2.55967 14.0201 2.33202 14.3699C2.10437 14.7197 1.98849 15.1305 1.99978 15.5477C2.01106 15.9649 2.14897 16.3688 2.3952 16.7058C2.64142 17.0428 2.98432 17.2969 3.37837 17.4345L8.53304 19.2238L11.3264 28.4585C11.3317 28.4771 11.349 28.4891 11.357 28.5065C11.3862 28.58 11.4282 28.6477 11.481 28.7065C11.5623 28.7962 11.6665 28.8621 11.7824 28.8971C11.7957 28.9025 11.805 28.9145 11.8184 28.9171H11.8264L11.8304 28.9185C11.9335 28.9405 12.0407 28.935 12.141 28.9025L12.1744 28.8958C12.2706 28.8618 12.3577 28.8061 12.429 28.7331C12.437 28.7238 12.4504 28.7225 12.4584 28.7145L16.4757 24.2798L22.3384 28.8198C22.6944 29.0985 23.133 29.2491 23.585 29.2491C24.5637 29.2491 25.4077 28.5638 25.609 27.6078L29.9584 6.25047C30.0326 5.88791 30.0068 5.51198 29.8837 5.16295C29.7606 4.81393 29.5449 4.50496 29.2597 4.26914M12.7837 20.9771L11.841 25.5598L9.87437 19.0558L19.6277 13.9758L12.965 20.6398C12.8729 20.7321 12.8099 20.8494 12.7837 20.9771ZM24.3024 27.3398C24.2773 27.4607 24.2216 27.5731 24.1406 27.6663C24.0596 27.7595 23.956 27.8302 23.8397 27.8718C23.7262 27.9148 23.6035 27.9278 23.4834 27.9096C23.3634 27.8914 23.25 27.8426 23.1544 27.7678L16.8037 22.8491C16.6709 22.7467 16.5044 22.698 16.3374 22.7128C16.1703 22.7276 16.015 22.8049 15.9024 22.9291L13.1064 26.0105L14.0477 21.4411L23.633 11.8545C23.7453 11.7419 23.8136 11.5928 23.8256 11.4343C23.8376 11.2757 23.7926 11.1181 23.6986 10.9898C23.6046 10.8615 23.4679 10.7711 23.3131 10.7348C23.1583 10.6985 22.9956 10.7187 22.8544 10.7918L9.03704 17.9891L3.81437 16.1731C3.67632 16.1267 3.55598 16.0388 3.46982 15.9214C3.38366 15.8039 3.33589 15.6628 3.33304 15.5171C3.32599 15.37 3.36514 15.2243 3.44499 15.1004C3.52484 14.9766 3.6414 14.8808 3.77837 14.8265L27.6637 5.18247C27.7862 5.13108 27.9206 5.11459 28.0519 5.13483C28.1832 5.15507 28.3063 5.21124 28.4077 5.29714C28.5086 5.37816 28.5847 5.48578 28.6276 5.60784C28.6705 5.72989 28.6784 5.86151 28.6504 5.98781L24.3024 27.3398Z" fill="#EEF1F2"/>
</g>
<defs>
<clipPath id="clip0_21_1377">
<rect width="32" height="32" fill="white" transform="translate(0 0.583984)"/>
</clipPath>
</defs>
</svg>
