<svg width="48" height="49" viewBox="0 0 48 49" fill="none" xmlns="http://www.w3.org/2000/svg">
<g clip-path="url(#clip0_1_5551)">
<path d="M47.2382 30.9051L45.8404 29.0413C45.7307 28.8952 45.6703 28.7141 45.6703 28.5313V28.1701C46.334 28.036 46.8352 27.4485 46.8352 26.746V25.8896C46.8352 24.6748 45.8469 23.6865 44.632 23.6865H37.5367C36.3219 23.6865 35.3335 24.6748 35.3335 25.8896V26.7459C35.3335 27.4484 35.8348 28.036 36.4984 28.17V28.5312C36.4984 28.714 36.438 28.8951 36.3283 29.0412L34.9305 30.905C34.4393 31.5601 34.1687 32.3718 34.1687 33.1906V35.7161C34.1687 36.1045 34.4835 36.4193 34.8718 36.4193C35.2601 36.4193 35.575 36.1045 35.575 35.7161V34.4115H46.5938V43.8772H35.575V42.162H36.425C36.8133 42.162 37.1281 41.8472 37.1281 41.4589C37.1281 41.0706 36.8133 40.7558 36.425 40.7558H35.575V38.9975C35.575 38.6092 35.2602 38.2944 34.8719 38.2944C34.4836 38.2944 34.1688 38.6092 34.1688 38.9975V46.1335C34.1688 47.3776 35.1809 48.3897 36.425 48.3897H45.7437C46.9878 48.3897 48 47.3776 48 46.1335V33.1907C48 32.3719 47.7295 31.5601 47.2382 30.9051ZM36.7399 25.8896C36.7399 25.4502 37.0974 25.0928 37.5368 25.0928H44.6321C45.0715 25.0928 45.429 25.4502 45.429 25.8896V26.7459C45.429 26.7717 45.408 26.7927 45.3821 26.7927H36.7868C36.7609 26.7927 36.7399 26.7717 36.7399 26.7459V25.8896ZM37.4534 29.8851C37.7444 29.4971 37.9047 29.0163 37.9047 28.5313V28.1991H44.2641V28.5313C44.2641 29.0163 44.4244 29.4971 44.7154 29.8851L46.1132 31.7488C46.3859 32.1126 46.5505 32.5528 46.5862 33.0053H35.5826C35.6183 32.5527 35.7829 32.1125 36.0556 31.7488L37.4534 29.8851ZM45.7437 46.9834H36.425C35.9563 46.9834 35.575 46.6021 35.575 46.1334V45.2834H46.5938V46.1334C46.5938 46.6021 46.2125 46.9834 45.7437 46.9834Z" fill="#79ADD5"/>
<path d="M43.4406 40.624C44.2419 40.624 44.8938 39.9722 44.8938 39.1709V37.5647C44.8938 36.7634 44.2419 36.1116 43.4406 36.1116H40.2812C39.48 36.1116 38.8281 36.7634 38.8281 37.5647V39.1709C38.8281 39.9722 39.48 40.624 40.2812 40.624H43.4406ZM40.2344 39.1709V37.5647C40.2344 37.5388 40.2554 37.5178 40.2812 37.5178H43.4406C43.4665 37.5178 43.4875 37.5388 43.4875 37.5647V39.1709C43.4875 39.1968 43.4665 39.2178 43.4406 39.2178H40.2812C40.2554 39.2178 40.2344 39.1967 40.2344 39.1709Z" fill="#79ADD5"/>
<path d="M32.0377 11.5764C32.0377 11.5623 32.0367 11.5485 32.0366 11.5346L36.5571 8.92465C37.2398 9.32862 38.0354 9.56149 38.8846 9.56149C41.4133 9.56149 43.4705 7.50424 43.4705 4.97552C43.4705 2.4469 41.4133 0.389648 38.8846 0.389648C36.3559 0.389648 34.2987 2.4469 34.2987 4.97562C34.2987 4.98968 34.2997 5.00346 34.2997 5.01743L29.7792 7.62734C29.0964 7.22337 28.3009 6.99049 27.4517 6.99049C26.0101 6.99049 24.7225 7.65968 23.8811 8.70312L20.2939 6.63209C20.4937 6.11796 20.6047 5.55968 20.6047 4.97571C20.6047 2.4469 18.5475 0.389648 16.0189 0.389648C13.4902 0.389648 11.4329 2.4469 11.4329 4.97562C11.4329 5.55959 11.5438 6.11787 11.7437 6.63199L8.15644 8.70302C7.31512 7.65959 6.02747 6.9904 4.58587 6.9904C3.66703 6.9904 2.78025 7.26134 2.02144 7.77396C1.69969 7.99127 1.61503 8.42834 1.83234 8.75018C2.04975 9.07212 2.48681 9.15677 2.80856 8.93927C3.33403 8.58424 3.94866 8.39665 4.58587 8.39665C6.33919 8.39665 7.76559 9.82305 7.76559 11.5764C7.76559 13.3297 6.33919 14.756 4.58587 14.756C2.83256 14.756 1.40625 13.3297 1.40625 11.5764C1.40625 11.4629 1.41225 11.3486 1.42416 11.2363C1.46512 10.8502 1.18528 10.504 0.799125 10.4631C0.413625 10.4217 0.0666562 10.702 0.025875 11.0881C0.008625 11.2494 0 11.4136 0 11.5764C0 13.866 1.68675 15.769 3.88284 16.1083V20.2459C1.68675 20.5853 0 22.4883 0 24.778C0 27.3067 2.05725 29.3639 4.58597 29.3639C5.43516 29.3639 6.23072 29.1311 6.9135 28.7271L11.434 31.337C11.4339 31.351 11.433 31.3647 11.433 31.3788C11.433 33.6685 13.1197 35.5714 15.3158 35.9108V39.2718C13.1197 39.6112 11.433 41.5141 11.433 43.8039C11.433 46.3326 13.4902 48.3898 16.019 48.3898C18.5477 48.3898 20.6049 46.3326 20.6049 43.8039C20.6049 41.5142 18.9182 39.6112 16.7221 39.2718V35.9108C18.9182 35.5714 20.6049 33.6685 20.6049 31.3787C20.6049 30.7947 20.494 30.2365 20.2942 29.7223L23.8814 27.6513C24.7227 28.6946 26.0103 29.3638 27.4519 29.3638C29.9806 29.3638 32.0378 27.3066 32.0378 24.7779C32.0378 23.0691 31.0977 21.5766 29.7082 20.7878V15.5665C31.0975 14.7776 32.0377 13.2851 32.0377 11.5764ZM38.8846 1.7959C40.6379 1.7959 42.0642 3.2223 42.0642 4.97562C42.0642 6.72893 40.6378 8.15534 38.8846 8.15534C37.1313 8.15534 35.7049 6.72893 35.7049 4.97562C35.7049 3.2223 37.1313 1.7959 38.8846 1.7959ZM35.4097 7.96324L31.7787 10.0597C31.5873 9.51518 31.2958 9.01765 30.9265 8.58874L34.5576 6.4923C34.749 7.0368 35.0405 7.53424 35.4097 7.96324ZM27.4517 8.39665C29.205 8.39665 30.6314 9.82305 30.6314 11.5764C30.6314 13.3297 29.205 14.756 27.4517 14.756C25.6984 14.756 24.272 13.3296 24.272 11.5764C24.272 9.82315 25.6985 8.39665 27.4517 8.39665ZM16.0189 1.7959C17.7722 1.7959 19.1985 3.2223 19.1985 4.97562C19.1985 6.72893 17.7721 8.15534 16.0189 8.15534C14.2656 8.15534 12.8392 6.72893 12.8392 4.97562C12.8392 3.2223 14.2656 1.7959 16.0189 1.7959ZM1.40625 24.778C1.40625 23.0246 2.83266 21.5982 4.58597 21.5982C6.33928 21.5982 7.76569 23.0246 7.76569 24.778C7.76569 26.5313 6.33928 27.9577 4.58597 27.9577C2.83266 27.9577 1.40625 26.5312 1.40625 24.778ZM8.06072 27.7656C8.43009 27.3366 8.72156 26.8391 8.913 26.2946L12.544 28.391C12.1747 28.82 11.8832 29.3174 11.6917 29.862L8.06072 27.7656ZM19.1985 43.8037C19.1985 45.557 17.7721 46.9834 16.0188 46.9834C14.2655 46.9834 12.8391 45.557 12.8391 43.8037C12.8391 42.0504 14.2655 40.624 16.0188 40.624C17.7721 40.6241 19.1985 42.0505 19.1985 43.8037ZM16.0189 34.5584C14.2656 34.5584 12.8392 33.132 12.8392 31.3787C12.8392 29.6254 14.2656 28.199 16.0189 28.199C17.7722 28.199 19.1985 29.6254 19.1985 31.3787C19.1985 33.132 17.7721 34.5584 16.0189 34.5584ZM19.5893 28.5054C18.748 27.462 17.4604 26.7927 16.0189 26.7927C15.1697 26.7927 14.3741 27.0256 13.6913 27.4296L9.17091 24.8197C9.171 24.8057 9.17194 24.7919 9.17194 24.7779C9.17194 22.4882 7.48519 20.5853 5.28909 20.2459V16.1083C7.48528 15.769 9.17194 13.866 9.17194 11.5764C9.17194 10.9924 9.06103 10.4341 8.86116 9.91999L12.4483 7.84887C13.2896 8.89231 14.5773 9.56149 16.0189 9.56149C17.4605 9.56149 18.748 8.89231 19.5893 7.84887L23.1766 9.9199C22.9767 10.434 22.8658 10.9923 22.8658 11.5763C22.8658 13.2851 23.8059 14.7776 25.1955 15.5664V20.7877C23.8059 21.5765 22.8658 23.069 22.8658 24.7778C22.8658 25.3617 22.9767 25.92 23.1766 26.4342L19.5893 28.5054ZM27.4517 27.9576C25.6984 27.9576 24.272 26.5312 24.272 24.7779C24.272 23.0246 25.6984 21.5981 27.4517 21.5981C29.205 21.5981 30.6314 23.0246 30.6314 24.7779C30.6314 26.5312 29.205 27.9576 27.4517 27.9576ZM28.3017 20.2722C28.0261 20.2204 27.7422 20.192 27.4518 20.192C27.1612 20.192 26.8774 20.2204 26.6017 20.2722V16.082C26.8774 16.1339 27.1612 16.1622 27.4518 16.1622C27.7423 16.1622 28.0261 16.1338 28.3017 16.082V20.2722Z" fill="#79ADD5"/>
</g>
<defs>
<clipPath id="clip0_1_5551">
<rect width="48" height="48" fill="white" transform="translate(0 0.389648)"/>
</clipPath>
</defs>
</svg>
