<svg width="49" height="49" viewBox="0 0 49 49" fill="none" xmlns="http://www.w3.org/2000/svg">
<g clip-path="url(#clip0_1_5542)">
<path d="M25.3315 43.4789C25.1516 43.4789 24.9716 43.4102 24.8342 43.273L22.8455 41.2843C22.5709 41.0096 22.5709 40.5645 22.8455 40.29L24.8342 38.3011C25.1087 38.0265 25.554 38.0265 25.8286 38.3011C26.1031 38.5756 26.1032 39.0209 25.8286 39.2954L25.0402 40.0839H47.7968C48.1852 40.0839 48.4999 40.3986 48.4999 40.787C48.4999 41.1754 48.1852 41.4901 47.7968 41.4901H25.0402L25.8286 42.2785C26.1032 42.5532 26.1032 42.9983 25.8286 43.2729C25.6914 43.4102 25.5114 43.4789 25.3315 43.4789ZM20.5303 41.4902H1.2032C0.814792 41.4902 0.500074 41.1755 0.500074 40.7871C0.500074 40.3987 0.814792 40.084 1.2032 40.084H20.5303C20.9187 40.084 21.2334 40.3987 21.2334 40.7871C21.2334 41.1755 20.9186 41.4902 20.5303 41.4902ZM44.0512 37.7099C43.8713 37.7099 43.6913 37.6412 43.5539 37.504L41.5652 35.5153C41.2906 35.2406 41.2906 34.7955 41.5652 34.521L43.5539 32.5322C43.8287 32.2574 44.2739 32.2577 44.5482 32.5321C44.8229 32.8067 44.8229 33.2519 44.5483 33.5264L43.7599 34.3149H47.7968C48.1852 34.3149 48.4999 34.6296 48.4999 35.018C48.4999 35.4064 48.1852 35.7211 47.7968 35.7211H43.7599L44.5483 36.5095C44.8229 36.7842 44.8229 37.2293 44.5483 37.5039C44.4111 37.6412 44.2311 37.7099 44.0512 37.7099ZM39.2501 35.7211H1.2032C0.814792 35.7211 0.500074 35.4064 0.500074 35.018C0.500074 34.6296 0.814792 34.3149 1.2032 34.3149H39.2501C39.6385 34.3149 39.9532 34.6296 39.9532 35.018C39.9532 35.4064 39.6384 35.7211 39.2501 35.7211ZM5.81119 32.1506C5.63128 32.1506 5.45128 32.082 5.31394 31.9447L3.49435 30.125C2.64919 30.0176 1.8916 29.9522 1.2032 29.9522C0.814792 29.9522 0.500074 29.6374 0.500074 29.249C0.500074 28.8606 0.814792 28.5459 1.2032 28.5459C1.93163 28.5459 2.71191 28.6104 3.56972 28.7171L5.31394 26.9729C5.58853 26.6982 6.03375 26.6981 6.30825 26.9728C6.58294 27.2474 6.58294 27.6926 6.30834 27.9671L5.30925 28.9663C5.76609 29.0377 6.24394 29.1154 6.74522 29.1968C10.717 29.8422 16.1566 30.7261 24.4999 30.7261C34.9932 30.7261 40.7743 29.666 44.2285 29.0328C45.7695 28.7501 46.883 28.546 47.7968 28.546C48.1852 28.546 48.4999 28.8607 48.4999 29.2491C48.4999 29.6375 48.1852 29.9523 47.7968 29.9523C47.0109 29.9523 45.9502 30.1467 44.482 30.4159C40.9809 31.0579 35.121 32.1324 24.4999 32.1324C16.0431 32.1324 10.5388 31.238 6.51975 30.585C6.285 30.5468 6.05559 30.5095 5.83125 30.4734L6.30834 30.9504C6.58294 31.2251 6.58294 31.6702 6.30834 31.9448C6.17109 32.082 5.99119 32.1506 5.81119 32.1506ZM36.1962 27.9136H26.1553C25.7669 27.9136 25.4522 27.5989 25.4522 27.2104C25.4522 26.822 25.7669 26.5073 26.1553 26.5073H36.1962C37.0578 26.5073 37.7801 26.0375 38.128 25.2508C38.3982 24.6397 38.4422 23.7175 37.755 22.9619C35.7976 20.8092 32.0939 19.3628 28.5387 19.3628C23.0627 19.3628 16.6258 22.1551 10.4856 25.1726C10.0195 25.4015 10.0802 25.8362 10.1099 25.9639C10.1394 26.0914 10.2764 26.5073 10.7946 26.5073H23.3427C23.7311 26.5073 24.0458 26.822 24.0458 27.2104C24.0458 27.5989 23.7311 27.9136 23.3427 27.9136H10.7947C9.79274 27.9136 8.96709 27.2581 8.74031 26.2823C8.51334 25.3059 8.96549 24.3528 9.86549 23.9105C16.1581 20.8182 22.7756 17.9566 28.5389 17.9566C32.4661 17.9566 36.5879 19.5878 38.7956 22.0158C39.7505 23.0659 39.9875 24.5234 39.4142 25.8196C38.8429 27.1113 37.6097 27.9136 36.1962 27.9136ZM1.20235 24.1832C0.843386 24.1832 0.536918 23.9096 0.503074 23.5451C0.467074 23.1584 0.751417 22.8158 1.13804 22.7799C3.51254 22.5592 7.31034 20.8818 11.3312 19.1057C15.8557 17.1071 20.9839 14.8419 25.4149 14.0428C25.7972 13.9734 26.1628 14.2278 26.2317 14.61C26.3006 14.9921 26.0466 15.3578 25.6645 15.4268C21.3986 16.1961 16.3519 18.4252 11.8994 20.392C7.5915 22.295 3.87104 23.9383 1.26835 24.1802C1.24614 24.1821 1.2241 24.1832 1.20235 24.1832ZM47.7969 24.1832C46.5786 24.1832 45.117 23.0653 43.0942 21.5182C39.9278 19.0964 35.6994 15.8623 30.3397 15.2473L31.0248 15.9324C31.2994 16.2071 31.2994 16.6522 31.0248 16.9268C30.7501 17.2013 30.305 17.2013 30.0304 16.9268L28.0417 14.9381C27.7671 14.6634 27.7671 14.2183 28.0417 13.9437L30.0304 11.955C30.3051 11.6805 30.7502 11.6805 31.0248 11.955C31.2994 12.2297 31.2994 12.6748 31.0248 12.9494L30.1584 13.8158C36.0851 14.3867 40.7682 17.9687 43.9486 20.4011C45.5459 21.6229 47.0547 22.7768 47.797 22.7768C48.1854 22.7768 48.5001 23.0915 48.5001 23.48C48.5001 23.8684 48.1852 24.1832 47.7969 24.1832ZM3.19182 20.403C3.01182 20.403 2.83191 20.3344 2.69457 20.197L0.705949 18.2082C0.431355 17.9336 0.431355 17.4885 0.705949 17.2139L2.69466 15.2252C2.96935 14.9507 3.41447 14.9507 3.68907 15.2252C3.96366 15.4999 3.96366 15.945 3.68907 16.2196L3.1066 16.802C5.58966 16.3355 8.64881 15.1422 11.851 13.8931C17.1068 11.8429 23.0639 9.5192 28.5388 9.5192C34.5175 9.5192 39.4053 12.5225 42.9742 14.7155C44.9762 15.9457 46.7053 17.008 47.7968 17.008C48.1852 17.008 48.4999 17.3227 48.4999 17.7112C48.4999 18.0996 48.1852 18.4143 47.7968 18.4143C46.3077 18.4143 44.5118 17.3107 42.238 15.9136C38.6212 13.6913 34.12 10.9254 28.5388 10.9254C23.3284 10.9254 17.5023 13.198 12.3621 15.2033C8.85215 16.5724 5.50913 17.8764 2.77023 18.2839L3.68907 19.2028C3.96366 19.4774 3.96366 19.9226 3.68897 20.1971C3.55172 20.3343 3.37172 20.403 3.19182 20.403ZM47.1947 14.353C47.0147 14.353 46.8348 14.2844 46.6974 14.1472L44.851 12.3006C42.5984 11.7826 40.5468 10.7573 38.5433 9.75582C35.5438 8.25677 32.4421 6.70671 28.5389 6.70671C23.7912 6.70671 19.7824 7.94739 15.7544 9.32973C15.3871 9.45611 14.9871 9.26026 14.8611 8.89295C14.7351 8.52564 14.9306 8.1257 15.2979 7.9997C19.443 6.57724 23.5746 5.30055 28.5389 5.30055C32.774 5.30055 36.0265 6.92608 39.1719 8.49808C41.1144 9.46876 42.9825 10.4024 44.9831 10.8898L46.6974 9.17542C46.9721 8.90073 47.4174 8.90083 47.6918 9.17533C47.9664 9.44992 47.9664 9.89514 47.6919 10.1696L46.6784 11.1831C47.045 11.2198 47.4174 11.2392 47.7968 11.2392C48.1852 11.2392 48.4999 11.5539 48.4999 11.9424C48.4999 12.3308 48.1852 12.6455 47.7968 12.6455C47.5853 12.6455 47.376 12.64 47.1684 12.6294L47.6919 13.1529C47.9664 13.4275 47.9664 13.8727 47.6919 14.1473C47.5546 14.2843 47.3746 14.353 47.1947 14.353ZM1.2032 12.6453C0.814792 12.6453 0.500074 12.3306 0.500074 11.9422C0.500074 11.5538 0.814792 11.239 1.2032 11.239C5.40872 11.239 9.17287 10.0866 12.371 9.00648C12.7387 8.88226 13.1378 9.07961 13.2621 9.44758C13.3864 9.81554 13.1889 10.2145 12.821 10.3388C9.51693 11.4547 5.62191 12.6453 1.2032 12.6453Z" fill="#79ADD5"/>
</g>
<defs>
<clipPath id="clip0_1_5542">
<rect width="48" height="48" fill="white" transform="translate(0.5 0.389648)"/>
</clipPath>
</defs>
</svg>
