<svg width="48" height="49" viewBox="0 0 48 49" fill="none" xmlns="http://www.w3.org/2000/svg">
<g clip-path="url(#clip0_1_5526)">
<path d="M41.3472 7.80843C41.7104 5.93419 42.0917 4.44338 42.3562 3.49754C42.4773 3.06433 42.3551 2.59773 42.0372 2.27973C41.7191 1.96155 41.2522 1.83939 40.8187 1.96042C39.6728 2.28086 37.7283 2.77267 35.2696 3.19614C31.8213 1.35977 27.9305 0.389648 24 0.389648C20.0696 0.389648 16.1788 1.35977 12.7306 3.19623C10.2719 2.77276 8.32731 2.28095 7.1815 1.96052C6.74829 1.83949 6.28113 1.96164 5.96304 2.27983C5.64504 2.59783 5.52288 3.06451 5.64401 3.49773C5.90848 4.44348 6.28976 5.93428 6.65304 7.80853C2.35902 12.2971 0 18.1724 0 24.3896C0 37.6544 10.7341 48.3896 24 48.3896C37.2917 48.3896 48 37.6284 48 24.3896C48 18.1774 45.6444 12.3006 41.3472 7.80843ZM46.0251 19.3216H44.5444C43.8463 16.4902 42.5436 13.7943 40.7541 11.4743C40.8375 10.8351 40.9315 10.193 41.0368 9.55011C43.5038 12.3753 45.2025 15.7202 46.0251 19.3216ZM43.0932 19.3216H36.9238C38.8851 18.0025 40.191 15.9103 40.5135 13.5557C41.6753 15.3268 42.5519 17.2838 43.0932 19.3216ZM40.9272 3.38945C38.4327 12.5284 40.0595 14.2955 37.2601 17.2096C34.9048 19.6496 30.8703 20.2247 27.7314 17.5797L29.161 16.1501C30.4792 17.2207 31.9731 17.6491 33.461 17.5148C33.8478 17.4799 34.133 17.1381 34.0981 16.7513C34.0634 16.3646 33.7214 16.08 33.3347 16.1142C32.2405 16.2128 31.1499 15.9085 30.1613 15.1497L32.0075 13.3035C33.0947 14.1512 34.3261 14.4913 35.5449 14.3813C35.9317 14.3464 36.2169 14.0045 36.182 13.6178C36.1471 13.2311 35.8057 12.9466 35.4185 12.9807C34.6023 13.0544 33.7786 12.8465 33.0126 12.2983L34.8301 10.4808C35.6045 11.0318 36.4642 11.2498 37.3171 11.1727C37.7039 11.1378 37.9891 10.796 37.9543 10.4092C37.9194 10.0225 37.5769 9.73742 37.1908 9.77221C36.7235 9.81449 36.2594 9.70771 35.8457 9.46527L37.8973 7.41375C38.1719 7.13915 38.1719 6.69394 37.8973 6.41944C37.6227 6.14485 37.1775 6.14485 36.9029 6.41944L34.8514 8.47068C34.6089 8.05706 34.5021 7.59309 34.5444 7.12575C34.5794 6.73903 34.2942 6.39713 33.9074 6.36216C33.5214 6.32738 33.1788 6.61237 33.1438 6.99909C33.0659 7.86187 33.2898 8.7194 33.8357 9.48636L32.0181 11.3039C31.473 10.5426 31.2616 9.71905 31.3356 8.89799C31.3705 8.51127 31.0853 8.16946 30.6986 8.13449C30.3127 8.09999 29.97 8.38471 29.935 8.77152C29.824 10.0002 30.1715 11.2299 31.0129 12.309L29.1667 14.1552C28.4137 13.1744 28.1026 12.0859 28.2022 10.9819C28.2371 10.5951 27.9519 10.2533 27.5651 10.2184C27.178 10.1837 26.8366 10.4688 26.8016 10.8555C26.6662 12.3562 27.1052 13.8491 28.1662 15.1555L26.7366 16.5851C22.88 12.008 25.8878 5.69213 31.216 5.16488C34.5848 4.83179 38.0099 4.18576 40.9272 3.38945ZM27.7155 19.3216H25.9893L26.7342 18.5767C27.0234 18.8266 27.3328 19.0684 27.7155 19.3216ZM25.7394 17.5828L24.0006 19.3216H23.9996L22.2608 17.5828C23.0274 16.6956 23.6359 15.6679 24.0002 14.5631C24.3711 15.6889 24.9863 16.7121 25.7394 17.5828ZM24 1.79589C27.0232 1.79589 30.021 2.4048 32.7868 3.5702C32.2133 3.64445 31.6427 3.7097 31.0779 3.76557C30.6121 3.8116 30.1568 3.89607 29.715 4.01504C28.4089 3.64951 27.0583 3.40801 25.6962 3.29992C25.309 3.26917 24.9703 3.5581 24.9397 3.9452C24.9089 4.33229 25.1978 4.67101 25.5849 4.70176C26.2362 4.75341 26.8848 4.83741 27.5264 4.95291C25.8121 6.00591 24.5915 7.63809 24.0001 9.44896C23.4169 7.668 22.2138 6.02166 20.4737 4.95291C21.1152 4.83751 21.7638 4.75351 22.4151 4.70176C22.8022 4.67101 23.0911 4.33229 23.0603 3.9452C23.0296 3.5582 22.6926 3.26842 22.3038 3.29992C20.9418 3.40811 19.5912 3.64951 18.2851 4.01504C17.3261 3.75676 17.025 3.80476 15.2134 3.5702C17.979 2.4048 20.9769 1.79589 24 1.79589ZM16.7837 5.16497C22.1364 5.69466 25.1055 12.0247 21.2632 16.5852L19.8336 15.1556C20.8946 13.849 21.3337 12.3561 21.1982 10.8556C21.1633 10.4689 20.8234 10.1842 20.4347 10.2185C20.0479 10.2533 19.7627 10.5951 19.7976 10.982C19.897 12.0838 19.5874 13.1726 18.8332 14.1553L16.987 12.3091C17.8271 11.2319 18.176 10.0024 18.0648 8.77162C18.0299 8.3849 17.69 8.09981 17.3012 8.13459C16.9145 8.16956 16.6293 8.51137 16.6642 8.89808C16.7379 9.71427 16.53 10.538 15.9817 11.304L14.1643 9.48646C14.7076 8.72287 14.9344 7.8659 14.8561 6.99919C14.8211 6.61247 14.4801 6.327 14.0925 6.36225C13.7057 6.39722 13.4205 6.73912 13.4555 7.12584C13.4978 7.59309 13.391 8.05715 13.1486 8.47087L11.0971 6.41925C10.8225 6.14466 10.3773 6.14466 10.1027 6.41925C9.82815 6.69384 9.82815 7.13906 10.1027 7.41356L12.1543 9.46508C11.7406 9.70752 11.2766 9.8143 10.8092 9.77202C10.4214 9.73761 10.0807 10.0224 10.0457 10.409C10.0109 10.7958 10.2961 11.1376 10.6829 11.1725C11.5542 11.2513 12.4094 11.0218 13.1699 10.4807L14.9874 12.2981C14.223 12.8453 13.3992 13.0544 12.5815 12.9806C12.1935 12.9457 11.853 13.231 11.818 13.6177C11.783 14.0044 12.0683 14.3463 12.4551 14.3812C13.6881 14.4923 14.9155 14.1432 15.9925 13.3034L17.8387 15.1496C16.8577 15.9026 15.7693 16.2136 14.6653 16.114C14.2773 16.0791 13.9368 16.3644 13.9019 16.7511C13.867 17.1378 14.1522 17.4796 14.539 17.5146C16.0169 17.648 17.5126 17.227 18.839 16.1499L20.2686 17.5796C17.1032 20.2465 13.0037 19.6333 10.6732 17.1397C7.96075 14.2481 9.56406 12.5162 7.07285 3.38936C9.99334 4.18651 13.4184 4.83207 16.7837 5.16497ZM22.0108 19.3216H20.2846C20.5918 19.1185 20.9341 18.8636 21.2659 18.5767L22.0108 19.3216ZM11.0762 19.3216H4.90686C5.44817 17.2838 6.32482 15.3268 7.48656 13.5557C7.80991 15.9172 9.12062 18.0063 11.0762 19.3216ZM6.96325 9.55011C7.06863 10.193 7.16257 10.8351 7.246 11.4743C5.45651 13.7943 4.15377 16.4902 3.45571 19.3216H1.97493C2.79758 15.7202 4.49633 12.3753 6.96325 9.55011ZM24 46.9834C18.021 46.9834 12.578 44.648 8.53253 40.8427H10.6999C14.4513 43.8778 19.1635 45.5473 24 45.5473C28.8366 45.5473 33.5488 43.8778 37.3002 40.8427H39.4675C35.422 44.648 29.979 46.9834 24 46.9834ZM40.8387 39.4365H25.6406C25.2522 39.4365 24.9375 39.7513 24.9375 40.1396C24.9375 40.5279 25.2522 40.8427 25.6406 40.8427H34.9272C31.7058 42.981 27.896 44.141 24 44.141C20.104 44.141 16.2943 42.9809 13.0729 40.8427H22.3594C22.7478 40.8427 23.0625 40.5279 23.0625 40.1396C23.0625 39.7513 22.7478 39.4365 22.3594 39.4365C22.1029 39.4365 7.43153 39.4365 7.16125 39.4365C3.58161 35.4348 1.40624 30.1602 1.40624 24.3896C1.40624 23.1676 1.50637 21.9348 1.70315 20.7279H46.2969C46.4963 21.9503 46.5938 23.1869 46.5938 24.3896C46.5938 29.7977 44.6607 35.1638 40.8387 39.4365Z" fill="#79ADD5"/>
<path d="M24.0001 29.2527C25.6007 29.2527 26.9029 27.6572 26.9029 25.6962C26.9029 23.7351 25.6007 22.1397 24.0001 22.1397C22.3996 22.1397 21.0974 23.7351 21.0974 25.6962C21.0974 27.6571 22.3996 29.2527 24.0001 29.2527ZM24.0001 23.5459C24.8112 23.5459 25.4966 24.5306 25.4966 25.6962C25.4966 26.8617 24.8112 27.8464 24.0001 27.8464C23.189 27.8464 22.5037 26.8618 22.5037 25.6962C22.5037 24.5306 23.189 23.5459 24.0001 23.5459Z" fill="#79ADD5"/>
<path d="M28.9585 25.1156L31.5797 28.9466C31.7132 29.1417 31.9323 29.2527 32.1601 29.2527C32.5476 29.2527 32.8631 28.9383 32.8631 28.5495V22.8428C32.8631 22.4545 32.5484 22.1397 32.16 22.1397C31.7716 22.1397 31.4568 22.4545 31.4568 22.8428V26.2767L28.8356 22.4457C28.6616 22.1913 28.3421 22.08 28.0475 22.171C27.753 22.2621 27.5522 22.5344 27.5522 22.8427V28.5494C27.5522 28.9377 27.867 29.2526 28.2554 29.2526C28.6438 29.2526 28.9585 28.9377 28.9585 28.5494V25.1156Z" fill="#79ADD5"/>
<path d="M15.8401 29.2527C16.2285 29.2527 16.5432 28.9378 16.5432 28.5495V25.1157L19.1645 28.9467C19.3385 29.201 19.6579 29.3124 19.9525 29.2213C20.2471 29.1302 20.4478 28.8579 20.4478 28.5496V22.8429C20.4478 22.4546 20.1331 22.1397 19.7447 22.1397C19.3563 22.1397 19.0416 22.4546 19.0416 22.8429V26.2767L16.4203 22.4457C16.2464 22.1914 15.9267 22.0801 15.6322 22.1711C15.3377 22.2622 15.137 22.5345 15.137 22.8428V28.5495C15.137 28.9378 15.4517 29.2527 15.8401 29.2527Z" fill="#79ADD5"/>
<path d="M29.5029 30.699C29.1145 30.699 28.7998 31.0138 28.7998 31.4021V37.1089C28.7998 37.4972 29.1145 37.812 29.5029 37.812C29.8913 37.812 30.2061 37.4972 30.2061 37.1089V31.4021C30.2061 31.0138 29.8913 30.699 29.5029 30.699Z" fill="#79ADD5"/>
<path d="M20.1247 30.699C18.5241 30.699 17.2219 32.2944 17.2219 34.2555C17.2219 36.2166 18.5241 37.812 20.1247 37.812C21.7253 37.812 23.0275 36.2166 23.0275 34.2555C23.0275 32.2944 21.7253 30.699 20.1247 30.699ZM20.1247 36.4057C19.3136 36.4057 18.6282 35.421 18.6282 34.2554C18.6282 33.0899 19.3136 32.1052 20.1247 32.1052C20.9358 32.1052 21.6212 33.0898 21.6212 34.2554C21.6212 35.421 20.9358 36.4057 20.1247 36.4057Z" fill="#79ADD5"/>
<path d="M17.4463 31.4021C17.4463 31.0138 17.1316 30.699 16.7432 30.699H12.281C11.8926 30.699 11.5779 31.0138 11.5779 31.4021C11.5779 31.7904 11.8926 32.1053 12.281 32.1053H13.8089V37.1089C13.8089 37.4972 14.1236 37.812 14.512 37.812C14.9004 37.812 15.2151 37.4972 15.2151 37.1089V32.1053H16.7432C17.1315 32.1053 17.4463 31.7904 17.4463 31.4021Z" fill="#79ADD5"/>
<path d="M27.8184 30.8166C27.495 30.6016 27.0586 30.6894 26.8436 31.0128L25.5321 32.9854L24.2206 31.0128C24.0057 30.6894 23.5694 30.6016 23.2458 30.8166C22.9225 31.0315 22.8345 31.468 23.0495 31.7914L24.6877 34.2554L23.0495 36.7194C22.8345 37.0428 22.9225 37.4792 23.2458 37.6943C23.5696 37.9095 24.006 37.821 24.2206 37.498L25.5321 35.5254L26.8436 37.498C27.0588 37.8217 27.4952 37.9091 27.8184 37.6943C28.1417 37.4793 28.2297 37.0428 28.0147 36.7194L26.3765 34.2554L28.0147 31.7914C28.2297 31.468 28.1418 31.0316 27.8184 30.8166Z" fill="#79ADD5"/>
<path d="M36.0197 35.1102C35.6688 34.9443 35.2496 35.0941 35.0835 35.4452C34.799 36.0466 34.3355 36.4057 33.8437 36.4057C33.0326 36.4057 32.3472 35.421 32.3472 34.2554C32.3472 33.0899 33.0326 32.1052 33.8437 32.1052C34.3352 32.1052 34.7987 32.4646 35.0834 33.0667C35.2494 33.4177 35.6684 33.5677 36.0195 33.4017C36.3705 33.2357 36.5206 32.8165 36.3546 32.4655C35.8394 31.3759 34.8772 30.6989 33.8437 30.6989C32.2431 30.6989 30.9409 32.2944 30.9409 34.2554C30.9409 36.2165 32.2431 37.8119 33.8437 37.8119C34.8774 37.8119 35.8395 37.1355 36.3546 36.0465C36.5207 35.6955 36.3707 35.2764 36.0197 35.1102Z" fill="#79ADD5"/>
</g>
<defs>
<clipPath id="clip0_1_5526">
<rect width="48" height="48" fill="white" transform="translate(0 0.389648)"/>
</clipPath>
</defs>
</svg>
