<svg width="16" height="59" viewBox="0 0 16 59" fill="none" xmlns="http://www.w3.org/2000/svg">
<path d="M8 0.666667C5.05448 0.666666 2.66667 3.05448 2.66667 6C2.66667 8.94552 5.05448 11.3333 8 11.3333C10.9455 11.3333 13.3333 8.94552 13.3333 6C13.3333 3.05448 10.9455 0.666667 8 0.666667ZM7.29289 58.7071C7.68342 59.0976 8.31658 59.0976 8.7071 58.7071L15.0711 52.3431C15.4616 51.9526 15.4616 51.3195 15.0711 50.9289C14.6805 50.5384 14.0474 50.5384 13.6569 50.9289L8 56.5858L2.34314 50.9289C1.95262 50.5384 1.31945 50.5384 0.92893 50.9289C0.538406 51.3195 0.538406 51.9526 0.92893 52.3431L7.29289 58.7071ZM7 6L7 58L9 58L9 6L7 6Z" fill="#79ADD5"/>
</svg>
