<svg width="318" height="16" viewBox="0 0 318 16" fill="none" xmlns="http://www.w3.org/2000/svg">
<path d="M0.666667 8C0.666666 10.9455 3.05448 13.3333 6 13.3333C8.94552 13.3333 11.3333 10.9455 11.3333 8C11.3333 5.05448 8.94552 2.66667 6 2.66667C3.05448 2.66667 0.666667 5.05448 0.666667 8ZM317.707 8.70713C318.098 8.31661 318.098 7.68344 317.707 7.29292L311.343 0.928959C310.953 0.538434 310.319 0.538434 309.929 0.928959C309.538 1.31948 309.538 1.95265 309.929 2.34317L315.586 8.00003L309.929 13.6569C309.538 14.0474 309.538 14.6806 309.929 15.0711C310.319 15.4616 310.953 15.4616 311.343 15.0711L317.707 8.70713ZM6 9L317 9.00003L317 7.00003L6 7L6 9Z" fill="#79ADD5"/>
</svg>
