<svg width="16" height="56" viewBox="0 0 16 56" fill="none" xmlns="http://www.w3.org/2000/svg">
<path d="M8 0.666667C5.05448 0.666667 2.66667 3.05448 2.66667 6C2.66667 8.94552 5.05448 11.3333 8 11.3333C10.9455 11.3333 13.3333 8.94552 13.3333 6C13.3333 3.05448 10.9455 0.666666 8 0.666667ZM7.2929 55.7071C7.68342 56.0976 8.31658 56.0976 8.70711 55.7071L15.0711 49.3431C15.4616 48.9526 15.4616 48.3195 15.0711 47.9289C14.6805 47.5384 14.0474 47.5384 13.6569 47.9289L8 53.5858L2.34315 47.9289C1.95262 47.5384 1.31946 47.5384 0.928934 47.9289C0.53841 48.3195 0.53841 48.9526 0.928934 49.3431L7.2929 55.7071ZM7 6L7 55L9 55L9 6L7 6Z" fill="#7F77A6"/>
</svg>
