<svg width="16" height="158" viewBox="0 0 16 158" fill="none" xmlns="http://www.w3.org/2000/svg">
<path d="M8 0.666667C5.05448 0.666667 2.66667 3.05448 2.66667 6C2.66667 8.94552 5.05448 11.3333 8 11.3333C10.9455 11.3333 13.3333 8.94552 13.3333 6C13.3333 3.05448 10.9455 0.666666 8 0.666667ZM7.2929 157.707C7.68342 158.098 8.31659 158.098 8.70711 157.707L15.0711 151.343C15.4616 150.953 15.4616 150.319 15.0711 149.929C14.6805 149.538 14.0474 149.538 13.6569 149.929L8.00001 155.586L2.34315 149.929C1.95263 149.538 1.31946 149.538 0.928938 149.929C0.538414 150.319 0.538414 150.953 0.928939 151.343L7.2929 157.707ZM7 6L7.00001 157L9.00001 157L9 6L7 6Z" fill="#7F77A6"/>
</svg>
