<svg width="317" height="16" viewBox="0 0 317 16" fill="none" xmlns="http://www.w3.org/2000/svg">
<path d="M0.666667 8C0.666666 10.9455 3.05448 13.3333 6 13.3333C8.94552 13.3333 11.3333 10.9455 11.3333 8C11.3333 5.05448 8.94552 2.66667 6 2.66667C3.05448 2.66667 0.666667 5.05448 0.666667 8ZM316.707 8.70713C317.098 8.31661 317.098 7.68344 316.707 7.29292L310.343 0.928959C309.953 0.538434 309.319 0.538434 308.929 0.928959C308.538 1.31948 308.538 1.95265 308.929 2.34317L314.586 8.00003L308.929 13.6569C308.538 14.0474 308.538 14.6806 308.929 15.0711C309.319 15.4616 309.953 15.4616 310.343 15.0711L316.707 8.70713ZM6 9L316 9.00003L316 7.00003L6 7L6 9Z" fill="#7F77A6"/>
</svg>
