<svg width="48" height="48" viewBox="0 0 48 48" fill="none" xmlns="http://www.w3.org/2000/svg">
<g clip-path="url(#clip0_2031_759)">
<path d="M24.7135 28.3679C24.7135 27.1773 23.7448 26.2087 22.5543 26.2087C21.3638 26.2087 20.3951 27.1774 20.3951 28.3679C20.3951 29.5585 21.3638 30.5271 22.5543 30.5271C23.7448 30.5271 24.7135 29.5585 24.7135 28.3679ZM21.8013 28.3679C21.8013 27.9528 22.1391 27.615 22.5542 27.615C22.9693 27.615 23.3071 27.9528 23.3071 28.3679C23.3071 28.783 22.9693 29.1208 22.5542 29.1208C22.1391 29.1208 21.8013 28.7831 21.8013 28.3679Z" fill="#79ADD5"/>
<path d="M31.9938 38.5605C31.9938 37.37 31.0251 36.4014 29.8346 36.4014C28.6441 36.4014 27.6755 37.37 27.6755 38.5605C27.6755 39.7511 28.6441 40.7197 29.8346 40.7197C31.025 40.7197 31.9938 39.7511 31.9938 38.5605ZM29.0817 38.5605C29.0817 38.1454 29.4195 37.8076 29.8345 37.8076C30.2497 37.8076 30.5874 38.1454 30.5874 38.5605C30.5874 38.9756 30.2496 39.3134 29.8345 39.3134C29.4194 39.3134 29.0817 38.9756 29.0817 38.5605Z" fill="#79ADD5"/>
<path d="M16.027 40.0163C16.027 41.207 16.9956 42.1755 18.1861 42.1755C19.3767 42.1755 20.3452 41.2069 20.3452 40.0163C20.3452 38.8257 19.3767 37.8572 18.1861 37.8572C16.9956 37.8572 16.027 38.8257 16.027 40.0163ZM18.939 40.0163C18.939 40.4315 18.6013 40.7692 18.1862 40.7692C17.771 40.7692 17.4333 40.4315 17.4333 40.0163C17.4333 39.6012 17.7711 39.2634 18.1862 39.2634C18.6013 39.2634 18.939 39.6012 18.939 40.0163Z" fill="#79ADD5"/>
<path d="M18.9393 4.20084V10.8195C18.9393 11.2078 19.2541 11.5226 19.6425 11.5226C20.0309 11.5226 20.3456 11.2078 20.3456 10.8195V4.31831H27.675V5.82422H25.4663C25.0779 5.82422 24.7632 6.13903 24.7632 6.52734C24.7632 6.91566 25.0779 7.23047 25.4663 7.23047H27.675V8.73638H25.4663C25.0779 8.73638 24.7632 9.05119 24.7632 9.4395C24.7632 9.82781 25.0779 10.1426 25.4663 10.1426H27.675V11.6484H25.4663C25.0779 11.6484 24.7632 11.9633 24.7632 12.3516C24.7632 12.7399 25.0779 13.0547 25.4663 13.0547H27.675V14.5605H25.4663C25.0779 14.5605 24.7632 14.8753 24.7632 15.2636C24.7632 15.6519 25.0779 15.9667 25.4663 15.9667H27.675V17.4727H25.4663C25.0779 17.4727 24.7632 17.7875 24.7632 18.1758C24.7632 18.5641 25.0779 18.8789 25.4663 18.8789H27.675V19.7803C27.675 21.182 28.4935 22.4658 29.7602 23.051C32.2259 24.1916 34.2825 26.0218 35.7073 28.3437C35.9978 28.6918 36.3201 28.769 36.6743 28.5753C37.0053 28.3721 37.1089 27.9392 36.9059 27.6082C35.3356 25.0493 33.0687 23.032 30.3502 21.7746C29.5793 21.4184 29.0812 20.6357 29.0812 19.7804V4.20084C29.9278 3.90862 30.5375 3.10378 30.5375 2.15916C30.5375 0.968531 29.569 0 28.3785 0H19.6421C18.4516 0 17.483 0.968625 17.483 2.15916C17.483 3.10378 18.0928 3.90872 18.9393 4.20084ZM19.6421 1.40625H28.3785C28.7936 1.40625 29.1313 1.74403 29.1313 2.15916C29.1313 2.5695 28.8013 2.90419 28.3927 2.91188C28.3878 2.91178 28.383 2.91169 28.3781 2.91169H19.6425C19.6376 2.91169 19.6327 2.91178 19.6278 2.91188C19.2193 2.90419 18.8893 2.5695 18.8893 2.15916C18.8893 1.74403 19.227 1.40625 19.6421 1.40625Z" fill="#79ADD5"/>
<path d="M38.2846 30.512C38.1565 30.1456 37.7553 29.9523 37.3886 30.0806C37.0222 30.2088 36.829 30.61 36.9572 30.9765C38.9251 36.6 36.8796 43.0926 32.0747 46.5937H15.9459C12.4054 44.014 10.2985 39.8848 10.2985 35.5031C10.2985 30.1767 13.4238 25.2889 18.2602 23.051C19.5271 22.4657 20.3456 21.1818 20.3456 19.7803V13.8833C20.3456 13.495 20.0309 13.1802 19.6425 13.1802C19.2541 13.1802 18.9394 13.495 18.9394 13.8833V19.7803C18.9394 20.6356 18.4413 21.4183 17.67 21.7746C12.3985 24.2139 8.89221 29.6883 8.89221 35.5032C8.89221 40.4152 11.2932 45.039 15.3151 47.8718C15.4337 47.9552 15.5751 48 15.72 48H32.3006C32.4456 48 32.5871 47.9552 32.7056 47.8718C38.1526 44.035 40.4864 36.8039 38.2846 30.512Z" fill="#79ADD5"/>
<path d="M24.8391 44.3624C24.8391 44.7507 25.1538 45.0655 25.5422 45.0655H31.3116C31.475 45.0655 31.6334 45.0086 31.7593 44.9046C35.3431 41.9451 36.9573 37.0779 35.8359 32.5667C35.7786 32.3361 35.6085 32.15 35.3841 32.0721C30.6944 30.4448 28.0107 31.3852 24.9809 32.6656C19.6423 34.9217 17.4708 34.2714 13.4436 31.5131C12.9626 31.2773 12.6064 31.4009 12.375 31.8841C10.916 36.566 12.4849 41.7859 16.2615 44.9046C16.3875 45.0086 16.5457 45.0655 16.7091 45.0655H22.4785C22.8669 45.0655 23.1816 44.7507 23.1816 44.3624C23.1816 43.9741 22.8669 43.6593 22.4785 43.6593H16.9664C14.0385 41.1274 12.6632 37.0631 13.4654 33.2691C17.3657 36.1649 20.2369 36.0233 25.4903 33.9763C28.437 32.8282 30.5915 31.9933 34.5565 33.2776C35.3553 37.0659 33.9807 41.1287 31.0543 43.6592H25.5422C25.1538 43.6593 24.8391 43.9741 24.8391 44.3624Z" fill="#79ADD5"/>
</g>
<defs>
<clipPath id="clip0_2031_759">
<rect width="48" height="48" fill="white"/>
</clipPath>
</defs>
</svg>
