<svg width="48" height="48" viewBox="0 0 48 48" fill="none" xmlns="http://www.w3.org/2000/svg">
<g clip-path="url(#clip0_2031_823)">
<path d="M6.50381 37.8499C6.27263 37.8499 6.05625 37.9634 5.92481 38.1536C5.41734 38.8883 2.88581 42.6414 2.88581 44.3822C2.88581 46.3771 4.50881 48.0002 6.50372 48.0002C8.49872 48.0002 10.1217 46.3772 10.1217 44.3822C10.1217 42.6415 7.59019 38.8883 7.08272 38.1536C6.95138 37.9634 6.735 37.8499 6.50381 37.8499ZM6.50381 46.5928C5.28488 46.5928 4.29319 45.6011 4.29319 44.3822C4.29319 43.5765 5.44772 41.4715 6.50391 39.8248C7.56009 41.471 8.71444 43.5755 8.71444 44.3822C8.71453 45.601 7.72275 46.5928 6.50381 46.5928Z" fill="#7F77A6"/>
<path d="M43.607 1.45032C41.5414 -0.4378 38.4082 -0.52855 36.4292 1.45032L35.367 2.51251C35.0922 2.78729 35.0922 3.23289 35.367 3.50767C35.6418 3.78254 36.0874 3.78245 36.3622 3.50767L37.4243 2.44548C38.8395 1.03032 41.1967 1.03032 42.6118 2.44548C44.027 3.86064 44.027 6.21807 42.6117 7.63314L36.7223 13.5219L31.5353 8.33448L34.1939 5.67583C34.4687 5.40104 34.4687 4.95545 34.1939 4.68067C33.9191 4.40589 33.4735 4.40589 33.1988 4.68067L30.4907 7.38873C29.0517 6.42723 27.1266 6.6452 25.9279 7.84398C24.5173 9.25454 24.5173 11.5497 25.9279 12.9603L25.939 12.9714L12.941 25.9697C12.1924 26.7183 11.8689 27.7848 12.0758 28.8231C12.1869 29.3905 12.0272 29.9181 11.5965 30.4056L8.40609 33.596C7.56159 34.6142 7.56122 35.6325 8.40488 36.6511C9.42356 37.4959 10.4423 37.4961 11.4611 36.6519L14.652 33.461C15.3567 33.0267 16.0903 32.8875 16.8528 33.0431C17.6843 33.0431 18.499 32.7054 19.0879 32.1165L21.9428 29.2615C22.2176 28.9868 22.2176 28.5412 21.9428 28.2664C21.6681 27.9916 21.2225 27.9916 20.9477 28.2664L18.0927 31.1214C17.685 31.5291 17.0852 31.7169 16.5098 31.6015C15.4715 31.3946 14.4049 31.7177 13.6568 32.4658L10.4661 35.6567C10.1108 35.9513 9.75553 35.9511 9.40041 35.6563C9.10613 35.3013 9.10622 34.9464 9.40078 34.5915L12.5921 31.4002C13.2903 30.7007 13.6507 29.5223 13.4559 28.5476C13.3412 27.9719 13.5207 27.3803 13.9361 26.9649L14.6223 26.2787L15.6712 27.3276C16.0028 27.6024 16.3345 27.6024 16.6663 27.3276C16.9411 27.0528 16.9411 26.6072 16.6663 26.3324L15.6174 25.2835L17.6873 23.2137L18.7361 24.2626C19.0678 24.5374 19.3995 24.5374 19.7313 24.2626C20.0061 23.9878 20.0061 23.5422 19.7313 23.2675L18.6824 22.2186L20.7522 20.1488L21.8011 21.1976C22.1328 21.4724 22.4645 21.4724 22.7963 21.1976C23.071 20.9229 23.071 20.4774 22.7963 20.2025L21.7474 19.1536L23.8171 17.0838L24.866 18.1327C25.1977 18.4074 25.5293 18.4074 25.8611 18.1327C26.1359 17.8579 26.1359 17.4123 25.8611 17.1375L24.8123 16.0886L26.9345 13.9664L27.9179 14.9499C28.1927 15.2246 28.6383 15.2246 28.9131 14.9499C29.1878 14.6751 29.1878 14.2295 28.9131 13.9547L26.9234 11.965C26.0616 11.1031 26.0616 9.70079 26.9237 8.83867C27.9658 7.97542 29.0078 7.97542 30.0499 8.83876L36.2249 15.0145C37.1514 15.9435 37.5393 17.3191 36.4711 18.387C35.6092 19.2487 34.207 19.2486 33.3452 18.3868L31.0819 16.1241C30.8071 15.8493 30.3615 15.8493 30.0867 16.1241C29.8119 16.3989 29.8119 16.8444 30.0867 17.1192L31.0908 18.1233L23.1167 26.0974C22.8419 26.3722 22.8419 26.8178 23.1167 27.0925C23.254 27.2299 23.4341 27.2986 23.6142 27.2986C23.7943 27.2986 23.9744 27.2299 24.1118 27.0925L32.0858 19.1185C33.4946 20.6229 35.9328 20.915 37.4656 19.3825C38.7673 18.081 38.8711 15.9456 37.7051 14.5294L43.6067 8.62839C45.7092 6.49614 45.5216 3.20054 43.607 1.45032Z" fill="#7F77A6"/>
</g>
<defs>
<clipPath id="clip0_2031_823">
<rect width="48" height="48" fill="white"/>
</clipPath>
</defs>
</svg>
