<svg width="48" height="48" viewBox="0 0 48 48" fill="none" xmlns="http://www.w3.org/2000/svg">
<g clip-path="url(#clip0_2031_813)">
<path d="M15.6996 29.2394C15.0925 28.9612 14.7171 29.148 14.5731 29.8V42.981C14.5731 44.1435 15.5188 45.0893 16.6813 45.0893H31.3111C32.4735 45.0893 33.4193 44.1434 33.4193 42.981V29.8C33.4193 29.5528 33.2894 29.3237 33.0772 29.1969C29.0674 26.8 25.8532 28.0887 23.0173 29.2258C20.4451 30.257 18.2239 31.1473 15.6996 29.2394ZM23.5402 30.5304C26.2256 29.4539 28.7669 28.4348 32.0138 30.2075V42.981C32.0138 43.3686 31.6986 43.6838 31.311 43.6838H16.6812C16.2938 43.6838 15.9785 43.3685 15.9785 42.981V31.0764C18.6859 32.4766 21.1487 31.4892 23.5402 30.5304Z" fill="#7F77A6"/>
<path d="M46.9434 20.0159L43.8729 16.9451C43.5985 16.6709 43.1535 16.6707 42.8791 16.9451C42.6046 17.2195 42.6046 17.6646 42.879 17.939L45.9495 21.0098C46.8103 21.8706 46.8103 23.2713 45.9495 24.1321C45.089 24.9926 43.6883 24.9926 42.8273 24.1321L31.7515 13.0561H37.9961L40.7137 15.7737C40.9882 16.048 41.4331 16.048 41.7076 15.7737C41.982 15.4992 41.982 15.0543 41.7076 14.7798L32.9519 6.02391C33.3443 5.15523 33.2499 4.29113 32.5375 3.55098C31.6527 2.63176 30.503 2.70816 29.4856 3.55088L25.3695 7.66707C24.5281 8.50857 24.5281 9.8776 25.3695 10.719C26.1491 11.3874 26.9732 11.5256 27.8416 11.1339L34.1629 17.4553H24.0608C23.6727 17.4553 23.3581 17.7699 23.3581 18.1581C23.3581 18.5462 23.6727 18.8608 24.0608 18.8608H34.2216C34.609 18.8608 34.9243 19.1761 34.9243 19.5636V44.3926C34.9243 45.6068 33.9366 46.5946 32.7224 46.5946H15.2476C14.0334 46.5946 13.0457 45.6068 13.0457 44.3926V27.4719C13.0457 26.9166 12.8208 26.3731 12.4285 25.9809L9.46819 23.0213C9.19425 22.7469 9.19425 22.3003 9.46763 22.0263L12.4286 19.0662C12.5592 18.9356 12.74 18.8607 12.9248 18.8607H20.9989C21.387 18.8607 21.7016 18.5461 21.7016 18.158C21.7016 17.7699 21.387 17.4552 20.9989 17.4552H12.9248C12.37 17.4552 11.827 17.6801 11.4348 18.0723L8.47331 21.0329C7.65291 21.8549 7.65291 23.1924 8.47388 24.0148L11.4347 26.9749C11.5654 27.1055 11.6402 27.2866 11.6402 27.472V44.3926C11.6402 46.3818 13.2585 48.0001 15.2476 48.0001H32.7224C34.7115 48.0001 36.3298 46.3817 36.3298 44.3926V19.6223L41.8336 25.1261C43.2261 26.5176 45.5512 26.518 46.9433 25.1259C48.3522 23.7171 48.3522 21.4247 46.9434 20.0159ZM30.346 11.6505L28.9179 10.2224L32.0403 7.09998L36.5906 11.6505H30.346ZM26.3634 9.72507C26.07 9.43173 26.07 8.95435 26.3634 8.66091L30.4795 4.54473C30.8343 4.25082 31.1889 4.25082 31.5436 4.54473C31.8653 4.86629 31.8098 5.28798 31.5433 5.60916L27.4271 9.72544C27.1555 9.99151 26.629 9.99085 26.3634 9.72507Z" fill="#7F77A6"/>
<path d="M22.6314 7.80799C23.4727 6.96678 23.4727 5.59774 22.6314 4.75634L21.6973 3.82212C21.4228 3.54781 20.9779 3.54781 20.7034 3.82212C20.429 4.09662 20.429 4.54156 20.7034 4.81606L21.6375 5.75018C21.9308 6.04353 21.945 6.53581 21.6367 6.8149C21.2833 7.13478 20.8198 7.07253 20.5728 6.81443L16.4565 2.69787C16.1627 2.34321 16.1627 1.98856 16.4566 1.63399C16.7498 1.34065 17.2272 1.34065 17.5204 1.63399L18.537 2.65062C18.8115 2.92493 19.2564 2.92493 19.5309 2.65062C19.8053 2.37612 19.8053 1.93118 19.5309 1.65668L18.5143 0.640151C17.4971 -0.202474 16.4615 -0.224224 15.4628 0.640151C14.6775 1.31974 14.6559 2.24421 15.0483 3.11281L1.05647 17.105C-0.352219 18.5138 -0.352219 20.8062 1.05647 22.2149C2.46844 23.5212 4.76325 23.6183 6.16641 22.215L20.1586 8.22246C20.4562 8.36731 21.6711 8.76837 22.6314 7.80799ZM17.6537 8.73987H11.4092L15.9598 4.18915L17.0062 5.23559L19.0819 7.31159L17.6537 8.73987ZM5.17256 21.2212C4.24762 22.1462 2.97206 21.8931 2.05041 21.2212C1.18959 20.3603 1.18959 18.9597 2.05041 18.0988L10.0037 10.1454H16.2482L5.17256 21.2212Z" fill="#7F77A6"/>
<path d="M24.6877 13.8085C24.6877 12.8593 23.4786 11.035 23.108 10.4984C22.9767 10.3085 22.7606 10.1951 22.5297 10.1951C22.2988 10.1951 22.0827 10.3084 21.9515 10.4984C21.5809 11.035 20.3717 12.8593 20.3717 13.8085C20.3717 14.9984 21.3398 15.9665 22.5297 15.9665C23.7197 15.9665 24.6877 14.9983 24.6877 13.8085ZM22.5297 14.561C22.1148 14.561 21.7772 14.2234 21.7772 13.8088C21.7808 13.5827 22.0956 12.9253 22.5297 12.198C22.9639 12.9253 23.2786 13.5827 23.2822 13.8088C23.2821 14.2235 22.9447 14.561 22.5297 14.561Z" fill="#7F77A6"/>
</g>
<defs>
<clipPath id="clip0_2031_813">
<rect width="48" height="48" fill="white"/>
</clipPath>
</defs>
</svg>
