<svg width="48" height="48" viewBox="0 0 48 48" fill="none" xmlns="http://www.w3.org/2000/svg">
<g clip-path="url(#clip0_2031_786)">
<path d="M34.5627 14.3522H35.9415C36.2607 15.7142 37.4847 16.7319 38.9426 16.7319C39.252 16.7319 39.5508 16.6855 39.8328 16.6003L40.3271 17.4564C40.4573 17.6819 40.6936 17.808 40.9366 17.808C41.0559 17.808 41.1769 17.7776 41.2875 17.7137C41.6238 17.5195 41.739 17.0895 41.5449 16.7532L41.05 15.8961C41.6497 15.3333 42.0255 14.5344 42.0255 13.6489C42.0255 11.9489 40.6425 10.5659 38.9426 10.5659C37.4845 10.5659 36.2605 11.5837 35.9414 12.9459H34.5627C34.1742 12.9459 33.8595 13.2608 33.8595 13.6491C33.8595 14.0374 34.1742 14.3522 34.5627 14.3522ZM38.9426 11.9722C39.867 11.9722 40.6193 12.7243 40.6193 13.6489C40.6193 14.5734 39.8671 15.3256 38.9426 15.3256C38.018 15.3256 37.2658 14.5734 37.2658 13.6489C37.2658 12.7243 38.018 11.9722 38.9426 11.9722Z" fill="#79ADD5"/>
<path d="M44.917 20.8994C44.6038 20.8994 44.3015 20.9466 44.0165 21.0339L43.1391 19.5143C42.945 19.178 42.5148 19.0628 42.1787 19.257C41.8424 19.4511 41.7272 19.8812 41.9213 20.2174L42.8019 21.7426C42.2067 22.305 41.8342 23.1007 41.8342 23.9823C41.8342 24.8705 42.2122 25.6716 42.8153 26.2347L39.8332 31.3998C39.5511 31.3145 39.2523 31.2682 38.9427 31.2682C37.4846 31.2682 36.2605 32.286 35.9415 33.6483H29.9894C29.6704 32.2861 28.4464 31.2684 26.9883 31.2684C26.6783 31.2684 26.3789 31.3149 26.0964 31.4004L23.1139 26.2345C23.7168 25.6715 24.0948 24.8704 24.0948 23.9822C24.0948 23.1006 23.7223 22.305 23.1272 21.7426L26.0964 16.5997C26.3789 16.6852 26.6783 16.7317 26.9883 16.7317C28.4463 16.7317 29.6703 15.714 29.9894 14.3519H31.3752C31.7636 14.3519 32.0783 14.037 32.0783 13.6487C32.0783 13.2604 31.7636 12.9456 31.3752 12.9456H29.9894C29.6703 11.5835 28.4464 10.5657 26.9883 10.5657C26.6783 10.5657 26.3789 10.6122 26.0964 10.6977L23.1205 5.54326C23.7196 4.98047 24.0949 4.1821 24.0949 3.29728C24.0949 1.5973 22.7119 0.214299 21.0119 0.214299C19.5538 0.214299 18.3298 1.23205 18.0108 2.59434H12.045C11.7261 1.23205 10.502 0.214111 9.04382 0.214111C7.34384 0.214111 5.96084 1.59712 5.96084 3.29709C5.96084 4.18688 6.34024 4.98947 6.94522 5.55273L3.98355 10.6828C3.69845 10.5957 3.3962 10.5483 3.08298 10.5483C1.38301 10.5484 0 11.9314 0 13.6313C0 15.3312 1.38301 16.7143 3.08298 16.7143C3.38983 16.7143 3.68617 16.6686 3.96602 16.5847L6.93847 21.7332C6.33753 22.2962 5.96093 23.0959 5.96093 23.9823C5.96093 24.8753 6.34296 25.6806 6.95187 26.2441L3.97473 31.4005C3.69226 31.315 3.39301 31.2685 3.08298 31.2685C1.38301 31.2686 0 32.6516 0 34.3516C0 36.0516 1.38301 37.4345 3.08298 37.4345C3.39301 37.4345 3.69236 37.388 3.97483 37.3025L6.94512 42.4472C6.34024 43.0104 5.96093 43.8128 5.96093 44.7026C5.96093 46.4026 7.34394 47.7856 9.04391 47.7856C10.5019 47.7856 11.7258 46.768 12.045 45.4059H18.0108C18.33 46.7679 19.5539 47.7856 21.0118 47.7856C22.7118 47.7856 24.0948 46.4026 24.0948 44.7026C24.0948 43.8178 23.7196 43.0194 23.1205 42.4567L26.0964 37.3024C26.3788 37.3879 26.6782 37.4344 26.9882 37.4344C28.4462 37.4344 29.6701 36.4168 29.9892 35.0547H35.9415C36.2607 36.4167 37.4846 37.4342 38.9425 37.4342C40.6425 37.4342 42.0255 36.0512 42.0255 34.3512C42.0255 33.4659 41.6498 32.6671 41.0502 32.1042L44.0342 26.9358C44.314 27.0196 44.6103 27.0652 44.917 27.0652C46.617 27.0652 48 25.6822 48 23.9823C48 22.2823 46.617 20.8994 44.917 20.8994ZM22.6885 23.9824C22.6885 24.9069 21.9364 25.6591 21.0118 25.6591C20.0872 25.6591 19.3351 24.9069 19.3351 23.9824C19.3351 23.0578 20.0872 22.3056 21.0118 22.3056C21.9364 22.3056 22.6885 23.0578 22.6885 23.9824ZM28.6649 13.649C28.6649 14.5736 27.9128 15.3257 26.9882 15.3257C26.0636 15.3257 25.3115 14.5736 25.3115 13.649C25.3115 12.7244 26.0636 11.9723 26.9882 11.9723C27.9128 11.9723 28.6649 12.7244 28.6649 13.649ZM21.0118 1.62084C21.9363 1.62084 22.6885 2.37299 22.6885 3.29756C22.6885 4.22213 21.9364 4.97429 21.0118 4.97429C20.0872 4.97429 19.3351 4.22213 19.3351 3.29756C19.3351 2.37299 20.0873 1.62084 21.0118 1.62084ZM9.04391 1.62065C9.96838 1.62065 10.7206 2.37281 10.7206 3.29737C10.7206 4.22194 9.96848 4.9741 9.04391 4.9741C8.11934 4.9741 7.36719 4.22194 7.36719 3.29737C7.36719 2.37281 8.11934 1.62065 9.04391 1.62065ZM1.40626 13.6313C1.40626 12.7067 2.15841 11.9546 3.08298 11.9546C4.00755 11.9546 4.75971 12.7068 4.75971 13.6313C4.75971 14.5558 4.00755 15.308 3.08298 15.308C2.15841 15.308 1.40626 14.5559 1.40626 13.6313ZM7.36719 23.9824C7.36719 23.0578 8.11934 22.3056 9.04391 22.3056C9.96848 22.3056 10.7206 23.0578 10.7206 23.9824C10.7206 24.9069 9.96848 25.6591 9.04391 25.6591C8.11934 25.6591 7.36719 24.9069 7.36719 23.9824ZM1.40626 34.3516C1.40626 33.4271 2.15841 32.6749 3.08298 32.6749C4.00755 32.6749 4.75971 33.4271 4.75971 34.3516C4.75971 35.2762 4.00745 36.0283 3.08298 36.0283C2.15851 36.0283 1.40626 35.2761 1.40626 34.3516ZM9.04391 46.3793C8.11944 46.3793 7.36719 45.6272 7.36719 44.7026C7.36719 43.778 8.11934 43.0259 9.04391 43.0259C9.96848 43.0259 10.7206 43.778 10.7206 44.7026C10.7206 45.6272 9.96838 46.3793 9.04391 46.3793ZM21.0118 46.3793C20.0873 46.3793 19.3351 45.6272 19.3351 44.7026C19.3351 43.778 20.0872 43.0259 21.0118 43.0259C21.9364 43.0259 22.6885 43.778 22.6885 44.7026C22.6885 45.6272 21.9363 46.3793 21.0118 46.3793ZM21.9037 41.7517C21.6212 41.6661 21.3218 41.6196 21.0118 41.6196C19.5537 41.6196 18.3297 42.6374 18.0107 43.9997H12.045C11.726 42.6375 10.502 41.6196 9.04391 41.6196C8.73866 41.6196 8.44391 41.6649 8.16519 41.7479L5.19161 36.5975C5.79068 36.0347 6.16596 35.2363 6.16596 34.3514C6.16596 33.4665 5.79068 32.6681 5.19161 32.1054L8.17419 26.9394C8.45019 27.0208 8.74194 27.0652 9.04391 27.0652C10.4955 27.0652 11.7153 26.0564 12.0409 24.7032H13.1251C13.5135 24.7032 13.8282 24.3884 13.8282 24.0001C13.8282 23.6118 13.5135 23.297 13.1251 23.297H12.0492C11.7366 21.9259 10.5083 20.8992 9.04391 20.8992C8.73547 20.8992 8.43763 20.9452 8.15638 21.03L5.18505 15.8834C5.78796 15.3203 6.16596 14.5192 6.16596 13.6311C6.16596 12.7495 5.7934 11.9538 5.19818 11.3914L8.16547 6.25192C8.4441 6.33489 8.73875 6.38017 9.04391 6.38017C10.5018 6.38017 11.7256 5.3626 12.045 4.00069H18.0108C18.33 5.36269 19.5539 6.38035 21.0118 6.38035C21.3218 6.38035 21.6212 6.33385 21.9037 6.24835L24.8796 11.4028C24.2805 11.9656 23.9052 12.764 23.9052 13.6489C23.9052 14.5338 24.2805 15.3322 24.8796 15.895L21.9126 21.0339C21.6275 20.9466 21.325 20.8994 21.0118 20.8994C19.5474 20.8994 18.3191 21.926 18.0065 23.2971H16.3126C15.9242 23.2971 15.6094 23.612 15.6094 24.0003C15.6094 24.3886 15.9242 24.7034 16.3126 24.7034H18.0148C18.3404 26.0566 19.5601 27.0653 21.0118 27.0653C21.3186 27.0653 21.6149 27.0197 21.8948 26.9358L24.8795 32.1055C24.2804 32.6682 23.9052 33.4666 23.9052 34.3514C23.9052 35.2362 24.2805 36.0347 24.8796 36.5975L21.9037 41.7517ZM26.9882 36.0282C26.0637 36.0282 25.3115 35.276 25.3115 34.3514C25.3115 33.4269 26.0636 32.6747 26.9882 32.6747C27.9128 32.6747 28.6649 33.4269 28.6649 34.3514C28.6649 35.276 27.9127 36.0282 26.9882 36.0282ZM38.9426 36.028C38.0181 36.028 37.2659 35.2758 37.2659 34.3512C37.2659 33.4267 38.018 32.6745 38.9426 32.6745C39.8672 32.6745 40.6193 33.4267 40.6193 34.3512C40.6193 35.2758 39.8671 36.028 38.9426 36.028ZM44.917 25.6591C43.9925 25.6591 43.2403 24.9069 43.2403 23.9824C43.2403 23.0578 43.9925 22.3056 44.917 22.3056C45.8416 22.3056 46.5937 23.0578 46.5937 23.9824C46.5937 24.9069 45.8416 25.6591 44.917 25.6591Z" fill="#79ADD5"/>
<path d="M11.9236 14.3816H18.1426C18.531 14.3816 18.8457 14.0668 18.8457 13.6785C18.8457 13.2902 18.531 12.9753 18.1426 12.9753H11.9236C11.5352 12.9753 11.2205 13.2902 11.2205 13.6785C11.2205 14.0668 11.5352 14.3816 11.9236 14.3816Z" fill="#79ADD5"/>
<path d="M18.8457 16.0862C18.8457 15.6979 18.531 15.3831 18.1426 15.3831H11.9236C11.5352 15.3831 11.2205 15.6979 11.2205 16.0862C11.2205 16.4745 11.5352 16.7893 11.9236 16.7893H18.1426C18.5309 16.7893 18.8457 16.4745 18.8457 16.0862Z" fill="#79ADD5"/>
<path d="M18.1343 11.6702H18.1441H18.1475C18.5343 11.6702 18.8487 11.3575 18.8506 10.9703C18.8524 10.582 18.539 10.2657 18.1507 10.2639H18.1409C18.1396 10.2639 18.1386 10.2639 18.1375 10.2639C17.7507 10.2639 17.4363 10.5766 17.4345 10.9638C17.4326 11.3521 17.746 11.6684 18.1343 11.6702Z" fill="#79ADD5"/>
<path d="M18.1426 33.9226H11.9236C11.5352 33.9226 11.2205 34.2374 11.2205 34.6257C11.2205 35.014 11.5352 35.3289 11.9236 35.3289H18.1426C18.531 35.3289 18.8457 35.014 18.8457 34.6257C18.8457 34.2374 18.5309 33.9226 18.1426 33.9226Z" fill="#79ADD5"/>
<path d="M18.1426 36.3303H11.9236C11.5352 36.3303 11.2205 36.6451 11.2205 37.0334C11.2205 37.4218 11.5352 37.7366 11.9236 37.7366H18.1426C18.531 37.7366 18.8457 37.4218 18.8457 37.0334C18.8457 36.6451 18.5309 36.3303 18.1426 36.3303Z" fill="#79ADD5"/>
<path d="M18.1474 31.2112H18.1376C17.7492 31.2112 17.4345 31.526 17.4345 31.9143C17.4345 32.3026 17.7492 32.6174 18.1376 32.6174H18.1474C18.5359 32.6174 18.8506 32.3026 18.8506 31.9143C18.8506 31.526 18.5359 31.2112 18.1474 31.2112Z" fill="#79ADD5"/>
<path d="M35.9041 23.449H29.6852C29.2968 23.449 28.9821 23.7638 28.9821 24.1521C28.9821 24.5404 29.2968 24.8552 29.6852 24.8552H35.9041C36.2925 24.8552 36.6072 24.5404 36.6072 24.1521C36.6072 23.7638 36.2924 23.449 35.9041 23.449Z" fill="#79ADD5"/>
<path d="M35.9041 25.8567H29.6852C29.2968 25.8567 28.9821 26.1715 28.9821 26.5598C28.9821 26.9481 29.2968 27.2629 29.6852 27.2629H35.9041C36.2925 27.2629 36.6072 26.9481 36.6072 26.5598C36.6072 26.1715 36.2924 25.8567 35.9041 25.8567Z" fill="#79ADD5"/>
<path d="M35.9123 20.7375H35.9025C35.9012 20.7375 35.9002 20.7375 35.8991 20.7375C35.5123 20.7375 35.1979 21.0502 35.1961 21.4374C35.1942 21.8257 35.5076 22.142 35.8959 22.1438H35.9057H35.9091C36.2959 22.1438 36.6103 21.8311 36.6121 21.444C36.614 21.0555 36.3006 20.7393 35.9123 20.7375Z" fill="#79ADD5"/>
</g>
<defs>
<clipPath id="clip0_2031_786">
<rect width="48" height="48" fill="white"/>
</clipPath>
</defs>
</svg>
