<svg width="48" height="48" viewBox="0 0 48 48" fill="none" xmlns="http://www.w3.org/2000/svg">
<g clip-path="url(#clip0_2031_773)">
<path d="M25.0951 39.8062C23.862 39.8062 22.8587 40.8094 22.8587 42.0427C22.8587 43.2757 23.8619 44.2791 25.0951 44.2791C26.3283 44.2791 27.3315 43.2758 27.3315 42.0427C27.3316 40.8094 26.3283 39.8062 25.0951 39.8062ZM25.0951 42.8727C24.6374 42.8727 24.265 42.5003 24.265 42.0426C24.265 41.5848 24.6373 41.2123 25.0951 41.2123C25.5529 41.2123 25.9253 41.5848 25.9253 42.0426C25.9253 42.5003 25.5529 42.8727 25.0951 42.8727Z" fill="#79ADD5"/>
<path d="M33.876 37.4067C32.6428 37.4067 31.6396 38.41 31.6396 39.6432C31.6396 40.8763 32.6428 41.8796 33.876 41.8796C35.1091 41.8796 36.1124 40.8764 36.1124 39.6432C36.1123 38.41 35.1091 37.4067 33.876 37.4067ZM33.876 40.4733C33.4182 40.4733 33.0458 40.1009 33.0458 39.6431C33.0458 39.1854 33.4182 38.8129 33.876 38.8129C34.3337 38.8129 34.7061 39.1854 34.7061 39.6431C34.7061 40.1009 34.3337 40.4733 33.876 40.4733Z" fill="#79ADD5"/>
<path d="M23.2648 19.0467C23.419 19.0467 23.5743 19.0263 23.7272 18.9854C24.1853 18.8626 24.5681 18.5689 24.8053 18.1582L25.3133 17.2784L27.239 18.3902C27.5194 18.5521 27.8305 18.6348 28.1458 18.6348C28.3039 18.6347 28.463 18.6139 28.6197 18.572C29.0892 18.4461 29.4817 18.1451 29.7247 17.7241L30.1043 17.0667C30.3473 16.6457 30.4118 16.1553 30.286 15.6858C30.1602 15.2163 29.8591 14.824 29.4382 14.581L27.5124 13.4692L28.0204 12.5893C28.5098 11.7416 28.2184 10.6536 27.3705 10.164L19.9622 5.88697C19.6259 5.69282 19.1959 5.80794 19.0017 6.14432C18.8076 6.4806 18.9228 6.91063 19.2591 7.10479L26.6673 11.3818C26.8436 11.4837 26.9043 11.7099 26.8025 11.8862L23.5873 17.4551C23.538 17.5405 23.4583 17.6016 23.3631 17.6271C23.2678 17.6525 23.1683 17.6396 23.0829 17.5902L12.0066 11.1952C11.9212 11.1459 11.86 11.0663 11.8345 10.9709C11.809 10.8757 11.8222 10.7762 11.8715 10.6908L15.0867 5.12207C15.136 5.03666 15.2156 4.97554 15.3109 4.94994C15.4061 4.92454 15.5056 4.93738 15.591 4.98688L16.4199 5.46557C16.7562 5.65954 17.1863 5.5446 17.3805 5.20822C17.5747 4.87194 17.4594 4.44191 17.1232 4.24775L16.2941 3.76907C15.8834 3.53197 15.405 3.46888 14.9469 3.59169C14.4888 3.7145 14.1059 4.00822 13.8688 4.41894L12.6128 6.59441L10.5267 5.39038L11.9531 2.91997C12.3488 2.23447 12.1131 1.35501 11.4278 0.959474L10.0986 0.192036C9.41307 -0.203683 8.53379 0.0319112 8.13807 0.717317L4.5826 6.87557C4.39097 7.20754 4.33997 7.59426 4.43925 7.96457C4.53854 8.33488 4.776 8.64444 5.10797 8.83607L6.43716 9.60351C6.66263 9.73372 6.909 9.79551 7.15229 9.79551C7.6486 9.79551 8.13207 9.53807 8.39766 9.07822L9.8236 6.60847L11.9096 7.81251L10.6537 9.98788C10.4166 10.3986 10.3536 10.877 10.4763 11.3352C10.5991 11.7933 10.8928 12.1762 11.3035 12.4132L22.3798 18.8082C22.6535 18.9659 22.957 19.0467 23.2648 19.0467ZM28.9277 16.0498C28.9563 16.1564 28.9416 16.2678 28.8863 16.3635L28.5068 17.021C28.4515 17.1167 28.3624 17.1851 28.2557 17.2137C28.1491 17.2423 28.0376 17.2276 27.942 17.1724L26.0163 16.0606L26.8093 14.6871L28.7351 15.799C28.8307 15.854 28.8991 15.9433 28.9277 16.0498ZM7.17975 8.37501C7.17179 8.38879 7.15407 8.39357 7.14019 8.3856L5.811 7.61816C5.80791 7.61629 5.8006 7.61216 5.7975 7.60054C5.79441 7.58891 5.79863 7.58169 5.80041 7.5786L9.35588 1.42035C9.36385 1.40657 9.38138 1.40169 9.39544 1.40985L10.7246 2.17729C10.7384 2.18526 10.7432 2.20297 10.7352 2.21685L7.17975 8.37501Z" fill="#79ADD5"/>
<path d="M29.1348 20.012C28.8926 20.012 28.657 20.1116 28.4882 20.2854C27.0068 21.8109 26.6958 22.7537 26.6958 23.2761C26.6958 24.6209 27.79 25.7151 29.1348 25.7151C30.4796 25.7151 31.5738 24.6209 31.5738 23.2761C31.5738 22.7538 31.2628 21.8109 29.7814 20.2854C29.6126 20.1117 29.3769 20.012 29.1348 20.012ZM29.1348 24.3088C28.5654 24.3088 28.1021 23.8456 28.1021 23.2761C28.1021 23.0374 28.4613 22.4158 29.1348 21.6554C29.8082 22.4157 30.1675 23.0373 30.1675 23.2761C30.1675 23.8455 29.7042 24.3088 29.1348 24.3088Z" fill="#79ADD5"/>
<path d="M40.7928 28.3777C40.574 27.7303 39.9675 27.2952 39.2834 27.2952H30.7754C30.3871 27.2952 30.0723 27.6099 30.0723 27.9983C30.0723 28.3867 30.3871 28.7014 30.7754 28.7014H39.2834C39.3637 28.7014 39.435 28.7521 39.4604 28.8276C40.2747 31.2389 40.9184 33.3491 41.3772 35.0994H16.8921C17.3509 33.3491 17.9946 31.2389 18.809 28.8276C18.8344 28.7521 18.9057 28.7014 18.986 28.7014H27.4941C27.8824 28.7014 28.1973 28.3867 28.1973 27.9983C28.1973 27.6099 27.8824 27.2952 27.4941 27.2952H18.986C18.3019 27.2952 17.6953 27.7303 17.4767 28.3777C15.4877 34.267 14.5434 38.2004 14.6703 40.0688C14.7866 41.7794 16.7723 45.2679 17.9456 47.1949C18.2479 47.6915 18.7972 47.9999 19.3791 47.9999H38.8903C39.4722 47.9999 40.0215 47.6915 40.3238 47.1949C41.4971 45.2679 43.4827 41.7797 43.599 40.0688C43.7259 38.2007 42.7818 34.2672 40.7928 28.3777ZM42.1959 39.9734C42.1278 40.9751 40.9503 43.4619 39.1226 46.4637C39.073 46.5451 38.9862 46.5938 38.8903 46.5938H19.3791C19.2832 46.5938 19.1963 46.5451 19.1467 46.4637C17.3191 43.4617 16.1415 40.9749 16.0734 39.9734C16.0243 39.2506 16.187 38.0732 16.5455 36.5056H41.7238C42.0823 38.0733 42.245 39.2506 42.1959 39.9734Z" fill="#79ADD5"/>
</g>
<defs>
<clipPath id="clip0_2031_773">
<rect width="48" height="48" fill="white"/>
</clipPath>
</defs>
</svg>
