<svg width="32" height="32" viewBox="0 0 32 32" fill="none" xmlns="http://www.w3.org/2000/svg">
<g clip-path="url(#clip0_95_11014)">
<path d="M25.534 8.87138H18.3607C18.1704 8.87138 18.0113 8.80738 17.8833 8.67938C17.7553 8.55138 17.6918 8.39316 17.6927 8.20471C17.6935 8.01627 17.7571 7.8576 17.8833 7.72871C18.0095 7.59982 18.1682 7.53627 18.3593 7.53804H25.534L23.222 5.22471C23.0967 5.10027 23.0287 4.94871 23.018 4.77005C23.0073 4.59138 23.0727 4.42827 23.214 4.28071C23.3607 4.13404 23.5207 4.05938 23.694 4.05671C23.8655 4.05404 24.0251 4.12649 24.1727 4.27405L27.35 7.46604C27.5651 7.68116 27.6727 7.93271 27.6727 8.22071C27.6727 8.50871 27.5647 8.75982 27.3487 8.97404L24.1646 12.1434C24.0349 12.2678 23.882 12.3345 23.706 12.3434C23.53 12.3523 23.3687 12.2856 23.222 12.1434C23.0744 11.9958 22.9993 11.8372 22.9967 11.6674C22.994 11.4976 23.0664 11.3389 23.214 11.1914L25.534 8.87138ZM25.2407 26.666C22.9935 26.666 20.6895 26.1034 18.3287 24.978C15.9678 23.8527 13.7704 22.2727 11.7367 20.238C9.71887 18.2043 8.14732 16.0109 7.02198 13.658C5.89665 11.3052 5.33398 9.0056 5.33398 6.75938C5.33398 6.35938 5.46732 6.0216 5.73398 5.74604C6.00065 5.47049 6.33398 5.33271 6.73398 5.33271H10.0313C10.394 5.33271 10.7104 5.44693 10.9807 5.67538C11.2509 5.90382 11.4335 6.19671 11.5287 6.55404L12.19 9.73271C12.2522 10.106 12.2411 10.4318 12.1567 10.71C12.0722 10.9883 11.9242 11.2163 11.7127 11.394L8.78732 14.122C9.33487 15.1149 9.93976 16.0376 10.602 16.89C11.2642 17.7425 11.9709 18.55 12.722 19.3127C13.4953 20.086 14.3282 20.806 15.2207 21.4727C16.1131 22.1385 17.0927 22.7669 18.1593 23.358L21.0113 20.4554C21.2282 20.2216 21.4722 20.0674 21.7433 19.9927C22.0135 19.9189 22.3131 19.9043 22.642 19.9487L25.446 20.522C25.8087 20.6109 26.1029 20.7936 26.3287 21.07C26.5544 21.3465 26.6673 21.6629 26.6673 22.0194V25.266C26.6673 25.666 26.5295 25.9994 26.254 26.266C25.9784 26.5327 25.6407 26.666 25.2407 26.666ZM8.16332 12.8714L10.7233 10.518C10.8078 10.4496 10.8629 10.3554 10.8887 10.2354C10.9153 10.1154 10.9109 10.0043 10.8753 9.90205L10.2847 7.07538C10.25 6.93938 10.19 6.83716 10.1047 6.76871C10.0193 6.70027 9.90776 6.66605 9.76998 6.66605H7.03398C6.93176 6.66605 6.84643 6.70027 6.77798 6.76871C6.70954 6.83716 6.67532 6.92249 6.67532 7.02471C6.7011 7.93582 6.84376 8.88693 7.10332 9.87805C7.36287 10.8692 7.71576 11.8669 8.16198 12.8714M19.4287 23.9834C20.33 24.4296 21.29 24.7598 22.3087 24.974C23.3291 25.1874 24.218 25.3016 24.9753 25.3167C25.0775 25.3167 25.1629 25.2825 25.2313 25.214C25.2998 25.1456 25.334 25.0607 25.334 24.9594V22.282C25.334 22.146 25.2998 22.0349 25.2313 21.9487C25.1629 21.8634 25.0607 21.8038 24.9247 21.77L22.458 21.2647C22.3549 21.23 22.2647 21.2256 22.1873 21.2514C22.1109 21.278 22.03 21.3336 21.9447 21.418L19.4287 23.9834Z" fill="#B6D87A"/>
</g>
<defs>
<clipPath id="clip0_95_11014">
<rect width="32" height="32" fill="white"/>
</clipPath>
</defs>
</svg>
