<svg width="32" height="32" viewBox="0 0 32 32" fill="none" xmlns="http://www.w3.org/2000/svg">
<path fill-rule="evenodd" clip-rule="evenodd" d="M14.7714 14.735L14.7723 14.7358C15.1065 15.0808 15.4971 15.2466 15.9929 15.2466C16.4913 15.2466 16.8866 15.0812 17.2258 14.7377C17.5642 14.3952 17.7344 13.9856 17.7344 13.4591C17.7344 12.9301 17.5647 12.5157 17.2277 12.1677C16.8935 11.8227 16.5029 11.657 16.0071 11.657C15.5087 11.657 15.1134 11.8224 14.7742 12.1658C14.4358 12.5084 14.2656 12.918 14.2656 13.4445C14.2656 13.9756 14.4356 14.3893 14.7714 14.735ZM13.6614 15.7999C14.2903 16.4488 15.0837 16.7799 15.9929 16.7799C16.8997 16.7799 17.6934 16.4531 18.3268 15.812C18.9611 15.1699 19.2772 14.369 19.2772 13.4591C19.2772 12.5515 18.9653 11.7506 18.3392 11.1043C17.7102 10.455 16.9166 10.1236 16.0071 10.1236C15.1003 10.1236 14.3066 10.4505 13.6732 11.0916C13.0389 11.7337 12.7228 12.5346 12.7228 13.4445C12.7228 14.3531 13.0343 15.1545 13.6614 15.7999ZM21.4828 18.8486C22.8665 16.7464 23.4571 14.9512 23.4571 13.43C23.4571 10.8589 22.6747 8.99436 21.2373 7.64848C19.7093 6.21784 17.9854 5.53333 16 5.53333C14.0155 5.53333 12.2919 6.21877 10.7638 7.65232C9.32418 9.00278 8.54286 10.8656 8.54286 13.4252C8.54286 14.9398 9.13653 16.7319 10.5311 18.835C11.7591 20.6867 13.5711 22.7236 16.0045 24.9439C18.4539 22.7274 20.2666 20.695 21.4828 18.8486ZM16 27C19.0316 24.3788 21.2895 21.9416 22.7737 19.6884C24.2579 17.4336 25 15.3475 25 13.43C25 10.5199 24.0984 8.2207 22.2953 6.53242C20.4921 4.84414 18.3937 4 16 4C13.6063 4 11.5079 4.84575 9.70474 6.53726C7.90158 8.22877 7 10.5247 7 13.4252C7 15.3394 7.74763 17.4239 9.2429 19.6787C10.7382 21.9335 12.9905 24.374 16 27Z" fill="#2190AC"/>
</svg>
