<svg width="32" height="32" viewBox="0 0 32 32" fill="none" xmlns="http://www.w3.org/2000/svg">
<g clip-path="url(#clip0_95_11007)">
<path d="M29.2607 3.68747C28.9733 3.44891 28.6267 3.29268 28.2576 3.23539C27.8885 3.17811 27.5108 3.22191 27.1647 3.36213L3.27535 13.0061C2.88931 13.1648 2.56065 13.4371 2.333 13.7869C2.10534 14.1367 1.98947 14.5475 2.00075 14.9647C2.01204 15.3819 2.14995 15.7858 2.39617 16.1228C2.6424 16.4598 2.9853 16.7139 3.37935 16.8515L8.53401 18.6408L11.3273 27.8755C11.3327 27.8941 11.35 27.9061 11.358 27.9235C11.3872 27.997 11.4291 28.0647 11.482 28.1235C11.5633 28.2132 11.6675 28.2791 11.7833 28.3141C11.7967 28.3195 11.806 28.3315 11.8193 28.3341H11.8273L11.8313 28.3355C11.9345 28.3575 12.0417 28.352 12.142 28.3195L12.1753 28.3128C12.2716 28.2788 12.3587 28.2231 12.43 28.1501C12.438 28.1408 12.4513 28.1395 12.4593 28.1315L16.4767 23.6968L22.3393 28.2368C22.6953 28.5155 23.134 28.6661 23.586 28.6661C24.5647 28.6661 25.4087 27.9808 25.61 27.0248L29.9593 5.66747C30.0336 5.3049 30.0078 4.92897 29.8847 4.57994C29.7616 4.23092 29.5459 3.92195 29.2607 3.68613M12.7847 20.3941L11.842 24.9768L9.87535 18.4728L19.6287 13.3928L12.966 20.0568C12.8739 20.1491 12.8108 20.2664 12.7847 20.3941ZM24.3033 26.7568C24.2783 26.8777 24.2226 26.9901 24.1416 27.0833C24.0606 27.1765 23.9569 27.2472 23.8407 27.2888C23.7271 27.3318 23.6044 27.3448 23.4844 27.3266C23.3643 27.3084 23.251 27.2596 23.1553 27.1848L16.8047 22.2661C16.6719 22.1637 16.5054 22.115 16.3384 22.1298C16.1713 22.1446 16.016 22.2219 15.9033 22.3461L13.1073 25.4275L14.0487 20.8581L23.634 11.2715C23.7463 11.1588 23.8146 11.0098 23.8266 10.8513C23.8386 10.6927 23.7936 10.5351 23.6996 10.4068C23.6056 10.2785 23.4689 10.1881 23.3141 10.1518C23.1593 10.1155 22.9966 10.1357 22.8554 10.2088L9.03801 17.4061L3.81535 15.5901C3.6773 15.5437 3.55696 15.4558 3.4708 15.3384C3.38464 15.2209 3.33686 15.0798 3.33401 14.9341C3.32697 14.787 3.36611 14.6412 3.44596 14.5174C3.52581 14.3936 3.64238 14.2978 3.77935 14.2435L27.6647 4.59947C27.7872 4.54807 27.9216 4.53158 28.0529 4.55182C28.1842 4.57206 28.3073 4.62824 28.4087 4.71413C28.5095 4.79515 28.5857 4.90277 28.6286 5.02483C28.6715 5.14688 28.6794 5.2785 28.6514 5.4048L24.3033 26.7568Z" fill="#79ADD5"/>
</g>
<defs>
<clipPath id="clip0_95_11007">
<rect width="32" height="32" fill="white"/>
</clipPath>
</defs>
</svg>
