<svg width="64" height="64" viewBox="0 0 64 64" fill="none" xmlns="http://www.w3.org/2000/svg">
<path d="M0 32C0 14.3269 14.3269 0 32 0C49.6731 0 64 14.3269 64 32C64 49.6731 49.6731 64 32 64C14.3269 64 0 49.6731 0 32Z" fill="#79ADD5" fill-opacity="0.2"/>
<g clip-path="url(#clip0_1_5727)">
<path d="M41.8507 31.6764C38.7788 30.0484 35.4644 29.2229 31.9997 29.2229C28.5351 29.2229 25.2207 30.0484 22.1488 31.6764C19.2239 33.2265 16.6198 35.4929 14.6179 38.2306C14.4672 38.4365 14.4672 38.7164 14.6179 38.9223C16.6198 41.66 19.224 43.9264 22.1488 45.4765C25.2207 47.1045 28.5351 47.93 31.9997 47.93C35.4644 47.93 38.7788 47.1045 41.8507 45.4765C44.7755 43.9264 47.3797 41.66 49.3816 38.9223C49.5322 38.7164 49.5322 38.4365 49.3816 38.2306C47.3797 35.4929 44.7755 33.2265 41.8507 31.6764ZM38.8625 31.6177C39.725 32.9437 40.1813 34.4795 40.1813 36.0714C40.1813 40.5828 36.5111 44.2531 31.9997 44.2531C27.4882 44.2531 23.818 40.5828 23.818 36.0714C23.818 34.4804 24.2744 32.9436 25.1367 31.6177C27.3277 30.8054 29.6263 30.3948 31.9997 30.3948C34.3729 30.3948 36.6715 30.8055 38.8625 31.6177ZM41.302 44.441C38.4009 45.9785 35.2711 46.7581 31.9997 46.7581C28.7283 46.7581 25.5986 45.9785 22.6975 44.441C20.0524 43.0393 17.6832 41.0171 15.8221 38.5765C17.6832 36.1358 20.0524 34.1137 22.6975 32.7119C22.9357 32.5856 23.1756 32.4651 23.4168 32.3491C22.9101 33.5159 22.6463 34.7782 22.6463 36.0715C22.6463 41.229 26.8422 45.425 31.9998 45.425C37.1574 45.425 41.3534 41.229 41.3534 36.0715C41.3534 34.7778 41.0903 33.5159 40.5838 32.3495C40.8246 32.4654 41.0642 32.5859 41.302 32.7119C43.9472 34.1137 46.3164 36.1359 48.1775 38.5765C46.3162 41.0171 43.9471 43.0393 41.302 44.441Z" fill="#13263D"/>
<path d="M31.9998 40.4148C34.3948 40.4148 36.3433 38.4663 36.3433 36.0713C36.3433 35.4988 36.2334 34.9422 36.0169 34.4168C35.8935 34.1176 35.5511 33.975 35.2519 34.0984C34.9527 34.2218 34.8102 34.5643 34.9334 34.8634C35.0913 35.2465 35.1714 35.6528 35.1714 36.0713C35.1714 37.8201 33.7487 39.2429 31.9998 39.2429C30.2509 39.2429 28.8281 37.8201 28.8281 36.0713C28.8281 34.3225 30.2509 32.8997 31.9998 32.8997C32.493 32.8997 32.9654 33.0096 33.4037 33.2264C33.6939 33.3698 34.0452 33.251 34.1887 32.9609C34.3321 32.6708 34.2133 32.3194 33.9232 32.176C33.322 31.8786 32.6748 31.7278 31.9998 31.7278C29.6048 31.7278 27.6562 33.6763 27.6562 36.0713C27.6563 38.4663 29.6048 40.4148 31.9998 40.4148Z" fill="#13263D"/>
<path d="M52 20.7157C52 19.9051 51.4855 19.1906 50.7198 18.9377C43.0065 16.3903 35.2811 15.5341 27.7581 16.3931C21.5069 17.1068 16.7557 18.8527 13.8707 20.1916C12.9969 20.5971 12.3545 21.3648 12.1084 22.2978C11.8605 23.2369 12.0423 24.2291 12.6073 25.0199C13.2368 25.9013 14.2267 26.3841 15.2444 26.384C15.7264 26.384 16.2146 26.2757 16.6737 26.0502C17.0451 25.8678 17.4358 25.685 17.8347 25.507C18.1302 25.3751 18.2629 25.0286 18.131 24.7331C17.9991 24.4376 17.6527 24.3049 17.3571 24.4368C16.9451 24.6207 16.5414 24.8096 16.1572 24.9984C15.2456 25.4461 14.1536 25.1686 13.5608 24.3387C13.1993 23.8325 13.0829 23.1976 13.2415 22.5968C13.3984 22.002 13.8076 21.5128 14.364 21.2545C17.1706 19.952 21.7956 18.2532 27.891 17.5573C35.2441 16.7177 42.8013 17.5565 50.3523 20.0503C50.6324 20.1428 50.8281 20.4164 50.8281 20.7156C50.8281 20.926 50.7347 21.1236 50.5717 21.2575C50.4097 21.3907 50.2084 21.4417 50.0045 21.4015C43.9664 20.2081 37.9585 19.9244 32.1476 20.5582C27.8446 21.0276 23.7231 21.9846 19.8977 23.4026C19.8886 23.406 19.8795 23.4096 19.8705 23.4135L19.8703 23.4135C19.5729 23.541 19.4352 23.8854 19.5626 24.1828C19.6868 24.4724 20.0167 24.6107 20.3086 24.5C24.0428 23.1161 28.0686 22.1819 32.2748 21.7231C37.9672 21.1022 43.856 21.3807 49.7773 22.5511C50.3234 22.659 50.8841 22.5175 51.3157 22.1629C51.7506 21.8056 52 21.2782 52 20.7157Z" fill="#13263D"/>
<path d="M51.8955 37.3171C51.7749 37.1428 51.6511 36.9677 51.5276 36.7968C51.3379 36.5346 50.9716 36.4757 50.7095 36.6654C50.4472 36.855 50.3884 37.2213 50.578 37.4835C50.6968 37.6478 50.8158 37.8161 50.9319 37.9838C51.0456 38.1482 51.2284 38.2364 51.4143 38.2364C51.5292 38.2364 51.6454 38.2027 51.7471 38.1323C52.0132 37.9482 52.0797 37.5833 51.8955 37.3171Z" fill="#13263D"/>
<path d="M17.8803 32.4656C18.0104 32.4656 18.1413 32.4225 18.25 32.3339C18.5538 32.0864 18.8664 31.8439 19.179 31.613C19.4393 31.4208 19.4945 31.0539 19.3022 30.7935C19.1101 30.5332 18.7431 30.4781 18.4829 30.6703C18.1554 30.9121 17.828 31.1661 17.5098 31.4253C17.259 31.6296 17.2212 31.9987 17.4256 32.2496C17.5415 32.3919 17.7101 32.4656 17.8803 32.4656Z" fill="#13263D"/>
<path d="M15.2754 35.1801C15.5375 34.8874 15.8083 34.5979 16.0802 34.3196C16.3063 34.0881 16.3019 33.7171 16.0704 33.491C15.8389 33.2649 15.4681 33.2692 15.2418 33.5007C14.9582 33.791 14.6758 34.093 14.4024 34.3983C14.1865 34.6393 14.2069 35.0098 14.4479 35.2257C14.5598 35.3259 14.6995 35.3751 14.8386 35.3751C14.9996 35.3751 15.1597 35.3093 15.2754 35.1801Z" fill="#13263D"/>
<path d="M21.357 30.0935C21.4542 30.0935 21.5527 30.0693 21.6434 30.0184C21.9842 29.8271 22.3334 29.6428 22.681 29.4706C22.971 29.3271 23.0898 28.9756 22.9463 28.6856C22.8027 28.3955 22.4512 28.2767 22.1613 28.4203C21.7954 28.6014 21.4281 28.7953 21.0697 28.9965C20.7875 29.1549 20.6872 29.5121 20.8456 29.7942C20.9531 29.9859 21.1521 30.0935 21.357 30.0935Z" fill="#13263D"/>
<path d="M45.7539 32.3372C45.8627 32.4258 45.9936 32.469 46.1238 32.469C46.2938 32.469 46.4624 32.3953 46.5783 32.2532C46.7828 32.0023 46.7452 31.6333 46.4943 31.4288C46.176 31.1694 45.8486 30.9152 45.521 30.6733C45.2609 30.481 44.8939 30.5361 44.7016 30.7965C44.5093 31.0568 44.5645 31.4237 44.8248 31.6159C45.1374 31.8468 45.45 32.0895 45.7539 32.3372Z" fill="#13263D"/>
<path d="M42.36 30.02C42.4507 30.0709 42.5492 30.0952 42.6464 30.0952C42.8514 30.0952 43.0503 29.9874 43.1578 29.796C43.3162 29.5138 43.216 29.1566 42.9338 28.9982C42.5753 28.7969 42.2079 28.6029 41.8421 28.4218C41.5522 28.2782 41.2007 28.397 41.0571 28.687C40.9135 28.977 41.0321 29.3284 41.3222 29.472C41.6699 29.6441 42.019 29.8285 42.36 30.02Z" fill="#13263D"/>
<path d="M25.1993 28.3808C25.2613 28.3808 25.3243 28.3709 25.3863 28.35C25.7557 28.2257 26.1325 28.1104 26.5065 28.0074C26.8184 27.9213 27.0016 27.5988 26.9156 27.2868C26.8296 26.9749 26.507 26.7917 26.195 26.8777C25.8002 26.9865 25.4023 27.1082 25.0125 27.2394C24.7058 27.3426 24.5408 27.6749 24.644 27.9816C24.7265 28.2263 24.9547 28.3808 25.1993 28.3808Z" fill="#13263D"/>
<path d="M38.6158 28.3509C38.6778 28.3717 38.7408 28.3817 38.8028 28.3817C39.0474 28.3817 39.2757 28.2272 39.3581 27.9825C39.4613 27.6758 39.2963 27.3435 38.9897 27.2403C38.5999 27.1091 38.2021 26.9873 37.8073 26.8784C37.4954 26.7924 37.1727 26.9754 37.0867 27.2874C37.0006 27.5995 37.1838 27.9221 37.4957 28.0081C37.8696 28.1112 38.2465 28.2265 38.6158 28.3509Z" fill="#13263D"/>
<path d="M48.763 33.506C48.5369 33.2744 48.1659 33.27 47.9344 33.496C47.7029 33.7221 47.6984 34.0931 47.9245 34.3246C48.1967 34.6035 48.4676 34.8932 48.7296 35.186C48.8453 35.3153 49.0055 35.3811 49.1664 35.3811C49.3055 35.3811 49.4451 35.3318 49.557 35.2318C49.7981 35.016 49.8187 34.6456 49.6028 34.4045C49.3296 34.0992 49.047 33.7969 48.763 33.506Z" fill="#13263D"/>
<path d="M34.6301 27.4312C34.6554 27.4345 34.6806 27.436 34.7054 27.436C34.9958 27.436 35.2479 27.2203 35.2859 26.9246C35.3271 26.6037 35.1004 26.3101 34.7793 26.2688C34.3723 26.2166 33.9581 26.1753 33.5483 26.1463C33.2261 26.1234 32.9454 26.3665 32.9224 26.6892C32.8995 27.012 33.1426 27.2923 33.4654 27.3152C33.8531 27.3427 34.245 27.3817 34.6301 27.4312Z" fill="#13263D"/>
<path d="M29.2991 27.4356C29.3238 27.4356 29.3491 27.434 29.3743 27.4308C29.7597 27.3813 30.1517 27.3424 30.5396 27.315C30.8624 27.2922 31.1055 27.0119 31.0827 26.6892C31.0599 26.3664 30.7801 26.1227 30.4568 26.1461C30.047 26.1751 29.6327 26.2162 29.2253 26.2684C28.9044 26.3096 28.6775 26.6031 28.7187 26.9241C28.7566 27.2198 29.0086 27.4356 29.2991 27.4356Z" fill="#13263D"/>
<path d="M13.2902 36.6654C13.028 36.4757 12.6617 36.5346 12.4721 36.7968C12.3485 36.9677 12.2247 37.1428 12.1041 37.3171C11.92 37.5832 11.9865 37.9482 12.2526 38.1324C12.3543 38.2028 12.4704 38.2365 12.5854 38.2365C12.7713 38.2365 12.9541 38.1483 13.0678 37.9839C13.1839 37.8161 13.3029 37.6478 13.4217 37.4836C13.6113 37.2213 13.5525 36.855 13.2902 36.6654Z" fill="#13263D"/>
</g>
<defs>
<clipPath id="clip0_1_5727">
<rect width="40" height="40" fill="white" transform="translate(12 12)"/>
</clipPath>
</defs>
</svg>
