<svg width="64" height="64" viewBox="0 0 64 64" fill="none" xmlns="http://www.w3.org/2000/svg">
<path d="M0 32C0 14.3269 14.3269 0 32 0C49.6731 0 64 14.3269 64 32C64 49.6731 49.6731 64 32 64C14.3269 64 0 49.6731 0 32Z" fill="#79ADD5" fill-opacity="0.2"/>
<g clip-path="url(#clip0_1_5754)">
<path d="M25.207 16.1068H31.6544C32.0814 16.1068 32.4954 16.2311 32.8515 16.4663L43.2141 23.3078C44.4411 24.1178 45.8666 24.546 47.3368 24.546H51.4142C51.7379 24.546 52.0001 24.2838 52.0001 23.9601C52.0001 23.6364 51.7379 23.3742 51.4142 23.3742H47.3368C46.0969 23.3742 44.8946 23.0131 43.8598 22.3299L33.4972 15.4882C32.9489 15.1261 32.3116 14.9348 31.6544 14.9348H25.207C24.8834 14.9348 24.6211 15.1971 24.6211 15.5207C24.6211 15.8444 24.8834 16.1068 25.207 16.1068Z" fill="#13263D"/>
<path d="M51.5661 32.1423L48.684 31.3673C47.1005 30.9408 45.4137 31.097 43.9348 31.8064C43.1231 32.1954 42.2184 32.4017 41.3177 32.4017C39.7145 32.4017 38.1481 31.7486 37.02 30.6111L28.9357 22.4572C28.3794 21.897 28.3787 20.9838 28.9333 20.422C29.2029 20.1494 29.5513 20.0056 29.9052 19.9916C30.2779 19.9791 30.6474 20.1017 30.9419 20.3728L37.1716 26.0978C37.4099 26.3166 37.781 26.3009 37.9997 26.0627C38.2185 25.8244 38.2028 25.4541 37.9646 25.2345L31.7357 19.5103C31.1982 19.0158 30.513 18.7877 29.8396 18.8197H20.0068C18.7474 18.8197 17.7232 17.7955 17.7232 16.5361C17.7232 16.2994 17.9162 16.1064 18.1529 16.1064H22.4724C22.7959 16.1064 23.0584 15.8447 23.0584 15.5205C23.0584 15.1971 22.7959 14.9346 22.4724 14.9346H18.1529C17.2701 14.9346 16.5514 15.6533 16.5514 16.5361C16.5514 16.8408 16.5912 17.1361 16.6662 17.4174H16.499C15.6162 17.4174 14.8975 18.1361 14.8975 19.0189C14.8975 20.9244 16.4475 22.4744 18.3521 22.4744H18.3623C18.6724 23.9041 19.9365 24.9572 21.4529 24.9572H22.2646C22.7162 26.1798 23.8966 27.0259 25.2326 27.0259H31.8154L36.188 31.4361C37.5349 32.7947 39.4044 33.5736 41.3177 33.5736C42.3927 33.5736 43.4731 33.3275 44.4419 32.8626C45.6684 32.2743 47.0669 32.1454 48.3801 32.4986L51.2614 33.2736C51.5739 33.3579 51.8957 33.1728 51.9793 32.8603C52.0637 32.5478 51.8786 32.2259 51.5661 32.1423ZM18.3521 21.3025C17.0935 21.3025 16.0693 20.2783 16.0693 19.0189C16.0693 18.7822 16.2623 18.5892 16.499 18.5892H17.2295C17.8599 19.4392 18.8701 19.9916 20.0068 19.9916H27.781C27.5185 20.3885 27.3748 20.8424 27.3513 21.3025H18.3521ZM21.4529 23.7853C20.5896 23.7853 19.856 23.2431 19.5795 22.4744H27.5599C27.6849 22.7681 27.8662 23.0431 28.1037 23.283L28.6013 23.7853H21.4529ZM25.2326 25.8541C24.549 25.8541 23.931 25.5017 23.5709 24.9572H29.7638L30.6529 25.8541H25.2326Z" fill="#13263D"/>
<path d="M45.6476 41.5259H45.6375C45.3273 40.0963 44.0632 39.0431 42.5468 39.0431H41.7351C41.2836 37.8205 40.1031 36.9744 38.7672 36.9744H32.1844L27.8117 32.5643C26.4649 31.2057 24.5953 30.4268 22.6821 30.4268C21.6071 30.4268 20.5266 30.6729 19.5579 31.1377C18.3313 31.7252 16.9329 31.8549 15.6196 31.5018L12.7384 30.7268C12.4259 30.6424 12.104 30.8275 12.0204 31.14C11.936 31.4525 12.1212 31.7744 12.4337 31.858L15.3157 32.633C16.8993 33.0596 18.586 32.9033 20.0649 32.1939C20.8766 31.8049 21.7813 31.5986 22.6821 31.5986C24.2852 31.5986 25.8516 32.2518 26.9797 33.3892L35.0641 41.5431C35.6203 42.1033 35.6211 43.0166 35.0664 43.5783C34.7797 43.8681 34.407 44.0126 34.0273 44.0095C33.6805 44.0072 33.3336 43.8814 33.0578 43.6275L26.8281 37.9025C26.5899 37.6838 26.2188 37.6994 26 37.9377C25.7813 38.1759 25.7969 38.5463 26.0352 38.7658L32.2641 44.49C32.7695 44.954 33.4039 45.1845 34.0367 45.1845C34.2102 45.1736 43.8234 45.1845 43.9929 45.1806C45.2523 45.1806 46.2765 46.2048 46.2765 47.4642C46.2765 47.7009 46.0835 47.8939 45.8468 47.8939H32.3461C31.9188 47.8939 31.5047 47.7697 31.1484 47.5337L25.4742 43.7876C25.2039 43.6095 24.8407 43.6837 24.6625 43.954C24.4844 44.2236 24.5586 44.5876 24.8289 44.7658L30.5031 48.5118C31.0516 48.8743 31.6883 49.0657 32.3461 49.0657H45.8468C46.7296 49.0657 47.4484 48.347 47.4484 47.4642C47.4484 47.1595 47.4085 46.8642 47.3335 46.5829H47.5007C48.3835 46.5829 49.1023 45.8642 49.1023 44.9814C49.1023 43.0759 47.5523 41.5259 45.6476 41.5259ZM34.2359 39.0431L33.3469 38.1463H38.7672C39.4508 38.1463 40.0687 38.4986 40.4289 39.0431H34.2359ZM35.3984 40.215H42.5468C43.4101 40.215 44.1437 40.7572 44.4203 41.5259H36.4398C36.3148 41.2322 36.1336 40.9572 35.8961 40.7173L35.3984 40.215ZM47.5007 45.4111H46.7703C46.1398 44.5611 45.1296 44.0087 43.9929 44.0087H36.2187C36.4812 43.6119 36.625 43.158 36.6484 42.6978H45.6476C46.9062 42.6978 47.9304 43.722 47.9304 44.9814C47.9304 45.2181 47.7374 45.4111 47.5007 45.4111Z" fill="#13263D"/>
<path d="M23.1859 42.277L20.786 40.6925C19.5591 39.8825 18.1335 39.4543 16.6634 39.4543H12.5859C12.2623 39.4543 12 39.7166 12 40.0403C12 40.364 12.2623 40.6262 12.5859 40.6262H16.6634C17.9032 40.6262 19.1055 40.9873 20.1403 41.6704L22.5402 43.2549C22.6395 43.3205 22.7516 43.3519 22.8625 43.3519C23.0527 43.3519 23.2393 43.2593 23.352 43.0888C23.5303 42.8188 23.4559 42.4553 23.1859 42.277Z" fill="#13263D"/>
</g>
<defs>
<clipPath id="clip0_1_5754">
<rect width="40" height="40" fill="white" transform="translate(12 12)"/>
</clipPath>
</defs>
</svg>
