<svg width="64" height="64" viewBox="0 0 64 64" fill="none" xmlns="http://www.w3.org/2000/svg">
<path d="M0 32C0 14.3269 14.3269 0 32 0C49.6731 0 64 14.3269 64 32C64 49.6731 49.6731 64 32 64C14.3269 64 0 49.6731 0 32Z" fill="#79ADD5" fill-opacity="0.2"/>
<g clip-path="url(#clip0_1_5710)">
<path d="M24.6087 32.7243C24.7069 32.9418 24.9211 33.0707 25.1452 33.0707C25.2261 33.0707 25.3084 33.0539 25.3869 33.0184C25.6829 32.8848 25.8147 32.5364 25.681 32.2402C25.3532 31.514 24.9455 30.8215 24.4692 30.1822C24.2753 29.9216 23.9066 29.8678 23.6461 30.0618C23.3855 30.2558 23.3316 30.6244 23.5257 30.8848C23.9514 31.4564 24.3158 32.0753 24.6087 32.7243Z" fill="#13263D"/>
<path d="M25.2715 34.7527C25.3124 34.9468 25.348 35.1448 25.3771 35.3412L25.6168 36.956C25.6602 37.2482 25.9112 37.458 26.198 37.458C26.2267 37.458 26.2558 37.4559 26.285 37.4515C26.6064 37.4039 26.8283 37.1046 26.7806 36.7833L26.5409 35.1684C26.5083 34.9486 26.4686 34.7271 26.4228 34.51C26.3558 34.192 26.0437 33.9889 25.7258 34.0557C25.4079 34.1227 25.2046 34.4347 25.2715 34.7527Z" fill="#13263D"/>
<path d="M20.3191 28.1039C20.945 28.4443 21.5352 28.8535 22.0731 29.3203C22.1844 29.4168 22.3217 29.4642 22.4584 29.4642C22.623 29.4642 22.7866 29.3955 22.9029 29.2614C23.1158 29.016 23.0895 28.6446 22.8441 28.4316C22.2421 27.9093 21.5816 27.4512 20.881 27.0704C20.5956 26.9151 20.2384 27.0208 20.0833 27.3061C19.9281 27.5916 20.0337 27.9487 20.3191 28.1039Z" fill="#13263D"/>
<path d="M38.613 33.0181C38.6915 33.0536 38.7737 33.0704 38.8546 33.0704C39.0787 33.0704 39.2929 32.9415 39.3911 32.7239C39.684 32.0751 40.0484 31.4563 40.4741 30.8848C40.6682 30.6242 40.6142 30.2557 40.3538 30.0616C40.0931 29.8675 39.7247 29.9214 39.5306 30.1819C39.0542 30.8215 38.6466 31.5139 38.3189 32.24C38.1851 32.5362 38.3169 32.8845 38.613 33.0181Z" fill="#13263D"/>
<path d="M41.5416 29.4641C41.6783 29.4641 41.8156 29.4167 41.9269 29.3202C42.4648 28.8534 43.055 28.4442 43.6809 28.1038C43.9663 27.9486 44.0718 27.5915 43.9167 27.306C43.7616 27.0206 43.4045 26.9148 43.1189 27.0702C42.4183 27.4511 41.7579 27.9091 41.1559 28.4315C40.9105 28.6444 40.8841 29.0159 41.0971 29.2613C41.2135 29.3955 41.3771 29.4641 41.5416 29.4641Z" fill="#13263D"/>
<path d="M37.7149 37.4516C37.7442 37.456 37.7732 37.4581 37.802 37.4581C38.0886 37.4581 38.3397 37.2482 38.3831 36.9561L38.6228 35.3414C38.652 35.1443 38.6876 34.9462 38.7283 34.7526C38.7953 34.4347 38.5919 34.1228 38.2739 34.0558C37.9566 33.9886 37.644 34.1922 37.5771 34.5102C37.5315 34.7268 37.4918 34.9482 37.459 35.1686L37.2193 36.7835C37.1717 37.1047 37.3935 37.4039 37.7149 37.4516Z" fill="#13263D"/>
<path d="M50.1686 18.6751C49.8504 18.6106 49.5398 18.8163 49.4752 19.1347L49.3352 19.8251C49.1574 20.7018 48.5158 21.4093 47.6605 21.6715C47.0489 21.8591 46.6033 22.3673 46.4974 22.9979L46.0278 25.793L45.2417 26.1211C44.9419 26.2462 44.8003 26.5906 44.9254 26.8905C45.0197 27.1163 45.2383 27.2523 45.4685 27.2523C45.5441 27.2523 45.6208 27.2377 45.6949 27.2069L45.7975 27.164L45.2235 30.5803C44.6632 33.915 42.5429 36.8471 39.5516 38.4238L38.0479 39.2163L38.0502 39.2003C38.0978 38.879 37.876 38.5798 37.5547 38.5321C37.234 38.484 36.9342 38.7062 36.8865 39.0276L36.7575 39.8964L35.5716 40.5215C33.3351 41.7002 30.6648 41.7002 28.4285 40.5215L27.2425 39.8964L27.1136 39.0276C27.0659 38.7061 26.7664 38.4846 26.4453 38.5321C26.124 38.5798 25.9021 38.879 25.9498 39.2003L25.9521 39.2163L24.4485 38.4238C21.4572 36.8471 19.3368 33.915 18.7766 30.5803L18.2026 27.1641L18.3051 27.2069C18.3792 27.2378 18.456 27.2523 18.5315 27.2523C18.7618 27.2523 18.9804 27.1163 19.0745 26.8905C19.1996 26.5908 19.0581 26.2462 18.7582 26.1211L17.9723 25.793L17.5026 22.998C17.3966 22.3673 16.9509 21.8591 16.3395 21.6715C15.4843 21.4093 14.8426 20.7019 14.6648 19.8253L13.6679 14.9092C13.592 14.5347 13.6653 14.1524 13.8743 13.8325C14.2983 13.1837 15.1527 12.985 15.8194 13.3803L16.5109 13.7904C16.7903 13.956 17.1512 13.864 17.3168 13.5845C17.4825 13.3051 17.3904 12.9442 17.1109 12.7785L16.4195 12.3684C15.2094 11.651 13.6588 12.0113 12.8894 13.1889C12.5101 13.7694 12.3771 14.4634 12.5149 15.1429L13.5118 20.059C13.7754 21.3587 14.7267 22.4075 15.9945 22.7963C16.1774 22.8524 16.3107 23.0043 16.3424 23.193L17.6163 30.7752C17.9229 32.5995 18.6578 34.356 19.7418 35.855C20.3545 36.7023 21.0805 37.4693 21.8913 38.132L21.6727 42.475C21.6564 42.7995 21.9062 43.0757 22.2306 43.092C22.2407 43.0926 22.2507 43.0928 22.2607 43.0928C22.572 43.0928 22.8318 42.8486 22.8477 42.5341L23.0278 38.9561C23.3114 39.1377 23.6023 39.3076 23.8999 39.4645L27.8798 41.5623C29.1698 42.2422 30.5849 42.5821 31.9999 42.5821C33.415 42.5821 34.8301 42.2422 36.12 41.5623L40.1 39.4645C40.4243 39.2935 40.7405 39.1068 41.048 38.9066L41.3958 45.8141C41.4233 46.3604 41.6948 46.8553 42.1408 47.172L48.7888 51.8912C48.8922 51.9646 49.0111 51.9999 49.1288 51.9999C49.3129 51.9999 49.4943 51.9136 49.6089 51.7521C49.797 51.4872 49.7348 51.12 49.4699 50.932L42.8219 46.2127C42.6716 46.106 42.5801 45.9392 42.5708 45.7551L42.1838 38.0691C42.9642 37.4208 43.6646 36.6758 44.2583 35.8549C45.3422 34.356 46.0771 32.5994 46.3837 30.7752L47.6576 23.1927C47.6893 23.0043 47.8226 22.8523 48.0054 22.7963C49.2733 22.4075 50.2246 21.3586 50.4882 20.0589L50.6282 19.3684C50.6929 19.0501 50.4871 18.7397 50.1686 18.6751Z" fill="#13263D"/>
<path d="M51.1104 13.189C50.3409 12.0114 48.7903 11.6509 47.5803 12.3685L46.8889 12.7786C46.6094 12.9443 46.5173 13.3052 46.6829 13.5846C46.8486 13.8641 47.2097 13.9561 47.4889 13.7905L48.1803 13.3804C48.8471 12.9849 49.7015 13.1836 50.1255 13.8326C50.3345 14.1524 50.4078 14.5348 50.3319 14.9093L49.9787 16.651C49.9141 16.9694 50.12 17.2799 50.4383 17.3444C50.4778 17.3524 50.5171 17.3562 50.5558 17.3562C50.8298 17.3562 51.0751 17.1637 51.1317 16.8847L51.4849 15.143C51.6227 14.4635 51.4897 13.7695 51.1104 13.189Z" fill="#13263D"/>
<path d="M22.1635 44.4208C21.8377 44.4029 21.5627 44.6542 21.5464 44.9787L21.5072 45.7551C21.498 45.9393 21.4064 46.106 21.2561 46.2127L14.6081 50.9319C14.3432 51.12 14.2809 51.4872 14.469 51.7521C14.5837 51.9137 14.765 51.9999 14.9492 51.9999C15.0669 51.9999 15.1859 51.9646 15.2892 51.8912L21.9371 47.172C22.3831 46.8554 22.6547 46.3605 22.6822 45.8142L22.7213 45.0378C22.7377 44.7134 22.4879 44.4371 22.1635 44.4208Z" fill="#13263D"/>
<path d="M30.1652 25.3441L30.262 25.2957C30.3384 25.2575 30.4306 25.2677 30.497 25.3215L30.9824 25.7162C31.2773 25.9559 31.6388 26.0757 32.0004 26.0757C32.3619 26.0757 32.7234 25.9559 33.0183 25.7161L33.5037 25.3215C33.5699 25.2676 33.6622 25.2575 33.7389 25.2958L33.8351 25.3439C34.5607 25.7067 35.4362 25.568 36.0141 24.9986C36.7019 24.3208 36.7709 23.2368 36.1747 22.4773L34.7796 20.6997C34.6472 20.531 34.5742 20.3198 34.5742 20.1052V18.0436C34.5742 17.7186 34.3109 17.4553 33.986 17.4553C33.661 17.4553 33.3977 17.7186 33.3977 18.0436V20.1051C33.3977 20.5819 33.5598 21.0511 33.8542 21.4261L35.2493 23.2037C35.4756 23.492 35.4494 23.9033 35.1884 24.1606C34.969 24.3768 34.6368 24.4294 34.3611 24.2916L34.2649 24.2435C33.776 23.9989 33.1857 24.0638 32.7615 24.4087L32.2761 24.8032C32.1162 24.9332 31.8841 24.9332 31.7244 24.8033L31.239 24.4087C30.8148 24.0637 30.2247 23.999 29.736 24.2433L29.6393 24.2917C29.364 24.4295 29.0317 24.3767 28.8124 24.1606C28.5513 23.9033 28.5251 23.492 28.7513 23.2037L30.1466 21.426C30.4408 21.0509 30.603 20.5818 30.603 20.1051V18.0436C30.603 17.7186 30.3396 17.4553 30.0147 17.4553C29.6899 17.4553 29.4265 17.7186 29.4265 18.0436V20.1051C29.4265 20.3197 29.3535 20.5309 29.2211 20.6996L27.8259 22.4772C27.2297 23.2368 27.2988 24.3207 27.9866 24.9986C28.5644 25.5679 29.4401 25.7065 30.1652 25.3441Z" fill="#13263D"/>
<path d="M35.8218 30.9602C36.0199 30.9602 36.2133 30.8601 36.3242 30.6787C36.4937 30.4015 36.4063 30.0394 36.1291 29.8699L34.0171 28.5793C33.6587 28.3603 33.2062 28.3471 32.8361 28.5448L32.0388 28.9701L31.2416 28.5448C30.8713 28.3471 30.4187 28.3604 30.0606 28.5793L27.9486 29.8699C27.6714 30.0394 27.584 30.4013 27.7534 30.6787C27.9228 30.9558 28.2848 31.0433 28.562 30.8738L30.674 29.5831C30.6783 29.5807 30.6836 29.5805 30.6878 29.5827L31.4922 30.0119C31.8344 30.1944 32.2431 30.1946 32.5854 30.0119L33.39 29.5827C33.394 29.5804 33.3994 29.5805 33.4036 29.5831L35.5156 30.8738C35.6115 30.9324 35.7172 30.9602 35.8218 30.9602Z" fill="#13263D"/>
<path d="M33.6209 31.4697L33.078 31.8279C32.4235 32.2603 31.5774 32.2601 30.9228 31.8279L30.3802 31.4697C30.1091 31.2909 29.7442 31.3654 29.5652 31.6365C29.3862 31.9076 29.4609 32.2724 29.7319 32.4515L30.2746 32.8098C30.7989 33.1559 31.3996 33.3289 32.0005 33.3289C32.6012 33.3289 33.2021 33.1558 33.7263 32.8098L34.269 32.4515C34.5402 32.2725 34.6148 31.9076 34.4359 31.6365C34.2568 31.3654 33.8919 31.2908 33.6209 31.4697Z" fill="#13263D"/>
</g>
<defs>
<clipPath id="clip0_1_5710">
<rect width="40" height="40" fill="white" transform="translate(12 12)"/>
</clipPath>
</defs>
</svg>
