<svg width="64" height="64" viewBox="0 0 64 64" fill="none" xmlns="http://www.w3.org/2000/svg">
<path d="M0 32C0 14.3269 14.3269 0 32 0C49.6731 0 64 14.3269 64 32C64 49.6731 49.6731 64 32 64C14.3269 64 0 49.6731 0 32Z" fill="#79ADD5" fill-opacity="0.2"/>
<path d="M18.5376 22.1014C18.8869 22.1014 19.2285 22.0462 19.5602 21.9402C19.8466 23.1906 20.2647 24.4095 20.808 25.5727C20.945 25.866 21.2937 25.9927 21.587 25.8556C21.8802 25.7187 22.0068 25.37 21.8698 25.0768C21.2645 23.7808 20.8245 22.411 20.562 21.005C20.4718 20.5244 20.4024 20.0371 20.3542 19.5474C20.324 19.2397 20.0689 18.9998 19.7598 18.9998C19.4215 18.9998 19.1525 19.2852 19.1848 19.6219C19.222 20.0093 19.2717 20.3954 19.3335 20.7783C19.0754 20.878 18.8091 20.9295 18.5376 20.9295C17.457 20.9295 17.1234 20.3725 16.9186 19.482C16.8549 19.2048 16.6152 18.9998 16.3308 18.9998C15.965 18.9998 15.6801 19.332 15.7604 19.6889C16 20.7533 16.5595 22.1014 18.5376 22.1014Z" fill="#13263D"/>
<path d="M18.8016 43.929C21.4548 43.0786 23.3871 41.5623 24.2424 39.6596C24.9847 38.0075 24.9121 36.1736 24.848 34.5555L24.7273 31.5151C25.8541 32.9051 27.5641 33.7265 29.3626 33.7265H34.2188C35.8085 33.7265 37.3077 33.0973 38.4126 32.0028L38.3115 34.5556C38.2648 35.7348 38.2119 37.0712 38.4929 38.3558C38.5616 38.6697 38.8714 38.8723 39.1905 38.803C39.5066 38.7338 39.7069 38.4215 39.6377 38.1053C39.3888 36.9676 39.4386 35.7108 39.4825 34.6019L39.6502 30.3694L40.9911 28.3648C42.3004 26.4074 43.2008 24.2568 43.6757 21.9636C43.9835 22.0541 44.2996 22.1015 44.622 22.1015C46.6051 22.1015 47.1573 20.7569 47.3968 19.6888C47.4768 19.3323 47.1925 18.9998 46.8272 18.9998C46.5436 18.9998 46.3047 19.2041 46.2413 19.4805C46.0365 20.3719 45.7032 20.9295 44.622 20.9295C44.3691 20.9295 44.1207 20.8848 43.8794 20.7981C43.9349 20.4042 43.9775 20.0073 44.007 19.6094C44.0317 19.2771 43.7645 18.9998 43.4313 18.9998C43.1174 18.9998 42.8603 19.2471 42.8363 19.5601C42.798 20.0603 42.7377 20.5586 42.6557 21.0506C42.2571 23.4498 41.3694 25.6913 40.017 27.713C38.7545 29.1701 37.8427 32.5544 34.2189 32.5544H29.3627C26.6186 32.5544 25.3044 30.6329 23.0582 27.207C22.8806 26.9364 22.5175 26.8608 22.2469 27.0384C21.9763 27.2158 21.9008 27.5791 22.0782 27.8498C22.4539 28.4225 22.6815 28.7075 23.4873 29.824L23.6772 34.6019C23.7361 36.0909 23.8029 37.7784 23.1736 39.1791C22.7582 40.1033 21.5914 41.8043 18.4438 42.813C16.6647 43.3839 14.7079 43.6312 12.8233 44.1021C12.4221 44.2024 12.2632 44.6775 12.5107 45.0088C12.6562 45.2034 12.9055 45.2891 13.1413 45.2305C15.0033 44.7672 16.9225 44.5318 18.8016 43.929Z" fill="#13263D"/>
<path d="M50.6489 45.0088C50.8965 44.6775 50.7375 44.2023 50.3363 44.102C48.4458 43.6291 46.5097 43.3886 44.7157 42.813C43.4225 42.3985 41.6494 41.5956 40.5461 40.124C40.352 39.8652 39.9848 39.8127 39.7258 40.0067C39.4669 40.2008 39.4144 40.5681 39.6085 40.827C40.897 42.5456 42.9026 43.4624 44.3579 43.9289C46.2306 44.5297 48.1634 44.7693 50.0183 45.2305C50.2542 45.2891 50.5034 45.2034 50.6489 45.0088Z" fill="#13263D"/>
</svg>
