<svg width="64" height="64" viewBox="0 0 64 64" fill="none" xmlns="http://www.w3.org/2000/svg">
<path d="M0 32C0 14.3269 14.3269 0 32 0C49.6731 0 64 14.3269 64 32C64 49.6731 49.6731 64 32 64C14.3269 64 0 49.6731 0 32Z" fill="#79ADD5" fill-opacity="0.2"/>
<path d="M51.9884 31.389C51.9464 31.1803 51.794 31.0138 51.5941 30.9494C51.5802 30.9447 51.5661 30.9406 51.5517 30.9369C51.5473 30.9358 51.5431 30.934 51.5387 30.9331L51.2545 30.8718C48.5283 30.1776 45.7109 28.1483 44.5477 27.2413C44.4274 27.1475 44.3249 27.0657 44.2418 26.9986C40.0343 23.5976 37.4744 22.3152 35.4039 22.5718C35.1884 22.5985 34.9788 22.6424 34.7747 22.7038C33.8905 22.9698 33.1104 23.5632 32.4041 24.5035C32.3475 24.5788 32.2921 24.6568 32.2397 24.7351C32.1658 24.8454 32.0591 24.8619 32.0021 24.8619C31.945 24.8619 31.8385 24.8454 31.7643 24.735C31.7122 24.6573 31.6577 24.5805 31.6021 24.5065C31.6014 24.5055 31.6007 24.5044 31.6 24.5034C30.734 23.3506 29.7572 22.7194 28.6136 22.5736C26.6176 22.3187 24.0798 23.5552 20.1261 26.7068C19.8735 26.908 19.832 27.2759 20.0333 27.5285C20.2346 27.781 20.6025 27.8226 20.855 27.6213C24.4888 24.7249 26.836 23.5258 28.4657 23.7337C29.2907 23.8389 29.9895 24.3067 30.6647 25.2058C30.7086 25.2644 30.7519 25.3253 30.7932 25.3868C31.0471 25.7652 31.46 26.0007 31.9112 26.0287C31.9413 26.0305 31.9715 26.0315 32.0019 26.0315H32.002C32.0932 26.0315 32.1831 26.023 32.2708 26.0065C32.3293 25.9956 32.3869 25.9811 32.4432 25.9633C32.4713 25.9544 32.4992 25.9445 32.5267 25.934C32.8015 25.8279 33.0416 25.639 33.211 25.3867C33.252 25.3254 33.2952 25.2646 33.3392 25.206C34.0169 24.3037 34.7187 23.8355 35.5477 23.7326C37.2453 23.5222 39.6251 24.771 43.5065 27.9084C43.6214 28.0013 43.7353 28.0915 43.8487 28.1805C43.8783 28.2037 43.9078 28.2267 43.9373 28.2497C44.0386 28.3285 44.1393 28.406 44.2392 28.4817C44.2513 28.4909 44.2636 28.5005 44.2758 28.5096C44.3862 28.593 44.4956 28.674 44.6043 28.7536C44.6323 28.774 44.66 28.7942 44.6879 28.8144C44.7803 28.8816 44.8721 28.9475 44.9633 29.012C44.9817 29.025 45.0002 29.0383 45.0184 29.0512C45.1245 29.1258 45.2294 29.1985 45.3335 29.2696C45.3589 29.2869 45.3842 29.3039 45.4095 29.3211C45.4959 29.3796 45.5816 29.437 45.6666 29.4931C45.6886 29.5076 45.7106 29.5223 45.7325 29.5367C45.8338 29.6031 45.9341 29.6679 46.0334 29.731C46.0556 29.7451 46.0775 29.7588 46.0996 29.7727C46.182 29.8247 46.2635 29.8754 46.3444 29.9252C46.3679 29.9397 46.3916 29.9544 46.415 29.9687C46.5116 30.0276 46.6072 30.0851 46.7016 30.1408C46.7195 30.1514 46.737 30.1615 46.7548 30.1719C46.8347 30.2188 46.9138 30.2646 46.992 30.3093C47.0161 30.323 47.0402 30.3368 47.0641 30.3503C47.1557 30.4022 47.2466 30.4529 47.3359 30.5019C47.3477 30.5083 47.3591 30.5144 47.3707 30.5208C47.4504 30.5642 47.5291 30.6064 47.6069 30.6476C47.6303 30.66 47.6537 30.6723 47.677 30.6845C47.7634 30.7298 47.8492 30.7744 47.9333 30.8169C47.9369 30.8187 47.9404 30.8204 47.944 30.8222C48.0255 30.8634 48.1054 30.903 48.1845 30.9417C48.2071 30.9528 48.2296 30.9637 48.2521 30.9746C48.3241 31.0094 48.3951 31.0434 48.4649 31.0761C48.4748 31.0808 48.4848 31.0857 48.4947 31.0902C48.5724 31.1265 48.6485 31.1612 48.7236 31.1951C48.7323 31.199 48.7415 31.2034 48.7502 31.2073C46.3382 31.382 42.433 31.4521 37.9697 30.7133C36.3678 30.4484 34.463 31.1204 33.1475 31.7311C33.1474 31.7312 33.1364 31.7363 33.1363 31.7364C32.4147 32.0682 31.5872 32.0681 30.8682 31.7376L30.8545 31.7311C29.539 31.1204 27.6344 30.4481 26.0323 30.7133C21.5633 31.4531 17.6574 31.3825 15.2468 31.2072C16.178 30.7893 17.3246 30.1818 18.6147 29.3069C18.882 29.1257 18.9517 28.7621 18.7705 28.4948C18.5892 28.2276 18.2256 28.1576 17.9583 28.339C15.4024 30.0721 13.481 30.6843 12.7628 30.8689L12.4633 30.9336C12.4587 30.9346 12.4544 30.9364 12.4499 30.9375C12.4359 30.9411 12.4219 30.9451 12.4084 30.9497C12.207 31.0141 12.0524 31.181 12.0111 31.3913C11.9709 31.5964 12.0419 31.8043 12.1954 31.9403C12.2246 31.967 12.2567 31.9907 12.2909 32.011C12.2948 32.0136 12.2989 32.0165 12.3034 32.0194C13.1862 32.6123 16.2209 34.7409 18.2107 37.2379C19.9401 39.4082 21.6297 40.61 23.689 41.1342C24.6468 41.378 25.6465 41.4602 26.7095 41.4602C27.7283 41.4602 28.8054 41.3847 29.9593 41.3039C30.6118 41.2582 31.2863 41.2109 32.001 41.1728C32.7157 41.2108 33.3902 41.2581 34.0428 41.3039C38.5878 41.6223 41.8715 41.8524 45.407 37.7044C45.6165 37.4586 45.5871 37.0896 45.3413 36.8801C45.0955 36.6706 44.7264 36.7 44.517 36.9458C41.3643 40.6445 38.6391 40.4536 34.1245 40.1372C33.4576 40.0905 32.768 40.0422 32.0318 40.0032C32.0112 40.0021 31.9907 40.0021 31.9701 40.0032C31.2339 40.0422 30.5444 40.0905 29.8775 40.1372C25.2343 40.4627 22.4319 40.6589 19.1252 36.509C17.8132 34.8625 16.0843 33.3784 14.7498 32.3475C17.1755 32.5513 21.3428 32.6749 26.2232 31.8671C27.2439 31.698 28.7136 32.0266 30.3614 32.7916L30.37 32.7955C30.3701 32.7956 30.377 32.7988 30.3772 32.7989C30.8932 33.0361 31.4471 33.1547 32.001 33.1547C32.5549 33.1547 33.1088 33.0361 33.6247 32.7989C33.625 32.7988 33.6318 32.7956 33.632 32.7955C33.6325 32.7954 33.6395 32.7921 33.64 32.7918C35.2883 32.0266 36.7579 31.698 37.7788 31.8671C42.656 32.6743 46.8241 32.5508 49.2508 32.3472C48.3863 33.0148 47.3639 33.8673 46.3909 34.8339C46.1618 35.0615 46.1606 35.4317 46.3881 35.6608C46.5025 35.7759 46.6527 35.8335 46.803 35.8335C46.952 35.8335 47.101 35.7768 47.2151 35.6636C48.9895 33.9008 50.9414 32.528 51.6982 32.0197C51.699 32.0191 51.6998 32.0186 51.7005 32.0181C51.8042 31.9597 51.8884 31.8703 51.9405 31.762C51.9959 31.6483 52.0144 31.5178 51.9884 31.389Z" fill="#13263D"/>
</svg>
