<svg width="44" height="14" viewBox="0 0 44 14" fill="none" xmlns="http://www.w3.org/2000/svg">
<path d="M21.9327 0.714844H24.1223C24.2387 0.714844 24.2972 0.773456 24.2972 0.889899V13.1101C24.2972 13.2274 24.2387 13.2852 24.1223 13.2852H21.9327C21.8156 13.2852 21.7578 13.2266 21.7578 13.1101V0.889899C21.7578 0.773456 21.8156 0.714844 21.9327 0.714844Z" fill="#968FB2"/>
<path d="M31.6209 0.939133C31.667 0.858639 31.6787 0.800808 31.6553 0.766422C31.6319 0.732037 31.6037 0.714844 31.5694 0.714844H28.9472C28.9011 0.714844 28.8668 0.732037 28.8433 0.766422C28.8199 0.800808 25.0545 5.6875 25.0545 5.6875C24.6383 6.24236 24.5415 6.7308 24.5376 7.00041C24.5423 7.27003 24.6383 7.75846 25.0545 8.31333C25.0545 8.31333 28.8199 13.1992 28.8433 13.2344C28.866 13.2688 28.9011 13.286 28.9472 13.286H31.5694C31.6037 13.286 31.6326 13.2688 31.6553 13.2344C31.6779 13.2 31.667 13.1422 31.6209 13.0617C31.6209 13.0617 27.191 7.23721 27.1504 7.15671C27.1129 7.08247 27.0934 7.06528 27.0903 7.0012C27.0934 6.93711 27.1129 6.91914 27.1496 6.84568C27.191 6.76362 31.6209 0.939133 31.6209 0.939133Z" fill="#1C0D44"/>
<path d="M39.4107 7.50917H36.8698C36.6582 7.50917 36.7198 7.30598 36.7198 7.30598L38.002 3.107C38.002 3.107 38.0356 2.99525 38.1395 2.99525C38.2433 2.99525 38.2769 3.107 38.2769 3.107L39.5599 7.30598C39.6224 7.50917 39.4107 7.50917 39.4107 7.50917ZM43.9999 13.1805L40.479 1.74876C40.3384 1.29315 40.0784 1.00634 39.6997 0.889899C39.3202 0.773456 38.7978 0.714844 38.1317 0.714844C37.489 0.714844 36.9814 0.773456 36.6074 0.889899C36.2334 1.00712 35.9764 1.29315 35.8367 1.74876L32.2798 13.1805C32.2798 13.2508 32.3266 13.286 32.4196 13.286H34.6974C34.8137 13.286 34.8902 13.2274 34.9254 13.1109L35.8539 10.1131C35.889 9.98495 35.9647 9.92008 36.0819 9.92008H40.1986C40.315 9.92008 40.3915 9.97869 40.4267 10.0951L41.3551 13.1281C41.3903 13.2336 41.466 13.286 41.5831 13.286H43.8781C43.9586 13.2852 43.9999 13.25 43.9999 13.1805Z" fill="#968FB2"/>
<path d="M14.0221 10.8313V8.2891C14.0221 8.17266 14.0807 8.11405 14.197 8.11405H19.5749C19.6913 8.11405 19.7498 8.05543 19.7498 7.93899V5.92273C19.7498 5.80629 19.6913 5.74768 19.5749 5.74768H14.197C14.0799 5.74768 14.0221 5.68906 14.0221 5.57262V3.18672C14.0221 3.05855 14.0807 2.99369 14.197 2.99369H19.9958C20.1122 2.99369 20.1707 2.93507 20.1707 2.81863V0.889899C20.1707 0.773456 20.095 0.714844 19.9427 0.714844H11.6569C11.5397 0.714844 11.4819 0.773456 11.4819 0.889899V13.1101C11.4819 13.2274 11.5405 13.2852 11.6569 13.2852H19.9958C20.1122 13.2852 20.1707 13.2266 20.1707 13.1101V11.1814C20.1707 11.065 20.1122 11.0064 19.9958 11.0064H14.197C14.0182 11.0064 14.0221 10.8891 14.0221 10.8313Z" fill="#1C0D44"/>
<path d="M7.4191 9.17922C7.4191 10.1881 6.6023 11.0064 5.59419 11.0064H2.68934C2.5722 11.0064 2.51442 10.9478 2.51442 10.8313V3.16952C2.51442 3.05308 2.57299 2.99447 2.68934 2.99447H5.48019C6.55077 2.99447 7.41832 3.86271 7.41832 4.93414V9.17922H7.4191ZM9.98506 9.5645V4.8302C9.98506 2.55761 8.14375 0.714844 5.87297 0.714844C5.87219 0.714844 5.87141 0.714844 5.87141 0.714844H0.174916C0.0577849 0.714844 0 0.773456 0 0.889899V13.1101C0 13.2274 0.0585657 13.2852 0.174916 13.2852H6.26731C8.32023 13.2852 9.98506 11.6198 9.98506 9.5645Z" fill="#1C0D44"/>
</svg>
